<?xml version="1.0" standalone="no"?>
<!DOCTYPE svg PUBLIC "-//W3C//DTD SVG 20010904//EN"
 "http://www.w3.org/TR/2001/REC-SVG-20010904/DTD/svg10.dtd">
<svg version="1.0" xmlns="http://www.w3.org/2000/svg"
 width="813.000000pt" height="539.000000pt" viewBox="0 0 813.000000 539.000000"
 preserveAspectRatio="xMidYMid meet">

<g transform="translate(0.000000,539.000000) scale(0.100000,-0.100000)"
fill="#000000" stroke="none">
<path d="M3652 5294 c-75 -50 -74 -61 2 -21 36 20 68 32 70 28 5 -8 -35 -125
-59 -170 -8 -16 -11 -31 -8 -35 4 -3 1 -6 -6 -6 -7 0 -9 -4 -6 -10 4 -6 -1 -7
-12 -3 -16 6 -17 5 -3 -13 11 -15 11 -16 0 -7 -18 16 -22 43 -5 37 21 -8 27
27 8 42 -15 12 -15 13 -2 8 10 -3 19 2 23 13 4 10 2 19 -3 21 -6 2 -9 8 -6 12
3 5 -3 8 -14 7 -11 0 -18 -5 -15 -9 3 -4 -11 -6 -30 -4 -29 2 -33 0 -24 -11 9
-11 6 -12 -16 -4 -36 14 -33 8 14 -23 38 -25 45 -46 17 -46 -9 0 -9 2 1 8 8 6
0 15 -27 30 -53 30 -77 28 -89 -5 -5 -16 -19 -52 -31 -80 -17 -44 -18 -55 -7
-65 12 -11 11 -19 -5 -50 -11 -21 -26 -38 -34 -38 -8 0 -15 -7 -15 -15 0 -9
-9 -33 -20 -55 -11 -22 -20 -46 -20 -55 0 -9 -27 -54 -60 -99 -41 -57 -65
-101 -75 -140 -8 -32 -26 -72 -40 -90 -31 -41 -33 -76 -5 -76 11 0 20 -4 20
-9 0 -16 -54 -7 -62 9 -5 12 -7 12 -7 -2 -1 -29 -61 -52 -61 -24 0 19 -32 30
-42 14 -17 -28 -9 -47 20 -44 39 5 44 -2 20 -29 -26 -30 -38 -32 -38 -5 0 11
-7 20 -15 20 -9 0 -15 10 -16 28 l-1 27 -11 -27 c-15 -38 -47 -47 -65 -19 -8
11 -19 21 -25 21 -6 0 -18 7 -28 16 -23 21 -39 10 -39 -25 0 -20 6 -30 20 -34
11 -3 20 -11 20 -17 0 -9 -15 -11 -55 -6 -35 4 -55 2 -55 -4 0 -5 8 -10 18
-10 9 0 26 -7 36 -15 18 -14 18 -15 2 -15 -10 0 -14 -5 -10 -11 3 -6 17 -8 29
-5 31 8 42 -10 15 -24 -16 -9 -18 -15 -10 -30 12 -23 13 -40 1 -21 -13 20 -28
6 -36 -32 -4 -17 -27 -63 -51 -101 -24 -38 -44 -73 -44 -77 0 -4 -10 -9 -22
-11 -14 -2 -22 -11 -23 -25 -2 -33 -7 -34 -53 -12 l-41 21 26 40 c22 33 25 41
12 48 -7 5 -23 16 -34 24 -17 13 -17 15 -4 16 22 0 129 143 129 172 0 12 -12
32 -26 43 -26 21 -28 21 -93 5 -36 -9 -93 -20 -125 -24 l-59 -7 6 61 c3 33 2
60 -2 60 -10 0 -46 -40 -59 -66 -6 -11 -47 -41 -90 -67 -85 -49 -194 -143
-217 -186 -7 -14 -49 -68 -94 -120 -44 -52 -79 -97 -78 -101 1 -4 -22 -27 -50
-50 -40 -31 -55 -51 -64 -83 -6 -23 -22 -68 -35 -100 -33 -81 -30 -125 6 -82
7 8 20 15 30 15 9 0 25 10 36 21 19 22 89 58 112 59 15 0 16 -47 0 -91 -11
-31 -12 -32 -17 -11 -6 21 -9 20 -56 -29 -40 -41 -45 -51 -27 -46 17 4 25 0
32 -16 l9 -22 0 23 c1 12 5 22 10 22 5 0 16 3 25 6 19 7 22 -29 7 -69 -7 -19
-16 -23 -40 -22 -29 2 -31 -1 -31 -32 0 -29 4 -34 30 -39 34 -7 36 -15 20
-109 -40 -237 -48 -343 -27 -350 6 -3 55 -9 107 -16 52 -6 114 -13 137 -16
l41 -5 29 57 c27 56 43 75 113 140 l33 30 -7 -35 c-14 -74 -18 -120 -12 -137
6 -15 10 -14 30 11 17 22 27 27 44 22 12 -4 22 -11 22 -15 0 -10 -267 -575
-315 -668 l-38 -72 -28 14 c-41 22 -42 30 -14 72 14 21 36 54 50 75 13 20 27
48 31 62 7 28 9 27 -100 46 -251 43 -700 -60 -949 -218 -48 -30 -49 -50 -1
-38 30 8 30 -3 1 -26 -60 -47 -81 -67 -67 -67 8 0 24 6 34 14 29 22 61 18 93
-10 24 -21 25 -24 9 -25 -11 0 -16 -3 -13 -7 10 -9 -25 -32 -49 -33 -12 0 -38
7 -57 15 -31 13 -40 13 -70 0 -41 -17 -68 -45 -43 -45 8 0 35 5 59 12 40 10
101 3 70 -9 -7 -3 -13 -11 -13 -19 0 -8 -3 -14 -7 -14 -5 0 -21 -12 -38 -26
-21 -18 -36 -23 -53 -19 -71 18 -78 17 -110 -10 -35 -29 -43 -51 -14 -37 25
12 89 15 96 3 7 -11 -40 -51 -60 -51 -8 0 -14 7 -14 15 0 25 -29 17 -36 -10
-5 -22 -14 -27 -40 -24 -10 1 -63 -75 -64 -91 0 -18 -21 -77 -38 -107 -17 -31
-16 -49 3 -33 13 11 13 8 1 -28 -8 -22 -25 -60 -38 -83 -17 -30 -20 -43 -10
-46 17 -6 15 -24 -8 -90 -24 -70 -25 -87 -4 -79 13 5 15 1 10 -22 -12 -57 -10
-144 4 -152 7 -5 15 -36 18 -79 2 -39 9 -71 14 -71 13 0 48 -87 48 -120 0 -15
7 -33 15 -40 8 -7 15 -9 15 -4 0 5 15 -23 34 -62 18 -39 45 -79 58 -90 13 -10
37 -38 52 -61 16 -23 36 -45 45 -48 9 -3 36 -23 59 -46 24 -22 73 -58 110 -80
64 -38 96 -54 230 -116 l57 -26 -47 -11 c-26 -6 -52 -16 -58 -22 -47 -47 541
-46 868 1 56 8 106 15 110 15 4 0 0 5 -8 10 -8 5 -35 10 -60 10 -57 0 -122 18
-115 31 4 5 39 26 78 46 267 134 451 337 553 610 62 165 81 319 61 506 l-9 79
24 -4 c21 -3 23 0 21 39 -4 97 -117 367 -194 464 -26 35 -27 37 -9 42 11 3 29
21 40 40 11 19 29 37 39 40 10 2 21 17 25 33 4 16 23 54 43 85 35 58 50 119
39 162 -8 32 -80 112 -181 200 -116 102 -112 92 -68 181 23 48 43 76 54 76 25
0 29 -11 14 -41 -25 -47 -38 -125 -25 -148 14 -27 166 -129 276 -186 108 -55
126 -72 172 -160 l37 -70 -1 -160 c-1 -213 -39 -424 -134 -752 -17 -58 -28
-109 -23 -113 4 -4 42 -15 83 -24 41 -10 95 -22 120 -29 30 -8 127 -12 286
-11 202 1 247 4 274 18 29 14 90 16 517 16 404 0 483 2 483 14 0 7 -7 19 -15
26 -8 7 -15 16 -15 21 0 14 26 10 40 -6 8 -10 30 -15 60 -15 45 0 49 2 59 31
6 18 11 55 11 83 0 78 8 96 40 96 24 0 29 -5 33 -32 3 -18 13 -53 22 -78 14
-37 16 -72 14 -205 l-4 -160 30 0 c22 0 31 5 33 20 6 29 19 40 34 28 20 -16
102 -25 130 -14 16 6 49 5 99 -5 41 -7 107 -19 147 -26 45 -8 72 -17 72 -25 0
-7 6 -13 14 -13 8 0 17 -7 20 -16 8 -20 26 -9 26 17 0 20 15 23 69 13 17 -4
31 -12 31 -18 0 -6 5 -18 10 -26 9 -13 13 -12 28 7 l17 23 118 -19 c64 -10
119 -20 120 -22 2 -2 20 -42 41 -89 87 -191 264 -368 474 -474 39 -20 73 -40
76 -44 3 -5 -13 -9 -35 -9 -27 0 -44 -6 -54 -19 -12 -17 -11 -20 12 -32 49
-26 490 -41 640 -22 183 24 213 31 224 52 10 18 9 20 -5 15 -8 -3 -18 -2 -22
4 -3 6 -13 8 -21 5 -8 -3 -13 -1 -11 5 2 6 37 29 78 51 211 115 344 247 439
436 160 318 159 638 -4 962 -126 251 -407 463 -695 522 -133 28 -334 21 -468
-16 -51 -14 -102 -31 -113 -37 -50 -26 -29 3 59 80 95 85 156 156 147 172 -6
9 -195 -56 -437 -150 -184 -71 -201 -74 -163 -30 25 30 25 32 9 51 -10 10 -24
16 -31 13 -8 -2 -11 0 -8 5 3 6 3 10 -2 10 -10 0 -29 -22 -113 -123 -119 -144
-109 -136 -178 -148 -34 -6 -70 -8 -80 -3 -9 4 -21 9 -27 9 -34 6 -43 17 -38
51 5 30 2 35 -22 44 -14 6 -31 8 -36 4 -12 -7 -11 -2 1 32 13 34 -2 54 -41 54
-32 0 -34 2 -17 29 17 27 3 49 -35 56 -33 7 -34 8 -24 36 13 34 2 50 -37 52
-19 2 -24 6 -20 17 14 31 9 55 -13 65 -24 10 -31 39 -13 50 15 9 65 -18 65
-36 0 -8 16 -35 36 -59 19 -25 62 -84 94 -132 32 -49 65 -88 73 -88 18 0 82
39 82 50 0 5 -40 66 -90 136 -68 97 -87 131 -78 141 12 14 29 18 26 5 -3 -7
52 -91 145 -223 28 -41 49 -46 55 -16 2 10 -26 58 -63 107 -111 151 -131 206
-91 246 6 7 72 31 146 53 74 23 147 47 162 52 l26 11 -20 74 c-19 70 -19 76
-4 87 14 10 15 18 7 40 -9 23 -7 29 12 41 49 32 76 40 92 26 12 -10 20 -9 40
4 14 9 25 23 25 31 0 25 27 17 34 -10 4 -15 13 -25 25 -25 22 0 108 37 113 49
5 12 267 71 317 71 58 0 153 -18 216 -41 32 -11 91 -19 160 -22 61 -3 152 -15
203 -27 l93 -22 16 -42 c9 -22 44 -95 77 -161 52 -103 71 -131 137 -195 42
-41 132 -138 200 -215 68 -77 180 -196 249 -266 111 -111 130 -126 172 -136
89 -19 81 3 -67 192 -68 88 -134 179 -145 202 -12 23 -34 54 -49 70 -44 44
-62 76 -51 93 15 24 12 108 -6 135 -10 15 -29 26 -55 30 -47 8 -50 12 -42 58
5 30 11 38 39 47 30 10 34 16 34 45 0 18 -7 39 -17 46 -14 13 -13 15 13 19 27
5 29 8 29 50 l0 45 -54 7 c-29 3 -58 11 -64 17 -7 7 -54 11 -122 11 l-110 0
-35 39 -35 39 -195 38 c-107 21 -225 38 -262 38 -64 1 -69 3 -107 41 -23 21
-41 43 -41 48 0 5 16 7 35 5 27 -3 34 -1 32 12 -1 11 8 15 41 16 23 1 44 3 45
5 27 38 77 128 77 139 0 5 -33 -8 -72 -30 -40 -21 -111 -59 -158 -84 -47 -24
-86 -51 -88 -58 -3 -12 -55 -40 -189 -101 -41 -19 -41 -19 -61 1 -28 28 -45
63 -35 71 13 12 116 52 145 57 15 3 108 45 206 94 175 87 178 89 192 129 7 23
10 44 7 47 -4 4 -39 2 -79 -4 -68 -9 -74 -9 -88 10 -8 11 -28 34 -43 51 l-28
30 -93 -6 c-50 -3 -141 -17 -201 -31 -321 -75 -394 -88 -493 -92 -64 -2 -115
-9 -133 -18 -16 -8 -71 -19 -122 -25 -50 -6 -132 -16 -182 -22 -148 -17 -462
-23 -538 -10 -105 18 -230 58 -354 112 -128 55 -218 74 -258 53 -23 -12 -37
-7 -168 60 -212 109 -269 130 -339 122 -50 -5 -58 -3 -63 13 -8 28 -25 31 -91
18 -53 -11 -59 -15 -62 -38 -3 -25 -8 -28 -88 -42 -96 -18 -207 -75 -285 -148
-42 -40 -109 -78 -137 -79 -8 0 -10 8 -6 25 3 14 1 32 -6 40 -7 8 -9 23 -4 37
13 39 13 49 -1 55 -12 4 -9 15 11 55 14 27 23 56 20 64 -3 8 0 14 8 14 7 0 19
11 26 25 11 20 11 27 0 40 -16 20 -30 19 -47 -2 -13 -16 -14 -14 -8 22 8 47
26 86 33 67 5 -16 22 -15 42 3 14 12 23 13 70 0 30 -8 70 -15 87 -15 30 0 34
3 44 45 11 42 14 45 44 45 18 0 38 7 45 15 7 8 21 15 31 15 36 0 19 20 -18 21
-36 1 -37 2 -9 8 l30 6 -27 12 c-16 7 -27 21 -27 32 0 13 -10 21 -32 26 -31 8
-39 9 -78 14 -12 1 -11 5 5 17 20 16 19 16 -4 9 -16 -5 -21 -4 -17 4 4 6 15
11 25 11 26 0 32 10 19 34 -7 11 -13 30 -14 41 -4 44 108 285 133 285 7 0 33
23 59 50 46 49 47 50 72 34 l25 -16 -7 54 c-10 75 6 109 48 106 17 -1 42 4 54
11 13 7 26 10 30 7 3 -4 -9 -49 -27 -102 -18 -53 -30 -98 -27 -101 10 -10 74
159 79 209 2 13 13 42 25 65 23 43 102 296 102 325 0 11 -10 20 -27 24 -16 3
-33 7 -39 9 -6 2 -34 -12 -62 -31z m-92 -180 c0 -2 -9 0 -20 6 -11 6 -20 13
-20 16 0 2 9 0 20 -6 11 -6 20 -13 20 -16z m65 -94 c3 -6 -1 -7 -9 -4 -18 7
-21 14 -7 14 6 0 13 -4 16 -10z m-364 -450 c-23 -39 -41 -78 -41 -85 0 -22
-12 -45 -20 -40 -12 7 24 98 61 156 47 73 47 52 0 -31z m-421 -245 c0 -8 -4
-17 -10 -20 -6 -4 -10 5 -10 20 0 15 4 24 10 20 6 -3 10 -12 10 -20z m264 -51
c27 -10 20 -44 -9 -44 -18 0 -25 5 -25 18 0 29 9 36 34 26z m-71 -31 c-7 -2
-19 -2 -25 0 -7 3 -2 5 12 5 14 0 19 -2 13 -5z m214 -19 c-3 -3 -12 -4 -19 -1
-8 3 -5 6 6 6 11 1 17 -2 13 -5z m-817 -27 c0 -2 -12 -14 -27 -28 l-28 -24 24
28 c23 25 31 32 31 24z m470 -11 c0 -3 -4 -8 -10 -11 -5 -3 -10 -1 -10 4 0 6
5 11 10 11 6 0 10 -2 10 -4z m223 -26 c19 -19 24 -30 14 -30 -7 0 -21 8 -29
18 -41 48 -28 58 15 12z m177 20 c0 -5 -2 -10 -4 -10 -3 0 -8 5 -11 10 -3 6
-1 10 4 10 6 0 11 -4 11 -10z m-349 -59 c-12 -16 -21 -33 -21 -37 0 -14 -63
-74 -78 -74 -7 0 -10 5 -6 11 3 6 1 14 -5 18 -12 8 21 43 79 85 47 33 56 32
31 -3z m-591 -6 c-7 -8 -16 -15 -21 -15 -5 0 -1 8 9 18 20 22 31 19 12 -3z
m510 -4 c0 -5 -13 -19 -30 -31 -16 -12 -30 -27 -30 -34 0 -8 -7 -19 -15 -26
-32 -27 -10 20 32 68 28 32 43 40 43 23z m171 -14 c-1 -12 -15 -9 -19 4 -3 6
1 10 8 8 6 -3 11 -8 11 -12z m-711 -10 c0 -2 -15 -16 -32 -33 l-33 -29 29 33
c28 30 36 37 36 29z m-91 -94 c-13 -15 -43 -48 -66 -73 -24 -25 -43 -50 -43
-56 0 -7 -12 -20 -27 -30 -15 -9 -52 -43 -81 -73 -30 -31 -50 -49 -45 -40 9
19 274 299 281 299 3 0 -5 -12 -19 -27z m-173 -48 c-3 -8 -1 -15 4 -15 23 0 7
-28 -42 -72 -49 -44 -88 -61 -88 -39 0 22 33 69 72 103 46 40 64 47 54 23z
m689 5 c-3 -5 -11 -10 -16 -10 -6 0 -7 5 -4 10 3 6 11 10 16 10 6 0 7 -4 4
-10z m21 -84 c-14 -31 -26 -67 -26 -80 0 -13 -7 -27 -17 -30 -15 -6 -15 -8 1
-19 16 -12 15 -15 -10 -42 -15 -16 -25 -23 -22 -15 3 8 1 23 -4 33 -6 12 -5
23 2 32 7 8 9 18 6 23 -3 5 6 24 19 42 14 19 25 37 25 41 0 13 42 80 47 75 2
-2 -7 -29 -21 -60z m59 -23 c-3 -14 -13 -36 -23 -50 l-16 -26 -7 27 c-8 30 8
89 22 80 5 -3 9 3 9 13 1 17 1 17 11 0 6 -10 8 -30 4 -44z m126 23 c16 9 10
-20 -12 -55 -25 -42 -36 -34 -14 10 15 28 15 31 1 26 -13 -5 -14 -3 -3 13 6
11 13 16 15 10 2 -6 8 -8 13 -4z m-71 -37 c0 -6 -6 -17 -14 -25 -8 -7 -16 -19
-19 -26 -2 -7 -7 -11 -10 -8 -8 8 21 70 33 70 5 0 10 -5 10 -11z m-411 -11
c15 -9 17 -16 10 -30 -5 -10 -14 -18 -19 -18 -13 0 -32 38 -25 50 8 13 11 13
34 -2z m-316 -130 c11 -9 14 -18 8 -27 -12 -19 -41 -6 -41 19 0 23 9 25 33 8z
m495 -16 c2 -7 -3 -12 -12 -12 -9 0 -16 7 -16 16 0 17 22 14 28 -4z m-608 -1
c0 -16 -25 -28 -68 -34 -38 -5 -41 -3 -30 10 22 27 98 46 98 24z m450 -34 c0
-21 -12 -28 -27 -16 -19 16 -16 29 7 29 11 0 20 -6 20 -13z m222 -10 c-2 -9
-71 -159 -155 -332 -136 -283 -154 -315 -174 -312 -18 3 -21 -1 -20 -22 2 -19
-3 -26 -15 -25 -10 1 -15 -2 -12 -7 3 -5 -2 -9 -10 -9 -8 0 -17 4 -21 9 -7 13
16 61 30 61 6 0 22 24 36 53 16 35 29 51 40 49 19 -3 69 100 69 141 0 14 7 30
15 34 15 9 137 249 170 336 13 33 23 47 34 45 9 -2 15 -11 13 -21z m405 -3
c-3 -3 -12 -4 -19 -1 -8 3 -5 6 6 6 11 1 17 -2 13 -5z m-414 -143 c-37 -71
-69 -128 -71 -127 -7 7 118 256 128 256 6 0 -20 -58 -57 -129z m-773 105 c0
-3 -4 -8 -10 -11 -5 -3 -10 -1 -10 4 0 6 5 11 10 11 6 0 10 -2 10 -4z m936
-163 c-18 -35 -45 -70 -46 -60 0 10 49 87 55 87 3 0 -1 -12 -9 -27z m803 -20
c-43 -39 -58 -46 -61 -28 -2 10 93 77 100 70 2 -2 -15 -21 -39 -42z m-1715 2
c-4 -8 -8 -15 -10 -15 -2 0 -4 7 -4 15 0 8 4 15 10 15 5 0 7 -7 4 -15z m1791
-86 c15 -14 -7 -10 -35 7 l-25 15 25 -7 c14 -3 29 -10 35 -15z m-1154 -56
c-12 -20 -14 -14 -5 12 4 9 9 14 11 11 3 -2 0 -13 -6 -23z m-50 -110 c-12 -20
-14 -14 -5 12 4 9 9 14 11 11 3 -2 0 -13 -6 -23z m-25 -56 c-17 -42 -45 -94
-46 -86 0 11 49 119 55 119 3 0 -1 -15 -9 -33z m3564 -7 c0 -5 -4 -10 -10 -10
-5 0 -10 5 -10 10 0 6 5 10 10 10 6 0 10 -4 10 -10z m1550 -90 c0 -24 -5 -30
-31 -35 -36 -8 -37 -7 -45 32 -6 29 -4 32 22 35 43 5 54 -1 54 -32z m-5492 7
c2 -10 -3 -17 -12 -17 -10 0 -16 9 -16 21 0 24 23 21 28 -4z m1759 -75 c35
-26 19 -71 -31 -88 -32 -12 -41 -11 -62 2 -13 9 -24 21 -24 28 1 63 68 96 117
58z m-151 -64 l19 -23 -25 20 c-14 11 -27 21 -29 22 -2 2 0 3 6 3 5 0 18 -10
29 -22z m-62 -4 c9 -24 2 -26 -12 -4 -7 11 -8 20 -3 20 5 0 12 -7 15 -16z
m-151 -79 c9 -25 13 -45 9 -45 -4 0 -14 20 -23 45 -9 25 -13 45 -9 45 5 0 15
-20 23 -45z m101 29 c3 -8 2 -12 -4 -9 -6 3 -10 10 -10 16 0 14 7 11 14 -7z
m76 -17 c0 -5 -4 -5 -10 -2 -5 3 -10 14 -10 23 0 15 2 15 10 2 5 -8 10 -19 10
-23z m-239 -23 c-5 -16 -10 -21 -10 -12 -1 18 10 51 15 45 2 -1 -1 -16 -5 -33z
m-1124 -80 c-34 -97 -232 -523 -250 -535 -5 -3 -8 -15 -6 -25 4 -34 -21 -84
-42 -84 -22 0 -34 22 -25 45 3 8 4 18 3 21 -1 3 6 10 16 15 9 6 17 15 17 20 0
23 258 567 297 625 28 43 25 20 -10 -82z m977 26 c2 0 23 7 46 15 24 8 45 13
47 11 2 -2 -14 -10 -36 -17 -53 -18 -52 -34 2 -32 l42 1 -39 -14 c-35 -12 -42
-12 -63 1 -25 17 -27 23 -16 52 7 17 8 17 11 1 2 -10 5 -18 6 -18z m2116 -100
c0 -5 -4 -10 -10 -10 -5 0 -10 5 -10 10 0 6 5 10 10 10 6 0 10 -4 10 -10z
m-40 -29 c0 -5 3 -16 6 -25 4 -10 1 -16 -9 -16 -16 0 -30 27 -21 41 7 12 24
12 24 0z m-2955 -81 c159 -135 206 -202 185 -265 -6 -18 -24 -52 -41 -74 -16
-23 -29 -45 -29 -51 0 -15 -17 -12 -23 3 -3 8 -27 24 -53 37 -46 21 -50 21
-79 6 -16 -9 -39 -30 -51 -46 l-20 -30 -66 46 c-105 72 -105 71 -4 273 48 94
89 171 92 171 4 0 44 -32 89 -70z m615 30 c0 -13 -7 -20 -20 -20 -13 0 -20 7
-20 20 0 13 7 20 20 20 13 0 20 -7 20 -20z m1744 -109 c-6 -6 -24 19 -24 34 1
6 7 1 15 -9 8 -11 12 -22 9 -25z m625 -47 c29 -42 56 -85 59 -97 6 -28 5 -26
-57 57 -28 38 -51 75 -51 82 0 8 -4 14 -10 14 -5 0 -10 5 -10 10 0 22 18 5 69
-66z m-700 24 c-8 -14 -14 -18 -17 -10 -4 13 17 46 25 38 3 -2 -1 -15 -8 -28z
m41 12 c0 9 3 11 10 4 6 -6 8 -18 4 -27 -7 -19 -24 -23 -24 -6 0 5 -4 7 -10 4
-12 -7 -12 -3 -4 20 5 13 8 14 15 3 7 -10 9 -10 9 2z m128 -69 c3 -33 -13 -42
-36 -19 -9 9 -12 8 -12 -5 0 -19 -35 -24 -45 -7 -12 19 6 67 28 78 31 14 61
-7 65 -47z m50 25 c2 -15 10 -30 18 -33 39 -15 1 -89 -63 -122 -53 -27 -141 0
-173 52 -25 41 -25 44 5 49 18 4 31 -2 49 -22 34 -39 81 -48 115 -23 35 27 48
66 34 104 -9 23 -9 29 0 26 7 -2 13 -16 15 -31z m244 -18 c-7 -7 -12 -8 -12
-2 0 14 12 26 19 19 2 -3 -1 -11 -7 -17z m-432 -6 c0 -4 -11 -8 -25 -8 -14 0
-25 4 -25 8 0 4 11 8 25 8 14 0 25 -4 25 -8z m448 -24 c16 -16 15 -28 -3 -28
-8 0 -15 2 -15 4 0 2 -3 11 -6 20 -7 19 7 21 24 4z m-34 -43 c3 -8 1 -15 -3
-15 -5 0 -11 7 -15 15 -3 8 -1 15 3 15 5 0 11 -7 15 -15z m-3640 -34 c9 -14
-4 -41 -20 -41 -25 0 -94 32 -88 41 7 12 101 12 108 0z m3596 -6 c11 -13 9
-20 -10 -40 -18 -19 -21 -28 -12 -37 9 -9 18 -9 37 0 33 15 32 16 46 -9 9 -17
7 -23 -10 -36 -41 -28 -15 -66 30 -43 19 11 25 10 36 -6 11 -15 10 -21 -7 -39
-41 -44 -18 -65 40 -35 42 21 40 22 44 -22 1 -8 -14 -14 -40 -15 -22 0 -58
-11 -80 -22 -21 -12 -43 -21 -49 -21 -6 0 -40 55 -77 123 l-65 122 28 42 c38
54 66 66 89 38z m140 1 c0 -2 3 -11 6 -20 4 -11 1 -16 -10 -16 -9 0 -16 2 -16
4 0 2 -3 11 -6 20 -4 11 -1 16 10 16 9 0 16 -2 16 -4z m-34 -63 c-4 -4 -11 -1
-16 7 -16 25 -11 35 7 17 9 -9 13 -20 9 -24z m-3679 -59 c62 -36 113 -69 113
-74 0 -8 -127 -34 -225 -45 -49 -6 -51 -6 -105 44 -49 44 -53 52 -40 65 17 17
120 76 134 76 5 0 60 -30 123 -66z m3773 15 c0 -18 -2 -19 -15 -9 -8 7 -15 16
-15 21 0 5 7 9 15 9 9 0 15 -9 15 -21z m-296 -71 c22 -40 50 -92 64 -116 l24
-43 -37 -34 c-20 -19 -42 -35 -50 -35 -23 0 -85 185 -85 256 0 30 9 41 35 43
6 1 28 -32 49 -71z m1100 63 c3 -5 14 -7 25 -4 14 3 20 -2 24 -24 4 -24 -6
-42 -70 -121 -41 -51 -83 -98 -92 -105 -31 -22 -75 -88 -76 -114 -1 -29 -36
-59 -85 -73 -19 -5 -125 -26 -235 -46 -189 -34 -205 -39 -285 -83 -80 -44
-135 -71 -145 -71 -3 0 -5 13 -5 29 0 16 -4 31 -10 33 -5 2 11 43 35 92 44 89
44 90 112 123 66 32 69 32 114 19 38 -12 71 -12 187 -3 134 10 143 10 163 -8
20 -19 21 -19 31 -1 6 10 19 26 29 35 48 41 80 78 99 116 24 50 44 75 59 75 6
0 11 8 11 18 0 10 15 35 34 55 19 21 37 44 40 52 6 17 32 20 40 6z m-3650 -51
l34 -30 -26 -30 c-15 -17 -32 -30 -38 -30 -11 0 -64 62 -64 75 0 8 42 44 52
45 4 0 23 -14 42 -30z m-516 -36 c1 -1 -39 -86 -89 -190 -50 -104 -104 -217
-120 -251 -15 -35 -33 -63 -38 -63 -12 0 6 42 108 253 47 96 74 164 76 192 2
24 9 53 15 65 10 18 14 19 28 8 9 -7 18 -13 20 -14z m52 -24 c0 -17 -220 -484
-234 -499 -16 -15 -36 -7 -36 15 0 8 16 47 37 87 20 40 41 81 46 92 20 38 55
111 103 212 34 70 54 102 67 102 9 1 17 -4 17 -9z m2969 -200 c0 -8 -6 -24
-14 -34 -14 -18 -15 -15 -15 40 1 56 1 58 15 34 8 -14 14 -32 14 -40z m-1749
40 c0 -5 -2 -10 -4 -10 -3 0 -8 5 -11 10 -3 6 -1 10 4 10 6 0 11 -4 11 -10z
m1298 -7 c2 -8 -5 -13 -17 -13 -12 0 -21 6 -21 16 0 18 31 15 38 -3z m-2788
-138 c0 -8 -7 -15 -15 -15 -16 0 -20 12 -8 23 11 12 23 8 23 -8z m4960 1 c0
-11 -19 -15 -25 -6 -3 5 1 10 9 10 9 0 16 -2 16 -4z m160 -18 c-1 -38 -13 -58
-37 -58 -21 0 -24 4 -19 23 3 12 6 28 6 35 0 6 11 12 25 12 14 0 25 -6 25 -12z
m-5482 -10 c23 -23 13 -47 -30 -69 -23 -12 -68 -47 -100 -79 l-58 -58 -20 33
c-38 61 -24 84 84 149 62 37 103 45 124 24z m3802 -20 c0 -19 -2 -20 -11 -8
-8 12 -10 12 -8 -5 1 -11 -2 -31 -8 -44 -8 -20 -11 -21 -16 -8 -4 10 -12 17
-20 17 -16 0 -107 -83 -107 -98 0 -6 -3 -18 -6 -26 -4 -11 -2 -15 7 -11 8 3
31 -3 52 -14 25 -13 37 -15 37 -7 0 7 10 26 23 43 18 25 24 28 35 17 16 -17
15 -29 -3 -44 -26 -21 -17 -37 30 -50 33 -9 45 -18 45 -31 0 -11 7 -19 15 -19
8 0 15 5 15 11 0 14 34 8 138 -23 66 -19 72 -23 72 -47 0 -15 6 -35 14 -46 8
-12 13 -39 11 -65 -5 -90 67 -154 185 -162 34 -3 34 -4 45 -65 l12 -63 -29 0
c-15 0 -72 7 -125 16 -83 13 -100 19 -123 45 -33 35 -81 40 -102 10 -14 -19
-16 -19 -163 1 -157 21 -185 34 -185 79 0 13 -9 19 -37 21 -38 3 -38 3 -38 48
l0 44 78 24 c42 13 77 27 77 31 0 17 -67 78 -93 85 -24 6 -27 4 -27 -19 0 -14
-4 -25 -10 -25 -5 0 -10 5 -10 10 0 12 -27 13 -34 1 -10 -15 5 -41 22 -41 12
0 10 -5 -8 -25 -25 -27 -40 -25 -40 7 0 17 -5 20 -31 16 l-31 -5 7 61 c3 34
12 75 20 91 18 40 27 123 15 130 -20 12 -9 25 15 19 18 -4 32 -1 45 11 11 10
20 13 20 7 0 -6 -10 -18 -22 -27 -18 -12 -23 -26 -25 -68 -2 -77 -2 -77 -17
-77 -15 0 -29 -27 -21 -40 3 -5 19 -5 35 0 24 7 30 6 30 -7 0 -22 13 -8 17 18
3 18 -1 20 -22 15 l-25 -6 25 36 c27 39 31 59 15 69 -5 3 -10 11 -10 16 0 6 4
8 9 5 12 -8 61 11 61 23 0 6 -7 8 -15 5 -29 -11 -15 13 36 62 28 27 59 57 69
68 11 10 25 16 32 13 8 -2 22 1 33 9 25 18 25 18 25 -8z m1800 8 c0 -3 -4 -8
-10 -11 -5 -3 -10 -1 -10 4 0 6 5 11 10 11 6 0 10 -2 10 -4z m-5078 -30 c17
-12 17 -14 0 -28 -21 -19 -42 -13 -42 11 0 32 15 38 42 17z m-1298 -11 c-4 -8
-11 -15 -16 -15 -6 0 -5 6 2 15 7 8 14 15 16 15 2 0 1 -7 -2 -15z m4166 6 c0
-6 -4 -13 -10 -16 -5 -3 -10 1 -10 9 0 9 5 16 10 16 6 0 10 -4 10 -9z m190 -5
c0 -7 7 -19 15 -26 13 -11 13 -15 3 -21 -21 -14 -28 -10 -28 14 0 13 -5 28
-12 35 -9 9 -8 12 5 12 9 0 17 -6 17 -14z m2143 -44 c13 -14 14 -21 5 -30 -17
-17 -26 -15 -38 8 -20 37 5 53 33 22z m-5753 -28 c0 -8 -7 -14 -15 -14 -15 0
-21 21 -9 33 10 9 24 -2 24 -19z m3387 -41 c-3 -10 -5 -4 -5 12 0 17 2 24 5
18 2 -7 2 -21 0 -30z m2054 -4 c-6 -16 -10 -18 -10 -7 -1 22 12 55 16 42 2 -6
-1 -22 -6 -35z m289 21 c0 -11 -120 -110 -134 -110 -4 0 3 15 16 33 13 17 33
44 44 59 19 27 74 40 74 18z m-5932 -58 l23 -42 -25 -64 c-14 -35 -26 -81 -26
-101 0 -33 -4 -38 -42 -54 -74 -32 -87 -34 -95 -15 -24 64 86 336 130 321 7
-2 22 -22 35 -45z m6042 8 c0 -5 -5 -10 -11 -10 -5 0 -7 5 -4 10 3 6 8 10 11
10 2 0 4 -4 4 -10z m-5890 -9 c0 -14 -18 -23 -30 -16 -6 4 -8 11 -5 16 8 12
35 12 35 0z m4130 -16 c0 -9 -7 -18 -16 -22 -18 -7 -39 11 -30 26 11 17 46 13
46 -4z m-4187 -29 c3 -8 3 -17 0 -20 -9 -9 -34 15 -27 25 8 13 21 11 27 -5z
m145 -59 c3 -52 1 -57 -20 -62 -36 -9 -79 10 -71 32 11 31 65 94 77 90 6 -2
12 -29 14 -60z m5032 23 c6 -11 9 -20 7 -20 -2 0 -12 9 -22 20 -10 11 -13 20
-7 20 6 0 16 -9 22 -20z m-4580 -29 c0 -6 -4 -13 -10 -16 -5 -3 -10 1 -10 9 0
9 5 16 10 16 6 0 10 -4 10 -9z m5425 -12 c4 -12 3 -25 -2 -29 -8 -7 -147 -30
-181 -30 -15 1 152 79 170 80 4 0 10 -9 13 -21z m-6037 -37 c3 -9 -2 -13 -14
-10 -9 1 -19 9 -22 16 -3 9 2 13 14 10 9 -1 19 -9 22 -16z m5582 -19 c0 -21
-4 -24 -27 -21 -16 2 -28 9 -29 18 -1 23 2 25 30 26 21 2 26 -3 26 -23z
m-4890 -19 c0 -8 -5 -12 -10 -9 -6 4 -8 11 -5 16 9 14 15 11 15 -7z m-730 -8
c0 -3 -4 -8 -10 -11 -5 -3 -10 -1 -10 4 0 6 5 11 10 11 6 0 10 -2 10 -4z
m3090 -31 c0 -8 -7 -15 -15 -15 -8 0 -15 7 -15 15 0 8 7 15 15 15 8 0 15 -7
15 -15z m-2140 -35 c0 -22 -4 -40 -10 -40 -11 0 -14 63 -3 73 11 12 13 8 13
-33z m-815 10 c11 -12 16 -29 12 -46 -3 -17 4 -44 19 -74 13 -27 24 -58 24
-69 0 -33 -47 -71 -86 -71 -40 0 -45 15 -8 24 20 5 24 11 18 28 -3 12 -1 24 6
28 8 5 10 15 6 26 -6 16 -8 16 -16 4 -8 -12 -10 -11 -10 5 0 17 -2 18 -11 5
-8 -11 -9 -8 -4 15 8 40 8 52 -3 103 -9 39 -8 42 13 42 12 0 30 -9 40 -20z
m600 -30 c3 -16 13 -31 21 -34 19 -7 18 -36 -1 -36 -8 0 -15 7 -15 16 0 8 -7
22 -15 31 -14 14 -15 13 -10 -13 3 -16 2 -23 -1 -16 -3 6 -11 9 -16 6 -7 -4
-8 -2 -4 4 4 7 1 12 -9 12 -13 0 -16 -6 -11 -24 4 -16 -2 -35 -19 -60 -26 -38
-33 -62 -15 -51 19 11 10 -31 -10 -53 -17 -18 -25 -20 -40 -12 -23 12 -40 42
-39 67 0 10 12 43 27 73 22 44 32 55 52 56 36 0 60 14 53 30 -9 24 4 43 26 37
12 -3 22 -17 26 -33z m5375 36 c0 -3 -4 -8 -10 -11 -5 -3 -10 -1 -10 4 0 6 5
11 10 11 6 0 10 -2 10 -4z m-6124 -27 c9 -16 -18 -30 -33 -17 -7 6 -10 14 -7
19 7 13 31 11 40 -2z m3662 -14 c-3 -3 -9 2 -12 12 -6 14 -5 15 5 6 7 -7 10
-15 7 -18z m-3715 -27 c8 -54 51 -155 77 -182 13 -14 21 -28 18 -32 -9 -8
-110 -34 -135 -34 -25 0 -63 43 -63 72 0 11 10 28 22 37 26 22 16 41 -22 41
-25 0 -30 5 -36 36 -4 25 -2 40 7 49 16 16 111 55 120 49 4 -2 9 -18 12 -36z
m4592 -9 c11 -35 -31 -53 -55 -24 -10 12 -10 19 -2 27 12 12 13 10 16 -14 0
-6 7 -13 15 -16 10 -3 12 2 7 22 -8 31 10 36 19 5z m677 -14 c-6 -29 -9 -30
-48 -12 -43 21 -35 39 14 35 31 -2 36 -6 34 -23z m-5162 -36 c0 -12 -7 -19
-20 -19 -19 0 -28 28 -14 43 11 11 34 -5 34 -24z m897 -27 c-7 -60 -49 -157
-74 -170 -19 -10 -113 5 -129 21 -4 4 6 22 23 40 16 17 39 53 49 79 l19 47 22
-20 c33 -32 60 -20 77 34 11 34 19 16 13 -31z m5093 34 c59 -9 76 -16 78 -30
7 -34 -13 -33 -108 5 -100 40 -94 45 30 25z m-5270 -73 c0 -16 -26 -17 -35 -3
-4 6 -1 18 6 26 10 12 14 12 20 2 5 -7 9 -19 9 -25z m-714 -8 c-5 -14 -9 -15
-21 -5 -12 10 -13 16 -4 27 15 18 34 1 25 -22z m658 -34 c3 -5 -1 -14 -9 -21
-8 -7 -12 -16 -9 -21 3 -5 -4 -9 -15 -9 -12 0 -21 5 -21 10 0 6 5 10 11 10 5
0 7 5 4 10 -3 6 -3 15 0 20 8 12 32 13 39 1z m3542 -16 c18 -14 17 -15 -15
-13 -19 2 -36 9 -39 16 -5 17 30 15 54 -3z m-3861 -7 c73 6 88 4 105 -14 35
-36 31 -97 -7 -113 -54 -22 -86 -27 -133 -18 -60 11 -75 29 -43 52 15 11 14
13 -13 19 -16 4 -37 13 -47 21 -18 13 -18 14 0 39 17 24 22 26 73 19 30 -3 60
-6 65 -5z m4808 2 c-14 -13 -135 -50 -144 -44 -18 11 -9 43 14 47 37 7 139 5
130 -3z m741 -83 c51 -46 68 -68 63 -80 -10 -27 -30 -20 -59 21 -14 20 -41 56
-58 80 -17 23 -28 42 -23 42 4 0 39 -29 77 -63z m126 47 c0 -8 -5 -12 -10 -9
-6 4 -8 11 -5 16 9 14 15 11 15 -7z m-5890 -34 c0 -17 -3 -19 -19 -8 -21 13
-19 28 5 28 8 0 14 -9 14 -20z m-64 -20 c21 -16 44 -30 50 -30 17 0 22 -18 29
-109 7 -76 6 -81 -12 -81 -11 0 -49 14 -84 32 -73 36 -209 162 -192 179 5 5
43 16 84 23 41 8 77 14 80 15 3 1 23 -12 45 -29z m478 5 c-4 -8 -10 -15 -15
-15 -5 0 -9 7 -9 15 0 8 7 15 15 15 9 0 12 -6 9 -15z m66 5 c0 -5 -6 -10 -14
-10 -8 0 -18 5 -21 10 -3 6 3 10 14 10 12 0 21 -4 21 -10z m131 -21 c57 -15
55 -32 -12 -93 -58 -52 -188 -126 -222 -126 -25 0 -27 12 -15 84 11 64 14 69
52 93 23 13 52 33 66 44 26 19 52 19 131 -2z m-551 -14 c0 -8 -4 -15 -10 -15
-5 0 -10 7 -10 15 0 8 5 15 10 15 6 0 10 -7 10 -15z m5144 -7 c-4 -7 -30 -36
-56 -64 -27 -28 -55 -60 -63 -70 -11 -15 -18 -17 -31 -8 -30 18 -26 28 28 64
28 19 67 47 86 63 38 30 47 33 36 15z m-259 -18 c3 -5 1 -10 -4 -10 -6 0 -11
5 -11 10 0 6 2 10 4 10 3 0 8 -4 11 -10z m665 -181 c0 -9 -9 -19 -19 -22 -22
-5 -27 12 -35 133 l-6 75 30 -85 c16 -47 29 -92 30 -101z m-5415 138 c50 0
101 3 114 7 l24 8 -7 -73 c-4 -41 -13 -80 -21 -88 -29 -29 -209 -25 -240 5
-11 11 -15 37 -15 89 l0 75 28 -11 c15 -6 68 -11 117 -12z m5157 -107 c-18
-85 -26 -97 -51 -81 -12 8 -8 25 25 101 21 51 40 86 42 78 1 -8 -6 -52 -16
-98z m-182 -30 c0 -5 -4 -10 -10 -10 -5 0 -10 5 -10 10 0 6 5 10 10 10 6 0 10
-4 10 -10z m280 -40 c0 -5 -4 -10 -10 -10 -5 0 -10 5 -10 10 0 6 5 10 10 10 6
0 10 -4 10 -10z"/>
<path d="M3843 2929 c-12 -4 -27 -18 -34 -30 -10 -19 -8 -25 12 -39 28 -22 74
-9 83 22 9 36 -23 62 -61 47z"/>
<path d="M5906 1814 c-31 -36 -56 -71 -56 -77 0 -7 3 -7 9 -1 21 23 111 144
107 144 -2 0 -29 -30 -60 -66z"/>
<path d="M5392 1748 c-7 -7 -12 -20 -12 -30 0 -10 -13 -31 -28 -46 l-28 -28
22 -17 c25 -19 44 -22 44 -8 0 6 25 27 56 47 62 41 72 57 54 79 -15 18 -91 20
-108 3z"/>
<path d="M5561 1734 c-36 -30 -38 -44 -12 -68 18 -17 24 -17 97 -2 67 14 103
33 104 56 0 21 -25 31 -87 35 -66 5 -74 3 -102 -21z"/>
<path d="M5310 1735 c-14 -16 -10 -18 14 -9 9 3 16 10 16 15 0 14 -16 11 -30
-6z"/>
<path d="M5330 1605 c7 -9 15 -13 17 -11 7 7 -7 26 -19 26 -6 0 -6 -6 2 -15z"/>
<path d="M5075 1430 c-29 -11 -52 -57 -37 -72 9 -9 12 -9 12 0 0 7 6 12 14 12
8 0 17 7 20 16 5 13 9 14 22 4 11 -10 12 -15 3 -21 -7 -4 -9 -15 -5 -24 5 -14
9 -15 21 -5 19 16 19 46 0 54 -9 3 -19 14 -23 25 -5 14 -12 17 -27 11z"/>
<path d="M4875 1320 c-3 -5 -4 -14 0 -20 8 -13 35 -1 35 16 0 16 -26 19 -35 4z"/>
<path d="M1100 1052 c0 -5 6 -17 14 -28 11 -15 17 -16 27 -7 16 16 4 43 -21
43 -11 0 -20 -4 -20 -8z"/>
<path d="M1553 867 c2 -6 26 -11 55 -10 72 1 76 2 68 11 -12 12 -127 11 -123
-1z"/>
<path d="M2850 4430 c0 -13 5 -20 13 -17 6 2 12 10 12 17 0 7 -6 15 -12 18 -8
2 -13 -5 -13 -18z"/>
<path d="M2974 4404 c-1 -43 0 -45 12 -23 15 28 18 63 5 55 -5 -4 -11 -2 -13
4 -1 5 -3 -11 -4 -36z"/>
<path d="M3339 4253 c-13 -16 -12 -17 4 -4 16 13 21 21 13 21 -2 0 -10 -8 -17
-17z"/>
<path d="M3360 4240 c0 -5 5 -10 11 -10 5 0 7 5 4 10 -3 6 -8 10 -11 10 -2 0
-4 -4 -4 -10z"/>
<path d="M3390 4235 c0 -22 -27 -30 -48 -14 -14 11 -14 10 2 -8 14 -18 23 -20
37 -12 17 8 28 49 14 49 -3 0 -5 -7 -5 -15z"/>
</g>
</svg>
