<?xml version="1.0" standalone="no"?>
<!DOCTYPE svg PUBLIC "-//W3C//DTD SVG 20010904//EN"
 "http://www.w3.org/TR/2001/REC-SVG-20010904/DTD/svg10.dtd">
<svg version="1.0" xmlns="http://www.w3.org/2000/svg"
 width="853.000000pt" height="575.000000pt" viewBox="0 0 853.000000 575.000000"
 preserveAspectRatio="xMidYMid meet">

<g transform="translate(0.000000,575.000000) scale(0.100000,-0.100000)"
fill="#000000" stroke="none">
<path d="M2606 5587 c-29 -16 -42 -31 -49 -57 -5 -19 -13 -40 -19 -47 -5 -7
-9 -22 -8 -35 3 -37 0 -62 -9 -77 -8 -12 -14 -12 -44 2 -50 24 -87 22 -87 -3
0 -11 5 -28 11 -38 9 -14 8 -42 -5 -114 -25 -148 -35 -119 117 -335 32 -46 63
-85 68 -88 5 -4 9 -10 9 -15 0 -11 -73 -50 -93 -50 -8 0 -18 -17 -24 -42 -10
-42 -10 -42 -21 -18 -6 15 -11 19 -11 9 -1 -20 -47 -63 -59 -55 -6 3 -12 -1
-16 -9 -8 -21 -23 -19 -37 7 -10 18 -8 24 7 35 11 8 29 12 41 10 31 -6 56 14
47 36 -4 11 -13 16 -21 13 -8 -3 -29 -6 -46 -6 -26 0 -35 -7 -49 -36 -23 -44
-22 -51 2 -96 l19 -36 -24 -16 c-13 -9 -29 -16 -35 -16 -5 0 -10 -7 -10 -15 0
-9 -7 -18 -15 -21 -8 -4 -15 -15 -15 -26 0 -26 19 -60 30 -53 17 10 59 -7 66
-27 10 -32 -15 -78 -42 -78 -13 0 -24 5 -24 10 0 6 -6 10 -14 10 -7 0 -19 7
-26 15 -17 21 -23 19 -59 -14 -23 -22 -33 -26 -41 -16 -7 8 2 20 34 44 27 19
47 27 51 21 4 -6 10 -8 15 -5 12 7 1 42 -19 57 -14 11 -14 11 -4 -3 12 -15 8
-29 -7 -29 -3 0 -24 16 -46 35 -43 38 -54 43 -54 20 0 -8 -4 -15 -9 -15 -5 0
-17 -7 -26 -16 -13 -13 -19 -14 -28 -5 -9 10 -8 14 4 21 9 5 26 17 38 27 19
16 20 21 9 45 -7 16 -17 28 -21 28 -4 0 -32 -18 -62 -40 -30 -22 -61 -40 -70
-40 -9 0 -14 -4 -11 -9 3 -4 0 -22 -6 -39 -13 -35 -6 -67 38 -154 13 -26 26
-64 30 -83 6 -32 9 -35 43 -35 42 0 67 -13 57 -29 -4 -6 0 -21 8 -33 20 -28
20 -38 1 -38 -8 0 -15 -7 -15 -15 0 -8 -2 -15 -4 -15 -21 0 -168 55 -177 66
-15 18 -40 18 -76 -1 -15 -9 -41 -20 -56 -25 -20 -7 -34 -24 -49 -57 -49 -114
-71 -157 -75 -146 -2 6 3 28 11 48 23 54 19 56 -10 5 -31 -52 -45 -98 -48
-156 -1 -24 -9 -48 -20 -59 -9 -10 -15 -26 -13 -36 3 -10 0 -21 -7 -24 -8 -3
-8 -7 0 -10 6 -3 9 -17 6 -31 -3 -19 -7 -22 -14 -12 -6 9 -8 6 -6 -12 1 -14
-3 -34 -9 -45 -24 -44 -61 -210 -56 -250 6 -43 16 -55 49 -55 11 0 30 -9 42
-20 26 -25 47 -17 77 29 19 29 22 30 72 25 l52 -7 3 34 c3 32 6 34 73 56 76
24 130 29 140 13 10 -16 -15 -40 -41 -40 -13 0 -28 -9 -34 -20 -7 -13 -21 -20
-43 -21 -18 0 -41 -4 -52 -9 -17 -6 -14 -9 17 -15 l38 -7 -6 -57 c-4 -31 -17
-74 -29 -96 -31 -55 -67 -176 -63 -214 3 -27 10 -14 47 79 44 112 71 156 47
78 -7 -24 -32 -88 -56 -143 -123 -287 -203 -466 -211 -471 -9 -5 8 43 50 139
l20 47 -102 -2 -102 -2 85 -5 c82 -6 79 -6 -70 -13 -161 -8 -343 -39 -464 -79
-89 -30 -96 -36 -66 -47 24 -9 24 -10 5 -17 -57 -20 -76 -29 -83 -39 -4 -6
-23 -18 -42 -28 -170 -81 -209 -98 -217 -98 -5 0 -18 -10 -29 -21 -10 -12 -39
-35 -64 -52 -54 -37 -48 -32 -151 -132 -117 -114 -177 -215 -241 -405 -144
-425 -6 -915 342 -1215 220 -189 520 -297 782 -281 304 19 576 134 771 324
170 167 257 323 319 571 32 126 32 369 1 496 -30 119 -79 242 -136 338 -45 75
-46 79 -32 107 11 21 20 27 35 23 28 -7 26 0 -22 70 -42 62 -157 184 -233 247
l-40 33 40 -22 40 -23 -30 26 c-16 15 -50 36 -74 48 -25 12 -40 23 -34 25 7 3
24 -4 40 -13 l28 -18 -27 30 c-16 17 -28 35 -28 42 0 22 34 82 44 79 6 -2 41
-41 78 -87 71 -87 83 -122 51 -146 -17 -12 -17 -14 5 -37 15 -16 30 -23 46
-20 19 4 26 -2 40 -37 9 -23 28 -58 41 -78 32 -46 33 -21 4 58 -11 30 -22 64
-23 75 -6 52 -30 105 -48 105 -10 0 -18 4 -18 8 0 9 -62 93 -123 165 l-38 45
100 203 c108 221 127 246 184 235 18 -4 57 -9 88 -12 l56 -6 22 45 c12 25 29
51 37 58 8 7 12 19 10 26 -4 10 1 13 17 11 17 -2 22 -9 21 -33 -1 -47 -34
-343 -46 -410 -15 -84 -12 -158 18 -415 58 -510 141 -1036 206 -1305 26 -108
51 -139 119 -149 54 -8 311 11 319 23 3 5 212 16 465 25 253 10 476 21 495 26
45 12 100 13 100 1 0 -5 14 -14 30 -20 24 -8 30 -16 30 -39 0 -35 29 -51 81
-44 20 2 46 -1 58 -7 18 -10 21 -9 22 6 1 12 3 10 9 -7 6 -18 8 -20 9 -7 1 17
7 18 54 12 29 -4 58 -14 65 -23 9 -11 12 -12 12 -2 0 10 13 11 58 7 72 -8 92
-15 92 -33 0 -18 29 -18 36 -1 4 11 38 13 162 10 l157 -4 55 29 c52 29 55 32
55 69 0 38 0 38 -37 36 -21 -1 -38 2 -38 7 0 4 -12 23 -27 40 -25 30 -30 32
-76 27 -59 -5 -83 -30 -93 -95 -4 -25 -13 -46 -22 -49 -18 -7 -223 13 -305 29
-89 19 -145 84 -71 82 16 0 98 -6 183 -14 l154 -14 23 28 c28 31 30 50 10 89
-17 31 -7 37 12 7 18 -29 73 -26 133 7 27 14 49 30 49 35 0 16 28 39 35 28 3
-5 18 -10 32 -10 14 0 38 -11 55 -25 16 -14 39 -25 52 -25 12 0 46 -9 76 -19
58 -20 244 -31 288 -17 41 13 176 157 205 217 14 31 33 61 41 68 24 20 30 72
12 106 -9 17 -16 42 -16 57 0 15 -9 51 -20 80 -11 28 -18 54 -16 56 2 2 27 -8
56 -23 l51 -26 -7 -107 c-17 -278 70 -562 243 -792 138 -184 279 -291 518
-393 259 -110 626 -107 894 8 243 104 410 243 562 468 64 96 77 122 69 136 -7
14 -6 22 5 31 8 7 15 21 15 31 0 11 15 50 34 87 19 37 38 78 42 92 l7 25 -22
-25 c-18 -20 -20 -21 -12 -4 16 33 42 155 35 165 -3 6 2 26 11 46 14 29 16 49
10 112 -6 53 -10 69 -15 51 -5 -21 -7 -18 -13 20 -3 25 -4 70 -1 100 6 63 -25
184 -76 297 -17 36 -28 68 -26 70 2 3 22 -19 43 -47 38 -50 171 -165 181 -156
2 3 -10 22 -28 43 -19 24 -44 77 -66 141 -52 158 -46 168 36 57 28 -38 57 -93
66 -121 14 -50 47 -94 60 -81 4 3 -42 97 -102 208 -80 148 -117 206 -139 220
-37 24 -49 24 -41 2 8 -24 -13 3 -60 76 -45 70 -37 79 9 11 l35 -52 7 45 c9
62 4 80 -28 95 -34 17 -34 30 1 38 28 8 51 30 52 51 0 31 40 53 93 53 28 1 63
7 76 14 l24 13 -34 36 c-33 35 -38 37 -134 47 -55 6 -183 14 -285 17 -102 3
-207 7 -235 10 -46 5 -424 -25 -435 -34 -8 -7 24 -23 48 -23 12 0 30 -9 39
-20 10 -11 24 -20 31 -20 8 0 26 -7 40 -14 15 -8 49 -24 76 -36 67 -28 55 -33
-19 -8 -95 32 -190 47 -332 54 -73 4 -133 8 -133 10 0 2 19 21 43 43 l42 41
-65 -6 c-204 -19 -282 -32 -303 -52 -12 -11 -80 -36 -152 -57 -71 -20 -152
-43 -180 -51 -46 -13 -52 -18 -69 -62 -11 -26 -48 -88 -82 -138 -43 -65 -63
-105 -68 -137 -8 -50 -24 -71 -45 -57 -11 6 -10 13 8 35 41 53 22 62 -25 13
-44 -47 -46 -47 -69 -32 -14 9 -25 21 -25 26 0 5 16 30 36 54 20 25 34 47 31
51 -7 6 27 67 50 91 7 7 17 21 22 30 5 9 12 14 16 11 3 -4 -6 -21 -21 -38 -14
-18 -24 -35 -20 -38 8 -8 7 -9 95 105 64 85 89 142 62 142 -13 0 -28 -23 -28
-41 0 -24 -45 -78 -65 -78 -24 -1 -23 2 18 44 19 20 32 40 29 43 -4 4 -31 -19
-60 -50 -51 -55 -82 -74 -86 -53 -3 21 -63 95 -76 95 -12 0 -17 -12 -14 -32 0
-4 -6 -5 -14 -2 -21 8 -19 21 5 34 11 6 18 16 14 21 -4 6 -13 4 -25 -7 -11 -9
-21 -15 -23 -13 -4 4 -70 102 -82 121 -3 4 -1 8 3 8 5 0 19 -18 33 -40 27 -44
32 -47 49 -27 8 11 1 27 -30 71 -34 47 -46 57 -64 53 -20 -3 -24 1 -30 32 -14
82 -21 87 -92 64 -26 -8 -88 -19 -138 -23 -49 -4 -98 -11 -107 -15 -13 -5 -21
0 -30 22 -6 15 -21 38 -32 51 -18 21 -27 22 -162 22 -136 0 -143 1 -149 21 -6
17 -13 20 -41 17 -19 -2 -34 -1 -34 3 0 5 41 55 90 112 99 114 103 116 220
117 30 0 89 11 130 24 73 22 414 145 475 171 17 7 77 29 135 50 58 21 121 48
140 60 19 12 53 28 74 36 40 14 72 41 136 114 179 205 179 205 226 205 38 0
46 -4 54 -24 9 -24 30 -29 220 -52 30 -4 64 -11 74 -17 28 -14 478 -107 520
-107 9 0 16 11 18 28 2 19 8 27 21 26 21 -2 23 14 2 22 -9 4 -21 17 -28 29 -7
12 -66 63 -133 112 -117 88 -122 90 -197 101 -43 7 -88 18 -100 25 -12 7 -47
12 -77 12 -115 -3 -170 -9 -170 -17 0 -5 -25 -20 -56 -34 -30 -13 -52 -29 -49
-34 3 -6 -1 -10 -9 -10 -9 0 -16 -4 -16 -9 0 -14 -29 -22 -56 -15 -13 3 -24
12 -24 18 0 16 169 124 212 137 18 5 50 9 70 9 20 0 39 4 42 9 13 20 144 80
164 74 18 -4 26 4 49 53 15 33 31 61 34 64 3 3 11 15 18 27 31 61 -8 83 -53
31 -17 -20 -67 -54 -111 -77 -44 -22 -86 -49 -93 -61 -7 -11 -18 -20 -26 -20
-15 0 -301 -186 -328 -214 -10 -10 -18 -14 -18 -9 0 4 -4 3 -8 -2 -4 -6 -23
-16 -44 -23 -33 -11 -41 -10 -95 13 -79 36 -172 35 -222 -2 -14 -11 -47 -30
-71 -42 l-45 -22 30 23 c16 13 52 37 80 53 41 25 56 42 82 95 49 101 48 103
-47 98 -76 -3 -99 3 -64 16 8 3 73 13 142 21 142 17 190 28 523 120 161 44
237 70 246 82 7 10 17 24 23 31 8 9 4 19 -16 37 -36 33 -64 39 -121 26 -96
-21 -194 -31 -306 -31 -119 0 -410 -24 -487 -41 -86 -18 -150 -50 -166 -82
-26 -49 -46 -128 -40 -153 5 -19 13 -24 36 -24 17 0 30 -4 30 -10 0 -5 -7 -10
-15 -10 -8 0 -15 -5 -15 -10 0 -10 -44 -7 -92 6 -10 3 -33 -9 -55 -29 -73 -65
-213 -145 -338 -192 -36 -13 -137 -39 -223 -57 -267 -54 -407 -44 -504 37 -16
14 -36 25 -43 25 -7 0 -25 20 -39 45 -17 29 -41 52 -67 65 -42 22 -215 70
-251 70 -12 0 -41 12 -65 26 -25 14 -46 24 -49 21 -7 -7 96 -59 145 -73 l46
-13 -57 6 c-49 5 -63 2 -100 -19 -24 -14 -77 -44 -118 -66 -41 -22 -147 -81
-235 -130 -88 -50 -161 -89 -163 -87 -2 2 9 26 23 55 14 29 25 54 23 55 -2 2
-29 -45 -61 -104 -31 -60 -63 -113 -70 -118 -6 -6 -32 -15 -56 -21 -42 -10
-46 -9 -82 20 -132 106 -304 -37 -245 -204 19 -53 9 -47 -16 8 -37 84 -3 174
90 238 23 16 42 30 42 33 0 4 -83 -38 -90 -46 -3 -3 -18 -7 -35 -8 -79 -5 -95
-9 -95 -21 0 -7 -4 -11 -10 -7 -14 8 -50 -17 -50 -36 0 -27 -31 -109 -42 -109
-6 0 -7 11 -3 27 8 33 8 31 6 66 0 15 -5 27 -11 27 -5 0 -7 -6 -4 -14 7 -19
-123 -28 -149 -11 -17 12 -16 13 5 19 13 3 42 6 65 6 32 0 56 10 108 45 37 24
103 66 147 92 44 26 76 48 72 49 -5 1 -42 7 -82 14 -40 7 -71 14 -69 16 7 7
141 14 159 8 9 -3 15 -11 12 -19 -5 -11 3 -11 43 2 26 9 57 16 68 16 11 0 64
10 117 23 53 13 107 24 121 24 13 0 32 8 41 19 15 16 0 14 -111 -16 -70 -19
-137 -37 -148 -40 l-20 -4 20 16 c48 39 100 58 165 60 56 1 77 7 150 44 144
74 425 192 434 183 3 -3 6 -1 6 5 0 6 44 5 123 -4 145 -16 178 -14 128 8 -31
13 -33 17 -19 29 13 13 11 17 -16 36 -17 12 -60 37 -96 54 -36 18 -72 36 -82
41 -27 14 -122 23 -115 12 7 -11 -14 -23 -48 -28 -78 -11 -254 -50 -380 -85
-155 -42 -189 -53 -200 -61 -5 -4 -36 -15 -68 -24 -32 -9 -70 -23 -85 -31 -15
-8 -37 -14 -50 -14 -13 0 -49 -17 -80 -37 -64 -41 -196 -114 -258 -143 -42
-19 -77 -51 -38 -36 28 12 39 12 40 1 1 -11 -105 -59 -113 -52 -5 6 77 87 106
105 12 6 31 18 43 25 12 6 29 18 37 25 8 8 25 18 38 23 27 10 30 24 7 33 -12
5 -15 2 -10 -10 4 -10 2 -14 -6 -11 -7 2 -21 0 -30 -5 -10 -5 -18 -6 -18 -2 0
9 83 89 107 103 10 6 13 11 6 11 -13 0 -98 -66 -127 -99 -11 -11 -24 -21 -29
-21 -6 0 -2 9 9 21 10 12 18 29 16 39 -3 20 57 82 111 112 20 12 37 25 37 30
0 4 -17 8 -37 8 -21 0 -81 3 -134 6 l-95 7 -10 -63 c-7 -52 -13 -64 -32 -71
-22 -8 -23 -7 -17 24 l7 32 -27 -38 c-20 -29 -24 -42 -16 -50 17 -17 13 -54
-6 -61 -12 -5 -14 -9 -6 -14 9 -6 7 -16 -7 -40 -11 -18 -24 -32 -29 -32 -5 0
-17 -19 -26 -43 -11 -30 -27 -48 -55 -65 -45 -26 -90 -29 -90 -7 0 8 4 15 9
15 15 0 22 32 10 46 -9 11 -7 14 9 14 30 0 51 69 32 104 -7 14 -11 36 -8 49 6
33 -9 50 -61 67 -38 12 -45 12 -55 -1 -6 -7 -23 -23 -36 -34 -14 -11 -22 -16
-18 -11 4 5 0 15 -8 23 -16 17 -11 63 13 121 11 26 19 32 43 32 24 0 33 7 50
40 23 46 14 74 -28 85 -15 4 -22 11 -19 19 3 8 -1 23 -9 35 -8 12 -13 25 -9
30 3 5 1 12 -4 15 -5 4 -12 32 -16 64 -3 31 -8 74 -11 95 -3 20 -2 37 4 37 5
0 12 -32 16 -71 3 -39 12 -81 18 -92 12 -20 13 -18 18 23 10 80 33 93 50 29 6
-22 8 -53 5 -69 -3 -15 -2 -31 4 -34 15 -9 23 48 16 107 l-7 54 35 7 c24 4 44
18 63 43 l27 36 69 -7 c77 -7 104 2 118 40 21 55 -53 144 -121 144 -33 0 -41
5 -70 45 -20 28 -40 45 -53 45 -34 1 -117 52 -150 93 -25 31 -32 51 -37 105
-3 38 -2 72 4 80 17 22 35 12 42 -24 9 -51 45 -84 91 -84 31 0 35 2 24 15 -7
8 -21 46 -31 85 l-18 70 29 62 c20 42 31 56 35 45 3 -9 7 -24 10 -33 3 -9 8
-15 10 -12 3 3 -1 23 -9 45 -7 21 -17 97 -21 169 -10 177 -26 199 -109 151z
m-103 -288 c6 -24 24 -25 30 -1 4 13 5 12 6 -4 0 -12 -6 -25 -14 -28 -14 -5
-14 -9 -1 -33 8 -16 23 -37 35 -47 35 -32 27 -44 -29 -38 -45 4 -50 3 -50 -16
0 -11 6 -22 14 -25 14 -6 33 -84 22 -94 -6 -7 -36 27 -67 75 -20 31 -21 38
-10 130 7 53 17 99 23 103 16 10 35 0 41 -22z m282 -545 c28 -11 47 -59 34
-87 -23 -50 -93 -55 -118 -8 -17 31 -13 48 16 76 29 26 40 29 68 19z m-140
-51 c9 -38 -4 -47 -72 -44 -39 1 -43 19 -10 48 42 39 71 37 82 -4z m-215 -157
c0 -3 -4 -8 -10 -11 -5 -3 -10 -1 -10 4 0 6 5 11 10 11 6 0 10 -2 10 -4z m172
-81 c-6 -34 -12 -32 -12 6 0 16 4 28 9 25 4 -3 6 -17 3 -31z m-149 -86 c6 -47
0 -72 -16 -66 -7 2 -23 -2 -36 -9 -34 -18 -40 -10 -30 33 5 21 9 41 9 45 0 7
49 37 61 38 4 0 9 -19 12 -41z m-213 -149 c0 -5 -5 -10 -11 -10 -5 0 -7 5 -4
10 3 6 8 10 11 10 2 0 4 -4 4 -10z m158 -8 c-2 -11 3 -31 11 -45 12 -23 11
-32 -9 -82 -12 -30 -26 -58 -31 -61 -13 -8 -49 15 -49 32 0 8 -7 17 -15 20
-19 8 -19 51 0 84 12 23 70 68 88 69 5 1 7 -7 5 -17z m213 -12 c19 -11 19 -11
-3 -49 l-22 -38 -35 14 c-45 19 -43 17 -35 37 5 13 45 38 72 45 2 1 12 -4 23
-9z m4619 6 c0 -2 -9 -6 -20 -9 -11 -3 -18 -1 -14 4 5 9 34 13 34 5z m-4720
-12 c0 -20 -75 -154 -86 -154 -22 0 -17 15 28 90 36 60 58 85 58 64z m1800
-25 c0 -5 4 -8 9 -4 5 3 27 -2 48 -11 97 -42 125 -55 121 -60 -7 -6 -111 15
-117 24 -4 4 -23 16 -43 27 -27 14 -41 16 -49 8 -7 -7 -2 -13 20 -21 40 -14
40 -26 1 -17 -20 4 -39 2 -53 -8 -12 -8 -47 -20 -77 -27 -30 -7 -135 -39 -232
-71 l-178 -59 -142 0 c-88 0 -138 4 -132 9 8 9 72 28 324 100 36 11 112 24
170 30 120 13 267 38 230 40 -14 0 -70 -6 -125 -14 -112 -16 -120 -17 -114
-11 3 3 58 16 123 31 65 14 125 29 134 35 23 13 82 13 82 -1z m-2065 -39 c17
0 19 -9 7 -28 -6 -9 -12 -6 -20 13 -14 31 -26 32 -40 3 -8 -17 -11 -19 -11 -6
-1 9 6 24 16 33 15 15 17 15 25 1 5 -9 16 -16 23 -16z m4892 -3 c0 -8 -6 -14
-14 -14 -17 0 -17 14 0 20 6 3 12 6 13 6 0 1 1 -5 1 -12z m-4617 -11 c0 -14
-32 -76 -39 -76 -5 0 -2 18 7 40 9 22 20 40 25 40 4 0 7 -2 7 -4z m-400 -16
c0 -5 -4 -10 -10 -10 -5 0 -10 5 -10 10 0 6 5 10 10 10 6 0 10 -4 10 -10z
m178 -55 c16 -35 16 -35 -18 -22 -31 12 -40 31 -17 40 21 9 23 8 35 -18z
m1962 -4 c-30 -10 -98 -37 -150 -60 -113 -50 -136 -58 -95 -35 68 40 242 112
270 113 24 0 18 -4 -25 -18z m163 12 c-13 -2 -33 -2 -45 0 -13 2 -3 4 22 4 25
0 35 -2 23 -4z m-2313 -68 c0 -8 -4 -15 -10 -15 -5 0 -10 7 -10 15 0 8 5 15
10 15 6 0 10 -7 10 -15z m184 7 c7 -12 -26 -73 -38 -69 -15 5 -20 47 -6 47 7
0 10 7 6 15 -3 10 1 15 14 15 10 0 21 -4 24 -8z m-514 -87 c-12 -36 -24 -64
-27 -61 -3 2 5 35 17 71 12 36 24 64 27 61 3 -2 -5 -35 -17 -71z m1293 37
c-25 -40 -25 -40 -17 -7 9 39 14 46 25 40 5 -3 1 -18 -8 -33z m3005 -43 l24
-30 -44 7 c-54 8 -55 10 -33 34 23 25 25 25 53 -11z m-2623 11 c3 -5 -1 -10
-9 -10 -9 0 -16 5 -16 10 0 6 4 10 9 10 6 0 13 -4 16 -10z m145 6 c0 -4 -202
-73 -235 -81 -5 -1 -17 -5 -25 -8 -84 -36 -158 -49 -100 -18 19 11 38 17 42
15 4 -3 26 7 49 21 23 15 39 22 35 17 -3 -5 6 -7 21 -4 l26 5 -29 13 c-29 14
-23 13 39 -1 20 -5 20 -5 -3 9 -24 14 -24 14 17 9 34 -4 44 -2 49 11 5 12 19
16 60 16 30 0 54 -2 54 -4z m96 -61 c63 -9 60 -34 -3 -28 -73 7 -73 7 -60 44
10 25 13 28 15 11 2 -15 13 -21 48 -27z m996 9 c50 -41 68 -63 68 -81 0 -16
-52 -38 -139 -59 -66 -16 -68 -16 -151 11 -47 14 -106 29 -132 32 -87 11 -68
20 157 78 54 14 115 25 134 25 33 0 34 1 15 15 -10 8 -14 15 -7 15 6 0 31 -16
55 -36z m-2643 -11 c3 -2 -24 -33 -59 -68 -79 -80 -61 -86 27 -9 39 34 69 54
78 50 8 -3 15 -9 14 -13 -1 -11 -147 -136 -168 -144 -9 -4 -24 0 -33 9 -16 14
-18 14 -18 -1 0 -8 -6 -17 -12 -19 -7 -3 -20 -40 -29 -84 -12 -64 -20 -81 -39
-91 l-23 -11 24 -5 c23 -4 22 -4 -3 -6 -19 -1 -33 7 -44 24 -15 24 -15 31 12
128 28 101 29 103 104 180 l76 78 45 -7 c24 -4 46 -9 48 -11z m268 -19 c3 -8
-4 -37 -15 -62 -12 -26 -36 -83 -55 -127 -64 -148 -98 -215 -112 -215 -8 0
-11 -7 -8 -18 2 -10 -14 -56 -36 -104 -34 -75 -42 -86 -60 -81 -12 3 -23 8
-25 12 -3 4 27 70 66 146 38 77 97 200 130 274 74 168 86 191 99 191 5 0 12
-7 16 -16z m713 2 c0 -2 -7 -7 -16 -10 -8 -3 -12 -2 -9 4 6 10 25 14 25 6z
m180 -21 c0 -12 -19 -12 -23 0 -4 9 -1 12 9 8 7 -3 14 -7 14 -8z m-980 -15
c-6 -11 -13 -20 -15 -20 -3 0 -5 9 -5 20 0 11 7 20 15 20 13 0 14 -4 5 -20z
m3819 -17 c-12 -21 -29 -47 -37 -58 -24 -33 -7 8 23 54 32 51 45 54 14 4z
m-3660 10 c0 -5 -20 -46 -45 -93 -50 -94 -50 -84 -1 27 18 40 35 73 40 73 4 0
7 -3 6 -7z m4821 -3 c0 -5 -2 -10 -4 -10 -3 0 -8 5 -11 10 -3 6 -1 10 4 10 6
0 11 -4 11 -10z m-5501 -56 c-12 -53 -55 -209 -114 -417 -24 -84 -27 -66 -5
28 22 92 25 136 9 152 -18 18 -19 62 -3 133 28 124 31 129 75 136 21 4 39 11
39 17 0 6 2 8 5 5 3 -3 1 -27 -6 -54z m4758 36 c7 0 -1 -20 -19 -45 -25 -36
-36 -44 -52 -39 -34 10 -35 17 -9 57 19 31 29 38 46 33 12 -3 28 -6 34 -6z
m-3357 -10 c13 -9 13 -10 0 -10 -8 0 -22 5 -30 10 -13 9 -13 10 0 10 8 0 22
-5 30 -10z m97 -66 c-3 -3 -12 -4 -19 -1 -8 3 -5 6 6 6 11 1 17 -2 13 -5z
m-40 -10 c-3 -3 -12 -4 -19 -1 -8 3 -5 6 6 6 11 1 17 -2 13 -5z m3033 -3 c-8
-5 -26 -11 -40 -15 -21 -5 -20 -3 5 9 32 15 60 20 35 6z m-3073 -7 c-3 -3 -12
-4 -19 -1 -8 3 -5 6 6 6 11 1 17 -2 13 -5z m-40 -10 c-3 -3 -12 -4 -19 -1 -8
3 -5 6 6 6 11 1 17 -2 13 -5z m-1203 -93 c-10 -33 -20 -59 -22 -56 -3 3 3 32
13 65 24 78 31 71 9 -9z m786 49 c0 -5 -4 -10 -9 -10 -6 0 -13 5 -16 10 -3 6
1 10 9 10 9 0 16 -4 16 -10z m137 -12 c-22 -61 -22 -61 19 -55 l39 7 -43 -26
c-52 -31 -95 -44 -112 -34 -13 8 -8 13 35 35 11 6 22 22 23 35 4 28 19 50 34
50 6 0 8 -6 5 -12z m-12 -135 c-11 -9 -14 -14 -5 -11 16 6 43 -16 33 -26 -11
-11 -24 -6 -17 6 4 7 3 8 -5 4 -6 -4 -9 -11 -6 -15 2 -5 -26 -20 -63 -34 -113
-44 -106 -42 -95 -22 6 10 8 26 6 36 -3 11 0 19 7 19 7 0 10 -7 6 -15 -9 -24
6 -18 69 30 33 25 67 45 75 45 11 -1 10 -5 -5 -17z m-14 -93 c-79 -39 -145
-70 -146 -70 -2 0 -1 8 2 18 4 18 231 121 268 121 11 1 -45 -31 -124 -69z
m3429 41 c-8 -5 -26 -11 -40 -15 -21 -5 -20 -3 5 9 32 15 60 20 35 6z m-3301
-18 c0 -5 -28 -26 -62 -48 -168 -107 -207 -139 -219 -177 -8 -26 -17 -38 -30
-38 -10 0 -20 1 -22 3 -2 1 -13 -6 -24 -16 -20 -18 -20 -18 -27 12 -8 38 -1
51 30 51 26 0 85 53 85 76 0 8 3 13 8 12 14 -4 97 39 137 71 22 18 52 35 67
38 16 3 31 10 34 14 6 11 24 12 23 2z m444 -149 c65 -58 116 -108 113 -111 -3
-3 -16 7 -30 22 -15 16 -30 24 -37 19 -8 -5 -9 -3 -4 6 6 10 4 12 -7 7 -9 -3
-24 3 -34 14 -9 10 -23 19 -31 19 -7 0 -16 7 -19 15 -4 8 -10 15 -16 15 -18 0
-38 28 -38 53 0 15 -8 28 -22 35 -15 7 -18 11 -8 11 9 1 69 -47 133 -105z
m-184 39 c2 -23 -19 -13 -25 11 -8 35 8 59 17 26 4 -14 7 -31 8 -37z m441 -4
c0 -20 -24 -26 -35 -9 -8 13 14 42 26 34 5 -3 9 -14 9 -25z m-471 -22 c1 -5
-3 -5 -9 -2 -5 3 -10 16 -9 28 0 21 1 21 9 2 5 -11 9 -24 9 -28z m2431 28 c-7
-8 -17 -15 -23 -15 -6 0 -2 7 9 15 25 19 30 19 14 0z m290 -5 c-8 -5 -19 -10
-25 -10 -5 0 -3 5 5 10 8 5 20 10 25 10 6 0 3 -5 -5 -10z m-3586 -59 c-9 -22
-20 -41 -25 -41 -5 0 1 20 13 45 27 55 35 53 12 -4z m3236 25 c0 -2 -8 -10
-17 -17 -16 -13 -17 -12 -4 4 13 16 21 21 21 13z m240 -6 c-8 -5 -19 -10 -25
-10 -5 0 -3 5 5 10 8 5 20 10 25 10 6 0 3 -5 -5 -10z m-2540 -16 c0 -17 -22
-14 -28 4 -2 7 3 12 12 12 9 0 16 -7 16 -16z m-1010 -31 c-11 -17 -11 -17 -6
0 3 10 6 24 7 30 0 9 2 9 5 0 3 -7 0 -20 -6 -30z m2800 -3 c0 -5 -26 -23 -58
-39 -54 -27 -58 -28 -59 -10 -1 10 3 19 8 19 6 0 7 4 4 10 -3 5 0 7 8 4 8 -3
30 2 48 10 42 18 49 19 49 6z m-2321 -23 c10 -19 9 -34 -8 -88 -32 -102 -90
-322 -93 -349 -4 -38 26 -36 122 9 88 40 122 68 135 111 7 22 9 23 15 6 3 -10
4 -32 2 -48 -5 -30 -53 -72 -165 -142 -25 -16 -43 -34 -40 -39 3 -6 1 -7 -5
-4 -18 12 -42 -4 -42 -27 0 -17 2 -18 10 -6 7 12 10 8 10 -15 0 -23 3 -27 10
-15 7 10 8 1 3 -30 -5 -25 -7 -87 -6 -139 2 -73 6 -98 20 -114 13 -15 15 -21
6 -24 -18 -6 -16 -30 2 -37 8 -3 15 -13 14 -23 0 -16 -1 -16 -9 2 -6 14 -9 5
-9 -35 -1 -39 2 -51 9 -40 7 11 10 7 10 -17 0 -18 5 -33 10 -33 6 0 10 -10 10
-22 0 -19 2 -20 10 -8 8 13 10 12 10 -2 0 -11 8 -18 19 -18 32 0 35 -14 28
-111 -1 -13 -14 -27 -34 -37 -21 -10 -32 -21 -28 -30 3 -7 5 -32 5 -54 0 -30
3 -39 14 -35 12 5 13 0 5 -25 -14 -51 -26 -53 -33 -6 -8 52 -38 314 -72 623
-13 127 -27 240 -30 252 -2 14 -20 31 -45 43 -37 19 -45 40 -15 40 8 0 16 8
19 18 2 9 8 26 12 37 l8 20 -16 -20 c-15 -19 -16 -18 -7 15 5 19 30 121 55
225 26 105 48 196 50 203 7 19 20 14 34 -11z m849 -52 c-3 -3 -9 2 -12 12 -6
14 -5 15 5 6 7 -7 10 -15 7 -18z m-33 -6 c11 -16 1 -19 -13 -3 -7 8 -8 14 -3
14 5 0 13 -5 16 -11z m40 -39 c10 -11 14 -20 9 -20 -5 0 -15 9 -22 20 -7 11
-11 20 -9 20 2 0 12 -9 22 -20z m-1586 -49 c10 -7 5 -27 -29 -102 -53 -119
-66 -139 -90 -139 -11 0 -20 4 -20 8 0 7 36 96 84 205 16 37 29 44 55 28z
m1387 -7 c-5 -14 -4 -15 8 -5 20 17 48 -23 36 -53 -9 -24 -235 -503 -335 -713
-116 -240 -148 -273 -66 -68 28 70 51 130 51 133 -1 4 -30 -53 -65 -125 -58
-122 -87 -167 -69 -110 7 22 125 290 149 337 7 14 21 45 32 70 49 112 59 129
70 125 15 -5 37 31 29 48 -2 7 -5 4 -5 -5 -1 -10 -5 -18 -11 -18 -14 0 -13 6
6 42 12 24 18 28 25 17 6 -9 7 -1 2 20 -5 29 -4 33 10 28 19 -7 35 12 18 22
-17 11 4 62 22 55 9 -3 17 3 20 16 4 17 3 19 -8 10 -11 -9 -12 -7 -8 10 3 12
11 19 18 16 7 -2 18 7 24 21 11 23 10 25 -3 13 -13 -10 -16 -10 -16 4 0 9 4
16 9 16 4 0 16 25 26 55 9 30 21 55 27 55 6 0 7 -7 4 -16z m317 -67 c-4 -6 0
-8 11 -4 9 4 14 3 11 -2 -3 -5 4 -12 15 -16 23 -7 26 -21 6 -28 -7 -3 -26 8
-42 24 -15 16 -24 29 -20 29 4 0 -5 17 -20 38 l-28 37 37 -34 c20 -19 33 -39
30 -44z m674 -21 c134 -51 195 -66 266 -66 62 0 66 -1 92 -36 15 -19 25 -36
24 -38 -2 -1 -108 -26 -236 -55 -168 -39 -242 -52 -268 -47 -25 5 -61 30 -125
88 -50 44 -90 85 -90 89 0 5 16 15 35 23 19 8 35 19 35 25 0 14 99 50 142 50
20 1 76 -14 125 -33z m603 19 c-7 -8 -22 -15 -34 -15 -21 1 -21 1 -2 15 27 21
53 20 36 0z m-980 -224 c101 -97 192 -184 201 -193 10 -9 30 -24 46 -32 18
-10 22 -15 11 -16 -9 0 -39 18 -67 40 -28 22 -53 40 -56 40 -3 0 17 -22 45
-50 36 -36 58 -50 78 -50 21 0 28 5 29 20 1 11 -2 20 -7 20 -6 0 -6 10 0 24 5
14 7 34 5 45 -3 17 3 21 43 26 26 4 182 40 347 80 349 86 546 128 556 117 4
-4 9 -27 11 -52 2 -38 0 -45 -17 -48 -18 -4 -18 -3 -5 14 14 18 14 18 -10 3
-167 -106 -211 -130 -229 -124 -12 3 -72 -9 -140 -29 -66 -20 -128 -33 -137
-29 -12 4 -15 3 -10 -6 6 -9 0 -10 -20 -5 -19 5 -25 4 -20 -4 5 -8 1 -10 -11
-5 -14 6 -11 10 17 21 19 9 49 15 67 16 18 0 30 2 28 5 -3 2 36 17 86 33 50
16 89 32 86 34 -2 3 -105 -20 -228 -50 -123 -30 -246 -60 -274 -66 -27 -6 -63
-17 -80 -24 -32 -14 -190 -74 -215 -82 -23 -7 -290 242 -290 270 0 12 -24 46
-53 77 -81 87 -101 109 -95 109 5 0 103 -73 135 -100 7 -6 15 -9 17 -8 2 2 15
-7 29 -18 13 -12 45 -34 70 -48 25 -15 51 -33 57 -41 8 -10 22 -13 39 -9 21 5
23 3 11 -6 -12 -9 -10 -10 10 -4 14 3 22 3 18 -1 -7 -8 27 -45 42 -45 6 0 -13
23 -40 50 -38 38 -56 49 -71 45 -11 -4 -19 -2 -19 5 0 6 5 8 10 5 15 -9 12 11
-3 24 -8 6 -17 7 -21 3 -4 -4 -6 -2 -4 3 4 12 -61 81 -73 78 -5 -2 -8 1 -6 6
1 4 -7 17 -19 27 -12 11 -45 46 -75 79 -82 90 -13 31 201 -174z m-1403 167
c-3 -8 -6 -5 -6 6 -1 11 2 17 5 13 3 -3 4 -12 1 -19z m1188 -2 c12 -12 12 -15
-1 -20 -10 -4 -13 -2 -8 6 5 8 2 9 -9 5 -17 -6 -23 4 -10 16 9 10 13 9 28 -7z
m1135 -51 c0 -22 -48 -39 -66 -24 -27 22 -16 39 26 39 29 0 40 -4 40 -15z
m-77 -35 c10 -16 16 -30 13 -30 -2 0 -14 14 -26 30 -12 17 -18 30 -13 30 5 0
17 -13 26 -30z m371 -118 c9 -14 -19 -47 -44 -50 -14 -2 -32 -10 -40 -16 -8
-7 -24 -16 -35 -20 l-20 -6 20 15 c11 9 30 25 43 35 12 11 26 20 31 20 5 0 11
7 15 15 6 16 22 20 30 7z m182 -81 c1 -33 58 -111 80 -111 8 0 14 -7 14 -16 0
-9 -5 -12 -12 -8 -6 4 -79 7 -162 6 l-151 -1 -13 -40 c-14 -42 -19 -45 -157
-67 -29 -5 -29 -4 -10 11 11 9 52 36 90 62 39 25 73 52 78 59 4 7 13 11 21 8
7 -3 55 24 107 60 52 36 99 65 104 65 6 1 10 -12 11 -28z m327 18 c42 -11 56
-31 38 -53 -10 -12 2 -33 58 -107 39 -51 67 -97 63 -101 -10 -10 -72 1 -72 13
0 4 8 12 17 18 10 5 15 13 11 17 -4 4 -14 1 -23 -6 -8 -7 -15 -8 -15 -3 0 18
-50 13 -62 -7 -17 -26 -23 -25 -24 5 -1 14 2 22 7 19 5 -3 12 3 16 13 3 10 15
28 25 39 13 14 16 24 9 29 -6 3 -11 2 -11 -4 0 -6 -12 -8 -30 -5 -24 5 -37 0
-71 -30 -41 -35 -59 -44 -59 -29 0 9 81 106 97 116 18 11 16 27 -2 27 -8 0
-15 5 -15 11 0 7 -11 8 -30 4 -25 -6 -30 -4 -30 13 0 10 3 22 7 25 9 10 53 8
96 -4z m-2936 -15 c9 -9 18 -26 19 -38 1 -11 3 -23 3 -26 1 -3 6 2 11 10 6 10
10 11 10 3 0 -8 14 -13 36 -13 22 0 33 4 29 11 -4 6 -13 8 -20 5 -19 -7 -26 4
-12 19 7 7 19 10 27 8 8 -3 4 4 -10 16 -24 20 -24 21 -4 21 25 0 56 -41 60
-80 5 -37 -15 -79 -41 -86 -28 -7 -89 2 -118 18 -22 12 -22 12 -2 17 21 6 33
31 15 31 -5 0 -10 -5 -10 -11 0 -8 -5 -8 -15 1 -8 7 -15 9 -15 5 0 -4 -7 -2
-15 5 -13 11 -14 10 -9 -6 4 -10 19 -29 33 -41 20 -17 22 -22 9 -23 -25 0 -58
48 -58 85 0 32 32 85 51 85 6 0 18 -7 26 -16z m5058 -4 c3 -5 1 -10 -5 -10 -6
0 -15 -10 -20 -22 -9 -23 -9 -23 -9 3 -1 36 19 53 34 29z m-4975 -4 c0 -3 -4
-8 -10 -11 -5 -3 -10 -1 -10 4 0 6 5 11 10 11 6 0 10 -2 10 -4z m2103 -22 c4
-4 -55 -46 -131 -94 -152 -96 -123 -64 -317 -357 -44 -67 -81 -120 -83 -118
-5 5 55 103 74 123 8 8 24 30 34 51 11 20 49 80 84 134 53 82 73 105 122 135
32 20 90 58 129 84 74 50 78 52 88 42z m197 -13 c0 -14 -7 -18 -24 -17 -23 1
-23 2 -9 19 21 22 33 22 33 -2z m2628 -21 c46 -28 42 -64 -7 -68 -31 -3 -33
-2 -27 22 5 21 2 27 -19 32 -20 5 -23 9 -14 20 15 19 28 18 67 -6z m-3798 -65
c13 -14 21 -25 18 -25 -2 0 -15 11 -28 25 -13 14 -21 25 -18 25 2 0 15 -11 28
-25z m587 17 c6 -4 -7 -8 -30 -8 -30 -1 -36 1 -22 7 26 10 37 10 52 1z m1023
-11 c0 -5 -7 -11 -15 -15 -15 -5 -20 5 -8 17 9 10 23 9 23 -2z m-1115 -11
c-27 -12 -43 -12 -25 0 8 5 22 9 30 9 10 0 8 -3 -5 -9z m-2915 -14 c0 -18
-104 -152 -125 -160 -8 -3 -19 -16 -24 -28 -6 -13 -35 -83 -66 -156 l-56 -133
26 -21 c20 -16 26 -27 22 -47 -8 -46 -112 -262 -131 -273 -25 -14 -65 -1 -77
26 -9 19 -7 33 10 71 12 27 19 50 17 52 -2 3 -7 -5 -11 -16 -19 -62 -28 -1
-39 294 -3 66 -8 111 -15 113 -19 6 -12 31 12 43 12 7 65 53 117 102 52 49
106 97 119 105 51 34 221 55 221 28z m2775 -26 c-11 -5 -27 -9 -35 -9 -9 0 -8
4 5 9 11 5 27 9 35 9 9 0 8 -4 -5 -9z m1735 -64 c0 -5 -11 1 -25 14 -13 12
-22 27 -18 33 6 10 42 -30 43 -47z m-1915 14 c-11 -5 -27 -9 -35 -9 -9 0 -8 4
5 9 11 5 27 9 35 9 9 0 8 -4 -5 -9z m2055 6 c0 -2 -8 -10 -17 -17 -16 -13 -17
-12 -4 4 13 16 21 21 21 13z m-4527 -53 c-7 -3 -13 -13 -13 -22 0 -10 -8 -29
-18 -42 -10 -13 -24 -43 -31 -66 -12 -44 -34 -56 -59 -31 -8 8 1 35 41 109
l52 98 20 -21 c14 -14 16 -22 8 -25z m2407 37 c0 -5 -2 -10 -4 -10 -3 0 -8 5
-11 10 -3 6 -1 10 4 10 6 0 11 -4 11 -10z m1160 -81 l32 -12 -48 -23 c-58 -28
-80 -30 -89 -7 -4 12 1 24 15 35 26 21 45 22 90 7z m-780 -4 c0 -3 -7 -16 -16
-29 -14 -23 -14 -25 15 -42 52 -30 37 -43 -21 -19 -14 5 -18 2 -18 -13 0 -14
-9 -22 -32 -26 -18 -4 -45 -9 -60 -13 -24 -4 -28 -2 -28 16 0 26 -17 28 -24 3
-7 -22 -43 -62 -56 -62 -5 0 -12 9 -15 21 -6 19 -9 18 -39 -17 -53 -61 -60
-36 -10 36 25 36 48 66 53 68 4 1 12 -12 17 -30 l10 -32 28 48 c28 48 29 49
41 26 l12 -23 19 28 c22 34 124 83 124 60z m3370 -63 c0 -5 -9 -17 -20 -27
-16 -14 -20 -15 -20 -4 0 16 19 39 32 39 4 0 8 -4 8 -8z m-1810 -32 c0 -5 -5
-10 -11 -10 -5 0 -7 5 -4 10 3 6 8 10 11 10 2 0 4 -4 4 -10z m15 -24 c-10 -14
-21 -26 -26 -26 -5 0 0 13 12 30 27 36 38 33 14 -4z m-4365 -16 c-16 -31 -23
-18 -8 15 7 15 14 23 16 17 2 -6 -2 -21 -8 -32z m6129 -6 c-15 -18 -22 -13
-13 10 3 9 10 13 16 10 5 -3 4 -12 -3 -20z m-1839 -10 c0 -15 -33 -36 -50 -31
-13 3 -18 1 -13 -6 4 -6 -2 -8 -15 -5 -14 4 -22 1 -22 -6 0 -11 -93 -106 -104
-106 -6 0 -2 23 7 38 5 7 13 9 19 6 6 -4 8 -3 5 3 -10 15 74 90 113 101 42 12
60 14 60 6z m-4388 -18 c8 -8 23 -16 34 -18 10 -2 18 -10 16 -17 -4 -21 -204
-465 -215 -479 -8 -10 -14 -9 -28 4 -18 17 -20 15 -23 -18 -1 -7 -3 -15 -6
-18 -16 -16 -51 -93 -48 -106 2 -8 18 14 36 50 24 47 39 66 53 66 25 0 24 -12
-6 -60 -14 -22 -25 -43 -25 -46 0 -18 -35 -84 -47 -88 -7 -3 -33 3 -59 14 -52
23 -52 18 1 135 19 41 42 82 52 92 10 10 68 127 128 261 61 133 113 242 117
242 4 0 13 -6 20 -14z m6378 -1 c0 -2 -5 -16 -12 -30 -16 -35 -29 -31 -17 5 6
17 15 30 20 30 5 0 9 -2 9 -5z m-1950 -44 c5 -11 19 -23 30 -26 33 -11 23 -22
-32 -35 -49 -12 -64 -24 -185 -143 -125 -123 -151 -157 -120 -157 7 0 51 -29
97 -65 86 -66 107 -76 97 -50 -5 12 -2 12 18 3 13 -6 26 -17 29 -25 4 -10 1
-11 -13 -3 -16 8 -20 5 -25 -15 -4 -14 -10 -25 -15 -25 -12 0 -139 66 -158 81
-7 6 -13 22 -13 34 0 14 -11 31 -26 42 l-26 19 -86 -89 c-94 -96 -106 -105
-149 -111 -15 -3 -70 -18 -122 -35 -110 -36 -110 -36 -81 -13 19 15 21 24 15
64 l-7 47 -39 -16 c-22 -8 -42 -13 -45 -10 -3 3 19 13 48 22 175 58 222 85
353 208 22 21 60 54 84 75 24 20 82 70 130 111 47 41 94 81 104 89 15 13 19
13 36 -2 16 -15 22 -15 40 -4 12 7 24 21 27 30 7 23 21 23 34 -1z m-899 -45
c52 -19 144 -53 204 -76 l110 -41 122 7 122 7 37 38 c41 42 54 48 50 24 -3
-20 -47 -66 -57 -59 -4 2 -11 -2 -16 -10 -6 -11 -195 -86 -217 -86 -3 0 -12
16 -20 35 -8 19 -20 35 -25 35 -14 0 -14 -4 3 -45 8 -19 22 -35 30 -35 17 0
20 -9 10 -34 -9 -23 -23 -20 -33 7 -6 16 -32 31 -102 56 -52 19 -132 50 -178
68 -94 37 -113 40 -131 18 -10 -12 -10 -18 0 -30 9 -11 8 -19 -4 -37 -11 -15
-16 -18 -16 -8 -1 11 -3 11 -11 -3 -6 -9 -15 -15 -21 -11 -6 4 -6 -2 1 -15 7
-12 9 -26 6 -31 -3 -6 -2 -10 2 -10 12 0 3 -223 -9 -235 -8 -7 -8 -6 -3 4 5 9
4 12 -3 7 -7 -4 -12 -13 -12 -19 0 -7 -9 -30 -20 -52 -11 -22 -20 -49 -20 -61
0 -31 -27 -49 -66 -45 -24 2 -36 -2 -40 -13 -3 -9 -12 -16 -19 -16 -14 0 -32
191 -20 210 4 6 6 56 6 110 0 55 4 100 8 100 14 0 31 -26 23 -36 -4 -4 1 -2
11 5 14 11 17 11 18 0 0 -10 2 -11 6 -1 2 6 10 12 16 12 7 -1 0 -11 -15 -23
-26 -22 -26 -23 -30 -177 l-3 -155 37 -1 38 -1 -7 190 c-6 169 -4 190 10 199
15 8 15 11 0 43 -16 33 -26 39 -62 38 -9 -1 -10 2 -3 9 16 16 85 -24 92 -53 5
-21 10 -17 44 41 21 36 46 72 57 80 19 15 19 16 -1 53 -37 69 -30 71 101 23z
m246 28 c-3 -3 -12 -4 -19 -1 -8 3 -5 6 6 6 11 1 17 -2 13 -5z m-3227 -24 c26
-13 40 -27 40 -40 0 -34 -18 -31 -54 7 -53 57 -49 65 14 33z m-1060 -15 c0 -8
-8 -15 -18 -15 -26 0 -115 -30 -130 -44 -10 -10 -9 -21 3 -57 12 -31 15 -62
11 -104 l-6 -60 62 -86 c35 -47 83 -114 108 -148 25 -33 55 -64 68 -67 26 -7
29 -24 4 -24 -10 0 -31 14 -47 30 -32 33 -50 38 -59 15 -10 -28 -36 -15 -101
50 -69 68 -77 85 -45 85 13 0 20 7 20 20 0 11 7 20 15 20 22 0 18 11 -18 52
l-32 38 -25 -20 c-20 -16 -21 -20 -8 -20 11 0 15 -5 12 -15 -8 -21 -75 -13
-113 14 -47 34 -43 69 17 120 26 23 57 41 69 41 21 0 22 3 16 64 l-6 63 74 26
c65 23 94 32 122 36 4 0 7 -6 7 -14z m379 -14 c11 -7 11 -13 -3 -32 -15 -22
-16 -22 -16 -3 0 11 -5 25 -12 32 -9 9 -9 12 3 12 7 0 20 -4 28 -9z m5711 -1
c0 -15 -29 -71 -48 -92 -8 -10 -23 -18 -33 -18 -26 0 -59 48 -59 86 l0 34 70
0 c42 0 70 -4 70 -10z m-2774 -55 c-26 -34 -45 -49 -29 -22 17 28 48 65 52 61
2 -2 -8 -19 -23 -39z m3045 -7 c31 -16 71 -41 88 -56 l32 -27 -43 -113 c-42
-112 -67 -147 -90 -124 -15 15 -1 76 22 97 28 25 25 44 -7 51 -48 10 -53 13
-47 29 4 9 1 15 -8 15 -8 0 -22 8 -32 19 -9 10 -34 26 -56 36 -22 10 -40 23
-40 30 0 6 12 29 26 52 26 39 28 40 63 31 20 -6 61 -23 92 -40z m-541 22 c0
-5 -4 -10 -9 -10 -6 0 -13 5 -16 10 -3 6 1 10 9 10 9 0 16 -4 16 -10z m967
-86 c-23 -43 -51 -98 -61 -122 -11 -23 -21 -40 -24 -38 -5 5 80 184 106 224
32 49 20 12 -21 -64z m-1793 7 c9 -39 16 -77 16 -85 0 -8 8 -20 18 -25 9 -6
12 -11 5 -11 -6 0 -9 -9 -6 -22 4 -16 2 -20 -4 -13 -6 6 -20 53 -33 105 -12
52 -23 101 -26 108 -2 6 1 12 6 12 4 0 16 -31 24 -69z m-4986 -17 c-3 -57 -4
-59 -33 -62 -16 -2 -33 -8 -36 -14 -14 -22 -39 24 -39 72 l0 49 48 15 c26 7
51 10 55 6 4 -4 7 -34 5 -66z m672 56 c0 -5 -4 -10 -10 -10 -5 0 -10 5 -10 10
0 6 5 10 10 10 6 0 10 -4 10 -10z m5467 -36 c-3 -3 -12 -4 -19 -1 -8 3 -5 6 6
6 11 1 17 -2 13 -5z m-2194 -47 c-15 -20 -21 -22 -31 -11 -13 14 -12 15 8 18
5 0 15 7 21 13 21 21 23 6 2 -20z m-3388 -13 c30 -23 33 -28 24 -52 -12 -31
-38 -62 -52 -62 -5 0 -7 7 -3 15 3 9 0 15 -7 15 -7 0 -21 6 -31 13 -16 12 -15
15 6 55 13 23 24 42 26 42 2 0 19 -12 37 -26z m3142 4 c-3 -8 -6 -5 -6 6 -1
11 2 17 5 13 3 -3 4 -12 1 -19z m2521 0 c23 -13 42 -26 42 -29 0 -11 -104 27
-108 39 -6 18 19 14 66 -10z m-5972 -13 c-3 -8 3 -20 13 -27 18 -13 18 -15 -4
-68 -16 -36 -29 -54 -40 -54 -8 1 -22 -11 -31 -27 -8 -16 -18 -29 -23 -29 -14
0 -1 39 18 53 22 17 43 56 36 67 -4 6 3 10 14 10 28 0 35 16 17 41 -13 19 -12
49 1 49 3 0 3 -7 -1 -15z m523 -92 c95 -127 156 -289 163 -432 l3 -64 -90 -28
c-106 -33 -124 -36 -189 -25 -42 7 -51 6 -62 -9 -15 -20 -64 -13 -64 9 0 16
-21 26 -54 26 -12 0 -26 4 -31 8 -6 5 -29 14 -53 21 -23 6 -40 15 -38 20 3 4
84 -8 182 -26 l176 -33 44 29 c28 18 64 31 99 36 l55 6 0 47 c0 76 -27 170
-80 277 -57 117 -97 166 -129 158 -14 -4 -21 -1 -21 9 0 15 19 38 31 38 4 0
30 -30 58 -67z m-802 41 c9 -23 -11 -38 -26 -20 -13 16 -7 36 10 36 5 0 12 -7
16 -16z m5683 -10 c116 -21 123 -22 143 -23 25 -1 21 -16 -16 -58 -18 -21 -41
-50 -50 -65 -10 -16 -24 -28 -33 -28 -20 0 -105 44 -138 72 -16 13 -42 35 -60
50 l-31 26 24 26 c17 18 31 24 50 20 14 -2 64 -12 111 -20z m917 11 c5 -15
-10 -33 -50 -56 -17 -10 -18 -8 -12 23 4 18 9 36 12 41 8 13 44 7 50 -8z
m-1442 -49 c49 6 350 -50 382 -72 25 -16 24 -20 -12 -69 -28 -38 -58 -115 -45
-115 5 0 19 19 31 43 27 53 24 50 48 42 17 -5 21 -14 20 -53 -2 -156 -47 -216
-95 -126 -22 40 -44 45 -44 9 0 -14 -4 -25 -10 -25 -19 0 -145 44 -151 53 -4
5 -11 7 -17 3 -5 -3 -15 1 -22 9 -7 8 -17 15 -22 15 -5 0 -38 13 -72 29 -58
27 -124 90 -109 105 3 3 -4 15 -17 26 l-23 20 32 0 c28 0 32 -3 29 -22 -2 -17
3 -24 19 -26 21 -3 22 -1 16 50 -3 29 -9 57 -14 63 -11 11 -12 49 -2 58 3 4
14 1 22 -7 11 -10 29 -13 56 -10z m-5525 -32 c94 -35 96 -36 223 -162 170
-168 171 -170 156 -224 -20 -71 -41 -82 -23 -12 l16 58 -89 86 c-176 168 -202
190 -222 190 -12 0 -21 -4 -21 -9 0 -6 47 -52 105 -103 94 -83 103 -94 90
-108 -8 -9 -15 -25 -15 -36 0 -22 70 -84 95 -84 9 0 13 -4 10 -10 -3 -5 -19
-10 -34 -10 -15 0 -47 -6 -72 -14 -24 -8 -106 -27 -181 -43 -76 -15 -138 -31
-138 -35 0 -4 13 -14 29 -23 28 -14 38 -13 158 21 70 19 146 42 168 50 54 19
82 19 66 0 -9 -10 -8 -16 4 -26 38 -31 8 -77 -86 -128 -38 -21 -67 -41 -64
-43 2 -3 -24 -22 -59 -43 -36 -20 -69 -42 -74 -49 -13 -16 -22 -57 -13 -57 11
0 241 129 276 155 17 12 38 25 47 28 19 7 34 -8 18 -18 -18 -11 -11 -53 11
-69 16 -11 28 -12 47 -5 24 9 25 9 18 -29 -3 -21 -10 -94 -16 -163 -6 -68 -13
-133 -16 -144 -5 -16 0 -14 25 10 30 29 31 34 41 160 6 71 13 131 15 134 3 2
5 -57 5 -132 0 -78 4 -137 9 -137 5 0 18 10 28 23 28 36 53 41 80 16 l23 -22
0 30 c0 38 -20 135 -31 147 -4 4 -12 5 -18 1 -8 -4 -6 -11 4 -21 21 -21 20
-48 -1 -40 -10 4 -22 -1 -30 -11 -26 -36 -37 -1 -32 111 2 57 6 107 9 111 8 8
79 13 83 6 2 -3 11 -67 20 -141 22 -182 29 -204 71 -229 21 -12 43 -37 56 -65
31 -66 37 -69 97 -41 107 49 234 155 307 254 32 44 31 55 -1 76 -25 16 -28 16
-36 1 -33 -59 -163 -180 -242 -225 -35 -20 -136 -47 -121 -33 3 3 -1 12 -9 21
-12 14 -46 133 -46 161 0 16 30 12 36 -5 4 -8 1 -22 -6 -30 -17 -20 7 -20 34
0 11 8 30 15 43 15 13 0 23 5 23 10 0 6 7 10 15 10 8 0 15 5 15 11 0 7 -10 5
-26 -6 -43 -28 -55 -14 -50 58 2 35 1 69 -3 76 -12 18 -36 4 -48 -29 -6 -17
-19 -30 -27 -30 -20 0 -31 27 -41 98 -6 45 -5 52 10 52 21 0 57 -19 71 -38 16
-21 62 -7 76 23 12 27 23 31 34 13 4 -7 3 -8 -4 -4 -7 4 -12 1 -12 -8 0 -18
16 -21 25 -6 3 6 12 10 18 9 8 0 8 -2 -1 -6 -10 -4 -9 -8 5 -18 11 -9 20 -10
24 -3 8 12 91 -14 97 -31 2 -6 -5 -14 -15 -17 -45 -15 -48 -16 -36 -21 19 -7
3 -33 -21 -32 -20 0 -20 1 -1 9 11 5 14 9 6 9 -7 1 -11 7 -8 15 7 18 -32 35
-58 26 -11 -4 -27 -3 -35 3 -12 9 -13 8 -3 -2 7 -9 9 -21 3 -36 -9 -22 -4 -35
11 -35 4 0 7 12 6 26 -2 21 3 27 20 29 12 1 28 -2 35 -7 10 -6 10 -8 1 -8 -8
0 -12 -14 -11 -35 1 -25 4 -33 12 -25 5 5 18 10 27 10 17 0 79 63 79 81 0 5
11 7 24 3 21 -5 24 -3 19 15 -7 29 -17 35 -113 71 -155 59 -215 82 -240 96
-25 13 -25 13 -3 14 13 0 94 -27 180 -60 87 -33 163 -60 168 -60 6 0 46 -36
90 -80 l79 -79 -20 -36 c-32 -60 -111 -152 -177 -205 -62 -50 -228 -140 -258
-140 -9 0 -33 25 -54 55 -36 51 -39 53 -59 40 -21 -15 -119 -21 -150 -9 -11 4
-16 19 -16 47 0 54 -13 41 -65 -66 -33 -68 -44 -83 -66 -85 -30 -4 -173 47
-233 82 -121 71 -264 210 -251 244 3 9 34 53 68 99 40 53 71 85 87 89 14 3 42
12 62 21 31 13 36 19 28 34 -6 10 -10 26 -10 37 0 11 -6 25 -14 32 -8 6 -12
18 -9 26 3 8 2 14 -3 14 -17 0 -114 -34 -114 -41 0 -3 14 -12 30 -19 17 -7 33
-16 36 -21 9 -16 -23 -75 -61 -107 l-37 -33 -17 28 c-27 43 -53 118 -49 138 2
16 -8 21 -67 33 -38 7 -74 17 -78 22 -17 16 -8 212 13 295 28 110 113 285 138
285 4 0 50 -16 102 -36z m1100 1 c7 -9 11 -16 9 -18 -2 -1 -16 -13 -31 -25
-18 -17 -33 -22 -47 -17 -28 9 -26 29 5 54 32 25 47 26 64 6z m3047 -127 c-2
-29 -3 -8 -3 47 0 55 1 79 3 53 2 -26 2 -71 0 -100z m2116 110 c-7 -41 -8 -42
-30 -34 -17 7 -17 8 0 20 9 7 17 21 17 30 0 9 4 16 10 16 5 0 7 -14 3 -32z
m-5318 -10 c-1 -13 -3 -26 -4 -30 0 -3 -23 -22 -49 -42 -36 -26 -55 -33 -72
-29 -16 4 -21 3 -16 -6 4 -6 12 -9 17 -6 15 10 11 -3 -13 -40 -13 -19 -29 -35
-35 -35 -7 0 -13 -7 -13 -15 0 -8 -6 -15 -14 -15 -10 0 -2 26 30 90 32 67 49
90 64 91 11 1 25 3 30 4 6 1 18 3 28 4 11 0 24 12 30 26 14 31 20 32 17 3z
m-513 -18 c9 -17 30 -35 45 -42 15 -7 29 -13 31 -14 5 -3 -29 -54 -37 -54 -8
0 -81 117 -81 130 0 21 26 9 42 -20z m6153 19 c122 -22 212 -90 269 -201 26
-51 39 -91 42 -133 8 -90 11 -94 41 -49 54 81 59 84 109 67 35 -12 48 -13 59
-3 13 11 15 7 15 -22 0 -71 -13 -130 -29 -135 -9 -2 -24 -9 -33 -14 -25 -13
-50 -11 -91 6 -45 19 -67 19 -67 1 0 -8 27 -24 63 -38 51 -20 62 -28 63 -48 1
-13 10 -30 20 -37 18 -13 18 -15 -6 -34 -14 -12 -18 -18 -10 -14 10 4 9 1 -3
-8 -9 -8 -22 -28 -28 -46 -6 -17 -15 -31 -21 -31 -5 0 -7 4 -4 9 3 5 -7 11
-22 14 -16 3 -51 21 -78 40 l-51 33 -52 -48 c-29 -26 -46 -48 -38 -48 24 0
108 -62 118 -87 11 -29 -4 -54 -52 -87 l-32 -22 -23 21 c-31 29 -64 108 -57
136 5 17 3 21 -8 17 -8 -3 -38 -14 -66 -24 -57 -20 -61 -29 -38 -74 20 -39 35
-150 21 -151 -6 -1 -29 -4 -51 -8 -70 -10 -268 -5 -314 8 l-43 12 4 77 c4 58
12 90 32 130 l27 53 -23 20 c-16 14 -33 18 -55 15 -25 -4 -35 0 -43 15 -6 10
-17 19 -25 19 -8 0 -15 7 -15 15 0 19 13 19 53 -1 l32 -17 -26 34 c-113 150
-92 385 47 521 108 107 237 145 389 117z m979 -25 c9 -23 7 -72 -3 -78 -7 -5
-21 46 -21 82 0 17 17 15 24 -4z m-2209 -14 c3 -6 -1 -7 -9 -4 -18 7 -21 14
-7 14 6 0 13 -4 16 -10z m860 0 c-3 -5 -10 -10 -16 -10 -5 0 -9 5 -9 10 0 6 7
10 16 10 8 0 12 -4 9 -10z m-5185 -29 c0 -6 -4 -13 -10 -16 -5 -3 -10 1 -10 9
0 9 5 16 10 16 6 0 10 -4 10 -9z m5946 -17 c-3 -9 -6 -20 -6 -25 0 -13 -37
-11 -46 3 -8 12 22 38 44 38 9 0 12 -6 8 -16z m-890 -19 c10 -8 14 -15 7 -15
-19 0 -43 11 -43 21 0 13 14 11 36 -6z m1002 -42 c-3 -25 -31 -53 -42 -42 -3
3 1 27 10 54 14 38 19 44 26 31 5 -9 8 -28 6 -43z m-2799 -47 c-17 -31 -33
-56 -36 -56 -8 0 4 41 28 95 16 37 23 45 30 33 6 -10 -1 -34 -22 -72z m140 60
c-2 -2 -15 -9 -29 -15 -24 -11 -24 -11 -6 3 16 13 49 24 35 12z m-3431 -49 c4
-22 -27 -35 -38 -16 -10 15 7 42 24 36 6 -2 12 -11 14 -20z m227 -29 c34 -113
30 -178 -12 -178 -11 0 -10 7 6 29 26 36 26 46 0 64 -23 17 -39 72 -32 111 8
40 21 31 38 -26z m3509 20 c-4 -13 -8 -31 -8 -40 0 -10 -3 -18 -7 -18 -4 0
-12 -13 -18 -30 -9 -27 -8 -30 10 -30 14 0 19 7 19 28 l1 27 14 -25 c8 -14 14
-19 15 -11 0 12 2 12 13 -1 6 -9 19 -18 27 -21 12 -4 11 -6 -2 -6 -10 -1 -18
-5 -18 -11 0 -17 -18 -11 -23 8 -3 9 -5 2 -6 -16 -1 -35 -21 -36 -21 -1 0 12
-7 19 -19 19 -13 0 -25 -16 -41 -52 -13 -29 -22 -59 -21 -66 1 -8 -5 -24 -14
-38 -16 -26 -71 -34 -91 -14 -12 12 -64 -7 -125 -46 -43 -27 -69 -30 -87 -12
-18 18 -15 24 16 37 35 15 41 51 8 51 -13 0 -31 -9 -41 -20 -17 -19 -18 -18
-45 38 -22 44 -29 53 -35 40 -10 -25 -25 -22 -25 5 0 17 9 26 35 36 38 13 49
36 13 26 -21 -5 -21 -5 2 9 14 8 26 12 27 8 1 -4 4 -19 7 -34 9 -42 59 -62
115 -45 44 12 53 24 52 70 0 10 7 21 15 24 19 7 18 23 -3 23 -9 0 -14 2 -11 6
3 3 -15 25 -41 50 l-46 46 55 -41 c30 -22 64 -49 76 -60 l20 -20 10 25 c6 18
26 32 69 50 33 13 65 24 71 24 6 0 17 7 24 15 20 24 43 19 34 -7z m-587 -30
c-3 -8 -6 -5 -6 6 -1 11 2 17 5 13 3 -3 4 -12 1 -19z m-1978 -85 c-19 -42 -44
-97 -56 -122 l-23 -46 7 50 c3 28 9 52 13 55 4 3 24 38 45 78 21 40 40 70 43
67 2 -2 -11 -39 -29 -82z m2228 81 c-3 -3 -12 -4 -19 -1 -8 3 -5 6 6 6 11 1
17 -2 13 -5z m-73 -28 c-3 -9 -10 -13 -16 -10 -5 3 -4 12 3 20 15 18 22 13 13
-10z m492 6 c16 -10 34 -48 34 -70 0 -26 -38 -72 -58 -71 -13 0 -12 3 5 11 47
22 44 119 -4 131 -12 3 -13 5 -3 6 8 0 20 -3 26 -7z m-2729 -24 c-3 -8 -6 -5
-6 6 -1 11 2 17 5 13 3 -3 4 -12 1 -19z m2443 12 c0 -5 -2 -10 -4 -10 -3 0 -8
5 -11 10 -3 6 -1 10 4 10 6 0 11 -4 11 -10z m-3949 -22 c27 -13 49 -26 49 -29
0 -18 -51 -119 -60 -119 -5 0 -10 -13 -10 -30 0 -35 -28 -54 -71 -48 -16 3
-25 0 -22 -5 3 -5 0 -7 -8 -5 -8 3 -12 13 -11 23 3 15 1 16 -10 8 -7 -6 -22
-13 -33 -15 -17 -3 -15 -6 13 -21 17 -10 32 -21 32 -26 0 -11 -38 -2 -46 10
-3 5 -14 9 -25 9 -24 0 -35 25 -19 45 9 11 16 12 30 3 23 -14 50 4 50 34 0 10
9 36 20 56 11 20 29 58 40 85 11 26 22 47 26 47 3 0 28 -10 55 -22z m-303 -12
c3 -13 -1 -17 -14 -14 -11 2 -20 11 -22 22 -3 13 1 17 14 14 11 -2 20 -11 22
-22z m4160 -11 c16 -35 5 -55 -29 -55 -22 0 -32 6 -39 26 -14 35 -13 42 8 47
37 10 49 6 60 -18z m3169 3 c-3 -8 -6 -5 -6 6 -1 11 2 17 5 13 3 -3 4 -12 1
-19z m-7277 -14 c0 -8 -4 -12 -10 -9 -5 3 -10 10 -10 16 0 5 5 9 10 9 6 0 10
-7 10 -16z m150 0 c0 -8 -5 -12 -10 -9 -6 4 -8 11 -5 16 9 14 15 11 15 -7z
m370 6 c0 -5 -7 -10 -15 -10 -8 0 -15 5 -15 10 0 6 7 10 15 10 8 0 15 -4 15
-10z m138 -54 c3 -20 0 -27 -10 -24 -7 3 -14 17 -16 32 -3 20 0 27 10 24 7 -3
14 -17 16 -32z m4892 -19 c89 -29 139 -62 140 -92 0 -6 9 -18 20 -28 25 -21
26 -43 3 -56 -14 -7 -44 4 -133 51 -188 100 -175 90 -178 132 -3 36 -2 37 25
30 15 -3 71 -20 123 -37z m9 -137 l122 -65 -68 -62 c-80 -73 -99 -82 -119 -56
-21 27 -76 173 -82 217 -6 48 -8 48 147 -34z m-1135 44 c3 -8 2 -12 -4 -9 -6
3 -10 10 -10 16 0 14 7 11 14 -7z m1316 -4 c0 -5 -2 -10 -4 -10 -3 0 -8 5 -11
10 -3 6 -1 10 4 10 6 0 11 -4 11 -10z m-5195 -50 c4 -6 -5 -5 -19 2 -14 6 -26
15 -26 20 0 10 36 -7 45 -22z m-342 -7 c-3 -7 -8 -13 -12 -13 -4 0 -15 6 -25
13 -17 13 -16 14 12 14 21 0 29 -4 25 -14z m-23 -29 c22 -9 40 -21 40 -26 0
-6 -8 -7 -17 -3 -10 4 -30 12 -45 17 -16 5 -28 14 -28 19 0 12 3 12 50 -7z
m2056 9 c-13 -13 -345 -119 -335 -107 19 24 -14 17 -55 -11 -44 -30 -47 -14
-4 27 48 45 83 59 187 77 91 15 217 24 207 14z m-1826 -35 c0 -5 -4 -8 -10 -8
-5 0 -10 10 -10 23 0 18 2 19 10 7 5 -8 10 -18 10 -22z m30 2 c0 -5 -2 -10 -4
-10 -3 0 -8 5 -11 10 -3 6 -1 10 4 10 6 0 11 -4 11 -10z m-325 -20 c3 -5 1
-10 -4 -10 -6 0 -11 5 -11 10 0 6 2 10 4 10 3 0 8 -4 11 -10z m365 -25 c0 -8
-4 -15 -9 -15 -13 0 -22 16 -14 24 11 11 23 6 23 -9z m-390 -25 c0 -11 -7 -20
-15 -20 -8 0 -15 9 -15 20 0 11 7 20 15 20 8 0 15 -9 15 -20z m1701 -63 c-10
-9 -11 -8 -5 6 3 10 9 15 12 12 3 -3 0 -11 -7 -18z m3960 -50 c10 -37 -11
-135 -30 -142 -8 -3 -31 6 -52 21 -64 44 -66 49 -33 97 43 61 102 73 115 24z
m-1723 -12 c7 -14 12 -29 12 -33 0 -16 -58 -41 -109 -48 l-54 -7 7 39 c13 67
21 74 80 74 47 0 54 -3 64 -25z m-3308 -155 c-69 -61 -77 -68 -102 -80 -26
-13 -27 -13 58 55 27 22 53 46 57 53 4 6 13 12 20 12 7 0 -8 -18 -33 -40z
m4826 -211 c19 -22 19 -22 -3 -8 -13 8 -23 17 -23 21 0 12 6 9 26 -13z"/>
<path d="M2722 4728 c-24 -24 -4 -88 29 -88 14 0 11 9 -11 37 -23 29 -18 43
13 43 16 0 18 -3 9 -12 -14 -14 -16 -28 -3 -28 5 0 11 9 14 21 3 12 10 18 16
14 6 -3 11 -2 11 3 0 9 -32 22 -55 22 -6 0 -16 -5 -23 -12z"/>
<path d="M2782 4680 c-7 -11 -8 -20 -3 -20 9 0 24 30 18 36 -1 2 -8 -6 -15
-16z"/>
<path d="M1923 3818 c-33 -33 -42 -50 -41 -75 1 -18 5 -30 10 -27 5 3 7 13 4
21 -4 8 -2 11 5 7 11 -6 119 92 119 108 0 4 -13 8 -28 8 -20 0 -40 -13 -69
-42z"/>
<path d="M1837 3713 c-12 -12 -7 -41 7 -46 22 -9 41 19 26 38 -14 16 -23 19
-33 8z"/>
<path d="M1811 3674 c0 -11 3 -14 6 -6 3 7 2 16 -1 19 -3 4 -6 -2 -5 -13z"/>
<path d="M1771 3562 c-7 -17 -11 -37 -8 -44 3 -7 6 -4 6 8 1 11 6 25 12 31 6
6 9 17 7 24 -2 7 -10 -2 -17 -19z"/>
<path d="M1780 3525 c0 -18 5 -25 19 -25 20 0 31 17 24 38 -3 6 -13 12 -24 12
-14 0 -19 -7 -19 -25z"/>
<path d="M2553 3175 c0 -8 7 -15 15 -15 7 0 12 5 10 12 -6 18 -25 21 -25 3z"/>
<path d="M2611 2534 c0 -11 3 -14 6 -6 3 7 2 16 -1 19 -3 4 -6 -2 -5 -13z"/>
<path d="M3111 2539 c-7 -17 -11 -32 -8 -35 2 -3 10 9 17 26 17 40 8 48 -9 9z"/>
<path d="M3036 2365 c-9 -26 -7 -32 5 -12 6 10 9 21 6 23 -2 3 -7 -2 -11 -11z"/>
<path d="M4668 2553 c7 -3 16 -2 19 1 4 3 -2 6 -13 5 -11 0 -14 -3 -6 -6z"/>
<path d="M2710 2595 c8 -10 7 -14 -2 -18 -7 -3 -3 -6 10 -6 28 -1 29 25 1 32
-16 4 -18 3 -9 -8z"/>
<path d="M1228 1993 c7 -3 16 -2 19 1 4 3 -2 6 -13 5 -11 0 -14 -3 -6 -6z"/>
<path d="M1181 1945 c-29 -62 -26 -71 5 -12 14 27 23 51 21 53 -2 3 -14 -16
-26 -41z"/>
<path d="M1220 1955 c-6 -8 -9 -23 -5 -35 9 -27 22 -26 20 3 -3 31 4 40 21 26
8 -7 14 -7 14 -1 0 5 -7 13 -16 16 -21 8 -20 8 -34 -9z"/>
<path d="M1136 1845 c-9 -26 -7 -32 5 -12 6 10 9 21 6 23 -2 3 -7 -2 -11 -11z"/>
<path d="M1125 1730 c-3 -6 1 -7 9 -4 18 7 21 14 7 14 -6 0 -13 -4 -16 -10z"/>
<path d="M4330 2223 c-33 -45 -33 -46 -9 -40 13 4 30 7 36 7 7 0 12 10 12 23
-1 12 2 30 6 40 14 33 -12 16 -45 -30z"/>
<path d="M1534 2074 c-9 -21 -27 -63 -40 -93 -14 -29 -23 -55 -21 -57 2 -2 23
37 46 87 22 51 39 94 36 97 -2 3 -12 -12 -21 -34z"/>
<path d="M1437 1855 c-9 -19 -15 -35 -12 -35 7 0 37 61 33 66 -3 2 -12 -12
-21 -31z"/>
<path d="M1382 1735 c-17 -37 -14 -45 4 -12 9 16 14 31 11 33 -2 2 -9 -7 -15
-21z"/>
<path d="M4970 1909 c0 -5 5 -7 10 -4 6 3 10 8 10 11 0 2 -4 4 -10 4 -5 0 -10
-5 -10 -11z"/>
<path d="M4916 1841 c-4 -5 -2 -12 3 -15 5 -4 12 -2 15 3 4 5 2 12 -3 15 -5 4
-12 2 -15 -3z"/>
<path d="M930 1618 c-12 -22 -12 -22 6 -6 10 10 15 20 12 24 -4 3 -12 -5 -18
-18z"/>
<path d="M6137 1580 c3 -11 12 -20 19 -20 8 0 36 -11 62 -24 66 -33 129 -59
117 -47 -5 5 -54 32 -107 61 -82 43 -96 48 -91 30z"/>
<path d="M6565 1541 c-3 -5 -1 -12 5 -16 5 -3 10 1 10 9 0 18 -6 21 -15 7z"/>
<path d="M6540 1369 c0 -5 5 -7 10 -4 6 3 10 8 10 11 0 2 -4 4 -10 4 -5 0 -10
-5 -10 -11z"/>
<path d="M496 1616 c-49 -103 -76 -205 -83 -314 -7 -108 -5 -112 71 -112 42 0
47 2 40 18 -5 9 -9 64 -8 122 1 89 5 116 28 179 15 40 36 88 47 105 10 17 19
34 19 38 0 9 -54 38 -69 38 -6 0 -26 -33 -45 -74z"/>
<path d="M828 1197 c-7 -7 -21 -16 -31 -20 -14 -5 -16 -11 -8 -26 6 -10 7 -21
3 -25 -3 -4 1 -4 10 -1 8 3 22 -1 31 -9 22 -22 30 -20 21 7 -14 40 -12 72 5
79 14 6 14 7 -1 7 -9 1 -23 -5 -30 -12z"/>
<path d="M1420 971 c0 -5 9 -7 20 -4 11 3 20 7 20 9 0 2 -9 4 -20 4 -11 0 -20
-4 -20 -9z"/>
<path d="M615 820 l-37 -38 43 -47 c65 -71 148 -131 241 -175 104 -49 152 -59
163 -33 28 69 28 68 -47 97 -106 42 -182 90 -257 166 l-69 68 -37 -38z"/>
<path d="M1496 845 c4 -8 8 -15 10 -15 2 0 4 7 4 15 0 8 -4 15 -10 15 -5 0 -7
-7 -4 -15z"/>
<path d="M1550 840 c-8 -5 -12 -12 -9 -15 4 -3 12 1 19 10 14 17 11 19 -10 5z"/>
<path d="M1517 1629 c7 -7 15 -10 18 -7 3 3 -2 9 -12 12 -14 6 -15 5 -6 -5z"/>
<path d="M7152 1620 c-43 -10 -49 -17 -55 -63 -3 -21 -7 -39 -8 -40 -2 -1 -18
-7 -35 -13 -30 -11 -31 -10 -32 17 0 22 6 33 26 44 l27 14 -26 1 c-31 0 -54
-23 -45 -45 5 -13 2 -13 -19 1 -15 10 -34 14 -48 10 -24 -6 -52 -50 -42 -66 3
-5 1 -11 -5 -15 -6 -4 -8 -11 -4 -16 3 -5 2 -9 -3 -8 -4 1 -14 1 -22 0 -11 -1
-11 -4 0 -17 11 -14 10 -15 -7 -12 -15 2 -19 -3 -19 -27 0 -24 6 -33 33 -44
25 -12 32 -21 32 -43 0 -25 23 -74 41 -88 4 -3 8 -14 10 -25 2 -11 14 -24 27
-30 22 -10 29 -29 14 -39 -5 -3 -22 3 -39 14 -21 13 -34 32 -44 64 -15 50 -16
51 -54 34 -23 -10 -31 -27 -25 -53 1 -5 3 -23 3 -40 2 -24 6 -30 27 -30 19 0
29 -8 39 -33 21 -47 54 -52 94 -14 28 26 36 28 60 20 20 -7 32 -7 40 1 8 8 6
11 -9 11 -11 0 -27 6 -36 13 -14 10 -14 18 -4 59 15 56 1 88 -38 88 -13 0 -38
3 -55 6 -27 6 -31 10 -31 40 l0 34 60 0 60 0 0 -39 c0 -31 6 -44 30 -65 17
-14 30 -28 30 -31 -1 -3 0 -9 3 -13 2 -4 2 -1 1 6 -2 6 6 12 17 12 27 0 59 18
59 33 0 7 -12 13 -26 12 -30 0 -50 24 -41 49 4 11 18 16 43 16 24 0 34 4 31
13 -2 6 -9 11 -14 10 -5 -1 -9 12 -8 28 0 17 5 29 13 29 7 0 30 11 50 25 45
31 48 31 68 0 16 -24 15 -26 -9 -46 -22 -17 -25 -24 -17 -45 6 -14 10 -39 10
-56 0 -17 7 -36 17 -43 11 -8 14 -19 9 -31 -5 -14 -9 -15 -15 -5 -7 10 -10 10
-16 1 -4 -7 -2 -16 5 -20 8 -5 9 -10 2 -14 -6 -3 -27 5 -48 19 -61 41 -92 34
-118 -29 -20 -48 -20 -45 4 -39 11 3 20 9 20 13 0 4 14 10 30 14 18 3 34 14
38 27 7 18 10 19 21 6 10 -13 6 -20 -22 -41 -18 -14 -50 -32 -70 -41 -33 -13
-37 -19 -37 -50 0 -30 4 -36 33 -45 28 -8 28 -9 4 -6 -23 3 -25 1 -15 -12 11
-13 8 -14 -20 -8 -17 3 -46 9 -62 12 -17 3 -28 9 -25 14 3 4 -2 11 -11 14 -8
3 -12 2 -9 -4 11 -18 -17 -11 -64 16 l-46 25 30 -26 c96 -83 283 -115 299 -51
7 27 42 41 50 20 10 -27 45 -14 102 38 38 35 67 73 86 113 31 67 37 125 13
125 -21 0 -19 46 1 54 13 5 15 15 11 45 -11 81 -79 177 -158 220 -50 27 -49
25 4 -17 21 -17 38 -33 38 -36 -3 -25 0 -30 8 -17 6 9 11 10 15 2 4 -6 2 -11
-4 -11 -6 0 -8 -5 -5 -10 4 -6 10 -8 15 -5 5 3 12 0 16 -6 4 -8 3 -9 -4 -5
-21 12 -13 -12 8 -27 11 -8 17 -17 13 -20 -3 -4 -1 -7 5 -7 7 0 12 -7 12 -16
0 -13 -3 -14 -15 -4 -10 8 -30 10 -59 6 -48 -8 -59 3 -45 42 10 26 37 29 55 5
13 -16 13 -15 6 7 -12 33 -40 50 -52 30 -23 -37 -29 -44 -36 -38 -4 4 1 19 10
32 32 50 10 101 -42 95 -34 -3 -43 1 -52 26 -5 14 -13 25 -17 24 -5 -1 -23 -5
-41 -9z m-46 -145 c4 -15 13 -25 24 -25 28 0 51 -11 44 -21 -3 -5 -17 -6 -32
-2 -24 6 -26 5 -13 -11 18 -22 8 -32 -12 -11 -14 14 -17 13 -32 -7 -13 -20
-17 -21 -25 -8 -16 24 -30 84 -22 91 6 6 31 14 54 18 4 0 10 -10 14 -24z m-86
-53 c0 -4 -14 -13 -31 -19 -22 -9 -30 -17 -26 -28 5 -11 0 -15 -19 -15 -22 0
-23 2 -14 21 20 37 90 69 90 41z m372 -122 c-5 -33 -27 -31 -38 3 -4 14 -1 25
12 34 22 16 32 3 26 -37z m10 -126 c10 -7 -1 -33 -35 -81 -34 -48 -47 -54 -47
-21 0 12 -7 29 -16 39 -10 11 -13 23 -8 31 6 9 10 6 14 -11 3 -14 12 -27 20
-29 13 -5 13 -3 1 12 -12 14 -11 19 4 36 17 19 17 20 1 20 -10 0 -14 5 -11 11
6 9 57 4 77 -7z m-92 -114 c0 -22 -55 -56 -65 -40 -3 5 -13 6 -23 3 -9 -4 -3
5 13 19 28 23 50 35 68 37 4 1 7 -8 7 -19z m-180 -4 c0 -3 -4 -8 -10 -11 -5
-3 -10 -1 -10 4 0 6 5 11 10 11 6 0 10 -2 10 -4z"/>
<path d="M7045 1540 c-3 -5 -1 -10 4 -10 6 0 11 5 11 10 0 6 -2 10 -4 10 -3 0
-8 -4 -11 -10z"/>
<path d="M7250 1383 c-19 -18 -32 -35 -28 -38 8 -9 72 49 67 61 -2 5 -20 -5
-39 -23z"/>
<path d="M7230 1301 c0 -17 5 -31 10 -31 6 0 10 11 10 24 0 14 -4 28 -10 31
-6 4 -10 -7 -10 -24z"/>
<path d="M6822 1308 c-17 -17 -15 -48 3 -48 8 0 15 9 15 20 0 10 8 24 18 29
15 10 15 10 -3 11 -12 0 -26 -5 -33 -12z"/>
<path d="M7009 1296 c-2 -3 -16 -6 -31 -8 -46 -6 -45 -20 1 -16 25 2 46 9 49
16 3 11 -10 17 -19 8z"/>
<path d="M6860 1280 c0 -5 5 -10 11 -10 5 0 7 5 4 10 -3 6 -8 10 -11 10 -2 0
-4 -4 -4 -10z"/>
<path d="M7140 1274 c0 -8 5 -12 10 -9 6 4 8 11 5 16 -9 14 -15 11 -15 -7z"/>
<path d="M7196 1281 c-4 -7 -5 -15 -2 -18 9 -9 19 4 14 18 -4 11 -6 11 -12 0z"/>
<path d="M7070 1115 c-8 -9 -8 -15 -2 -15 12 0 26 19 19 26 -2 2 -10 -2 -17
-11z"/>
<path d="M7015 1054 c-17 -18 -16 -35 3 -42 7 -2 10 2 6 12 -4 10 0 18 10 22
17 7 22 24 7 24 -5 0 -17 -7 -26 -16z"/>
<path d="M7045 1020 c3 -5 8 -10 11 -10 2 0 4 5 4 10 0 6 -5 10 -11 10 -5 0
-7 -4 -4 -10z"/>
<path d="M5323 1463 c-7 -3 -13 -11 -13 -20 0 -12 2 -12 16 2 18 17 16 25 -3
18z"/>
<path d="M5280 1361 c-6 -16 -18 -32 -26 -35 -8 -3 -14 -13 -14 -22 0 -16 2
-16 20 1 17 15 50 69 50 82 0 1 -4 3 -9 3 -5 0 -14 -13 -21 -29z"/>
<path d="M5140 1338 c0 -12 3 -18 7 -14 11 10 12 36 2 36 -5 0 -9 -10 -9 -22z"/>
<path d="M5185 1280 c-3 -5 -1 -10 4 -10 6 0 11 5 11 10 0 6 -2 10 -4 10 -3 0
-8 -4 -11 -10z"/>
<path d="M5115 1250 c-3 -6 1 -7 9 -4 18 7 21 14 7 14 -6 0 -13 -4 -16 -10z"/>
<path d="M5235 1228 c-30 -16 -31 -18 -15 -28 18 -11 50 5 50 25 0 18 -8 18
-35 3z"/>
<path d="M5048 1213 c7 -3 16 -2 19 1 4 3 -2 6 -13 5 -11 0 -14 -3 -6 -6z"/>
<path d="M1185 1280 c10 -11 22 -20 27 -20 5 0 4 9 -2 20 -6 11 -18 20 -27 20
-14 0 -14 -2 2 -20z"/>
<path d="M1134 1239 c-10 -17 13 -36 27 -22 12 12 4 33 -11 33 -5 0 -12 -5
-16 -11z"/>
<path d="M2316 4954 c-72 -17 -88 -29 -84 -63 3 -24 7 -26 41 -23 36 3 166 44
169 53 1 2 -1 14 -4 27 -7 26 -33 28 -122 6z"/>
<path d="M2086 4511 c-3 -4 9 -25 28 -45 27 -31 34 -35 45 -23 9 12 6 21 -15
46 -25 31 -48 39 -58 22z"/>
<path d="M1869 4414 c-12 -14 -11 -16 5 -13 11 2 21 10 24 17 5 17 -13 15 -29
-4z"/>
<path d="M7197 4310 c-15 -16 -31 -30 -36 -30 -5 0 -7 -9 -4 -20 3 -11 10 -17
15 -14 5 3 7 12 4 20 -3 8 0 11 8 8 8 -3 23 7 35 22 39 50 20 62 -22 14z"/>
<path d="M7165 4320 c3 -5 8 -10 11 -10 2 0 4 5 4 10 0 6 -5 10 -11 10 -5 0
-7 -4 -4 -10z"/>
<path d="M2655 4242 c-3 -9 0 -19 7 -23 11 -7 24 8 27 32 2 13 -29 5 -34 -9z"/>
<path d="M3301 4069 c-18 -11 -31 -23 -28 -26 6 -5 67 34 67 43 0 6 -3 5 -39
-17z"/>
<path d="M7161 4041 c-14 -14 -22 -16 -30 -8 -8 8 -28 3 -71 -18 -33 -16 -60
-31 -60 -35 0 -3 16 -6 35 -6 21 0 43 -8 57 -21 40 -37 62 -33 107 18 l40 46
-23 22 c-27 26 -31 26 -55 2z m12 -43 c2 -7 2 -19 -1 -26 -3 -10 -9 -9 -23 4
-10 9 -16 21 -13 25 8 13 32 11 37 -3z"/>
<path d="M1602 3885 c-17 -37 -14 -45 4 -12 9 16 14 31 11 33 -2 2 -9 -7 -15
-21z"/>
<path d="M3890 3850 c-9 -6 -10 -10 -3 -10 6 0 15 5 18 10 8 12 4 12 -15 0z"/>
<path d="M1566 3806 c-9 -19 -16 -40 -15 -48 0 -7 9 7 20 31 23 52 19 67 -5
17z"/>
<path d="M1526 3724 c-4 -9 -4 -19 -1 -22 2 -3 7 3 11 12 4 9 4 19 1 22 -2 3
-7 -3 -11 -12z"/>
<path d="M7575 3610 c-19 -8 -19 -9 3 -9 12 -1 22 4 22 9 0 6 -1 10 -2 9 -2 0
-12 -4 -23 -9z"/>
<path d="M1496 3515 c-3 -9 -6 -22 -5 -28 0 -7 5 -1 10 12 5 13 8 26 5 28 -2
2 -6 -3 -10 -12z"/>
<path d="M1441 3318 c0 -9 -4 -25 -7 -35 -5 -17 -5 -17 6 0 6 10 9 25 7 35 -4
15 -5 15 -6 0z"/>
<path d="M6043 2652 c-72 -57 -80 -69 -60 -89 15 -15 18 -14 36 8 11 13 20 20
21 15 0 -5 -7 -18 -17 -28 -12 -13 -14 -23 -6 -39 8 -20 11 -18 42 30 44 68
52 58 12 -13 -21 -36 -28 -57 -21 -61 14 -9 10 -14 59 81 46 91 49 109 22 124
-29 15 -35 13 -88 -28z"/>
<path d="M5930 2545 c-7 -8 -8 -15 -2 -15 5 0 15 7 22 15 7 8 8 15 2 15 -5 0
-15 -7 -22 -15z"/>
<path d="M6191 2365 c-59 -83 -72 -114 -34 -84 16 13 17 12 5 -3 -8 -9 -12
-24 -10 -32 2 -8 31 27 67 80 72 108 77 139 6 40 -26 -36 -49 -66 -52 -66 -2
0 16 30 42 66 25 37 44 71 42 77 -1 5 -31 -29 -66 -78z"/>
<path d="M4420 760 c0 -11 48 -25 56 -17 3 2 -9 9 -25 15 -18 7 -31 7 -31 2z"/>
</g>
</svg>
