<?xml version="1.0" standalone="no"?>
<!DOCTYPE svg PUBLIC "-//W3C//DTD SVG 20010904//EN"
 "http://www.w3.org/TR/2001/REC-SVG-20010904/DTD/svg10.dtd">
<svg version="1.0" xmlns="http://www.w3.org/2000/svg"
 width="773.000000pt" height="571.000000pt" viewBox="0 0 773.000000 571.000000"
 preserveAspectRatio="xMidYMid meet">

<g transform="translate(0.000000,571.000000) scale(0.100000,-0.100000)"
fill="#000000" stroke="none">
<path d="M4831 5556 c-6 -7 -18 -33 -25 -57 -8 -24 -22 -64 -31 -89 -25 -65
-26 -217 -2 -253 21 -32 31 -33 57 -7 13 13 22 16 26 8 10 -16 5 -405 -5 -451
-11 -48 -16 -52 -52 -52 -27 0 -28 1 -12 14 16 12 16 12 -6 6 -23 -7 -80 -62
-81 -79 0 -5 11 3 25 18 30 32 72 34 109 5 27 -21 35 -47 14 -46 -34 1 -47 -4
-42 -16 5 -14 -59 -42 -74 -33 -5 3 -9 -9 -9 -26 0 -21 -8 -38 -23 -50 l-24
-19 27 6 c29 8 35 -3 15 -24 -11 -10 -8 -16 11 -32 32 -26 102 -26 119 1 15
24 52 27 52 4 0 -8 4 -13 9 -10 13 9 63 -12 84 -35 10 -10 14 -19 10 -19 -4 0
-3 -4 3 -8 7 -4 26 -36 42 -70 17 -35 25 -59 17 -52 -10 8 -19 8 -34 0 -26
-13 -26 -9 5 -104 19 -55 23 -81 15 -84 -14 -5 -14 -49 1 -58 8 -5 9 0 6 14
-8 28 8 38 21 14 7 -14 5 -21 -10 -30 -10 -7 -19 -18 -19 -26 0 -7 -9 -21 -20
-31 -11 -10 -20 -26 -20 -37 0 -21 4 -22 29 -8 14 7 23 5 36 -10 21 -23 13
-50 -14 -50 -40 0 -67 19 -106 74 -58 82 -85 91 -188 65 l-80 -20 -48 20 c-26
12 -55 21 -63 21 -9 0 -16 4 -16 9 0 5 -20 17 -44 26 -41 16 -45 16 -77 -1
-41 -21 -117 -22 -191 -1 -71 20 -217 40 -248 34 -17 -3 -12 -5 16 -6 81 -2
434 -95 434 -113 0 -14 -42 -25 -150 -42 -99 -14 -137 -13 -110 4 23 14 -117
23 -164 11 -24 -6 -59 -8 -78 -5 -36 7 -108 43 -108 55 0 11 71 63 105 77 l30
12 -38 -5 c-96 -15 -319 -93 -536 -190 -47 -21 -102 -40 -123 -42 -21 -3 -35
-9 -32 -14 3 -5 1 -9 -5 -9 -27 0 -81 -49 -100 -91 -12 -25 -21 -51 -21 -57 0
-6 -9 -16 -21 -22 l-20 -11 22 -20 c12 -10 42 -34 65 -52 24 -17 44 -35 44
-38 0 -4 -22 -9 -49 -13 -27 -4 -75 -15 -108 -27 -32 -11 -68 -20 -80 -21 -12
-1 -20 -5 -18 -8 2 -3 -21 -11 -52 -18 -41 -8 -60 -9 -70 -1 -9 8 -13 8 -13 0
0 -6 -7 -11 -15 -11 -8 0 -15 -3 -15 -7 0 -5 -43 -9 -94 -10 l-95 -1 -4 31
c-4 31 -4 31 -5 -5 -3 -53 -22 -58 -23 -6 l-2 43 -6 -35 -6 -35 -79 3 c-57 3
-81 0 -87 -10 -6 -9 -9 -5 -9 12 l-1 25 -14 -25 c-13 -25 -13 -25 -18 15 l-4
40 -1 -40 c-2 -24 -5 -35 -10 -28 -5 8 -42 16 -88 19 -43 4 -83 10 -89 14 -5
4 -19 4 -29 0 -11 -3 -31 -1 -45 6 -14 7 -48 18 -76 25 -67 15 -78 22 -86 50
-6 22 -7 22 -15 -11 -6 -29 -8 -31 -15 -15 -6 16 -8 17 -8 3 -1 -15 -4 -15
-38 2 -21 10 -56 20 -79 22 -52 6 -64 14 -65 41 -1 18 -3 16 -11 -8 -5 -16
-10 -35 -10 -42 -2 -16 -15 -7 -51 34 -30 34 -52 39 -26 6 13 -17 13 -17 -6
-3 -11 8 -22 17 -25 20 -28 30 -60 38 -138 33 -69 -3 -81 -2 -76 11 3 8 13 17
22 19 10 3 -2 3 -25 1 -32 -3 -41 0 -37 10 3 9 -5 16 -22 20 -34 9 -44 -1 -13
-13 l24 -10 -27 0 c-19 -1 -28 4 -28 14 0 23 -88 21 -97 -2 -7 -18 -63 -76
-63 -66 0 3 -6 0 -14 -6 -11 -9 -15 -9 -19 1 -4 8 -6 7 -6 -4 -1 -21 -5 -22
-32 -8 -10 6 -19 9 -19 6 0 -6 228 -151 275 -174 22 -11 72 -23 110 -27 39 -3
111 -13 160 -20 85 -14 404 -50 669 -76 65 -6 151 -9 191 -5 105 10 186 -7
400 -81 105 -36 208 -70 230 -75 89 -23 103 -36 91 -83 -8 -33 -48 -42 -89
-22 -82 42 -528 185 -622 201 -55 9 -129 26 -165 37 -43 14 -124 26 -235 34
-93 8 -206 17 -250 21 -44 4 -78 4 -75 1 6 -5 261 -33 395 -42 50 -3 128 -17
175 -30 71 -20 242 -55 271 -55 23 0 39 -35 39 -84 0 -29 6 -60 13 -69 12 -16
106 -57 132 -57 9 0 29 23 46 50 35 57 48 60 122 32 74 -28 73 -27 47 -147
l-23 -105 29 -26 c28 -26 14 -24 -16 2 -12 10 -20 10 -38 0 l-23 -12 25 -13
c14 -8 27 -20 30 -28 7 -18 -22 -2 -48 26 -22 24 -27 25 -78 10 -21 -5 -38
-16 -38 -24 0 -21 -17 -27 -40 -15 -26 14 -45 4 -30 -16 7 -7 15 -13 18 -12
12 3 122 -63 122 -73 0 -16 -14 -10 -67 31 -31 23 -55 35 -59 29 -4 -6 -15 -2
-30 12 -13 12 -21 26 -18 30 3 5 -11 9 -30 9 -19 0 -38 -5 -41 -10 -3 -6 -1
-10 4 -10 6 0 11 -7 11 -15 0 -8 21 -30 48 -50 26 -20 64 -52 85 -71 20 -19
37 -30 37 -25 0 6 -9 15 -21 21 -11 7 -19 14 -16 16 2 3 20 -4 38 -15 21 -13
39 -17 48 -12 9 6 10 11 2 15 -22 14 1 27 36 20 32 -6 35 -5 30 10 -4 10 -7
27 -7 39 -1 14 -17 34 -46 55 -25 19 -43 36 -40 39 8 8 78 -42 94 -67 7 -11
23 -20 37 -20 22 0 25 3 19 25 -6 24 -5 26 21 19 26 -6 27 -5 21 19 -5 21 -3
24 13 20 21 -5 37 12 21 22 -19 12 -10 26 11 20 30 -10 39 10 32 69 -5 36 -3
47 5 42 20 -12 13 -103 -18 -265 -16 -85 -31 -154 -32 -155 -2 0 -20 -10 -41
-20 l-38 -20 -52 50 c-28 27 -53 52 -55 57 -7 14 -22 7 -21 -10 0 -10 36 -49
79 -88 44 -38 82 -76 85 -83 3 -8 -1 -26 -8 -40 -13 -29 -61 -42 -80 -23 -13
13 -37 15 -37 3 0 -4 12 -15 28 -25 15 -9 40 -28 55 -42 l28 -25 -23 -29 c-14
-16 -30 -42 -37 -59 -12 -28 -17 -30 -45 -25 -60 10 -179 58 -183 73 -2 9 -24
26 -48 39 -23 12 -55 36 -70 51 -24 25 -26 32 -15 45 7 8 18 15 24 15 18 0 86
74 86 93 0 15 3 16 21 6 16 -8 24 -8 33 1 8 9 5 16 -13 31 -22 18 -24 18 -37
2 -12 -17 -13 -17 -8 2 7 27 -15 67 -54 100 -27 22 -35 25 -47 15 -14 -11 -14
-15 0 -30 14 -15 13 -18 -4 -34 -15 -13 -24 -15 -38 -7 -50 28 -50 28 -13 66
18 19 30 35 26 35 -5 0 -3 7 4 16 11 12 10 18 -6 35 -17 17 -22 17 -39 6 -22
-17 -14 -44 17 -57 16 -6 18 -9 6 -9 -9 -1 -56 -44 -104 -96 -51 -55 -104
-103 -128 -114 -22 -11 -117 -34 -209 -50 -93 -16 -175 -35 -183 -41 -12 -10
-6 -21 36 -67 28 -30 50 -58 50 -61 -1 -4 -40 -33 -88 -65 l-87 -59 -20 29
c-26 37 -95 107 -118 120 -10 5 -24 26 -31 47 l-13 38 -27 -46 c-14 -25 -35
-66 -46 -91 -11 -25 -24 -45 -29 -45 -16 0 -9 43 10 65 9 11 24 34 33 51 13
27 13 34 2 43 -11 9 -20 -3 -44 -58 -32 -70 -52 -96 -52 -66 0 12 -5 15 -16
11 -9 -4 -22 0 -28 8 -6 8 -29 16 -50 18 -22 2 -41 9 -44 16 -2 7 2 10 12 6
10 -4 16 -1 16 9 0 8 7 14 16 13 25 -2 43 32 24 45 -12 9 -12 10 3 5 10 -3 28
-6 40 -7 20 -1 20 -2 -3 -9 -15 -5 -18 -8 -8 -9 9 -1 19 -9 21 -18 4 -17 5
-17 6 0 1 17 2 17 17 3 8 -9 12 -22 8 -28 -5 -9 -4 -10 4 -3 6 6 22 32 36 58
17 35 20 47 9 43 -8 -3 -19 -6 -25 -6 -6 0 -8 -6 -5 -14 5 -11 -2 -11 -41 1
-50 15 -194 20 -232 8 -12 -4 -25 -3 -29 2 -3 5 -18 16 -32 25 l-26 17 7 -37
c5 -20 23 -82 41 -137 l34 -100 51 -3 c49 -3 52 -5 58 -34 7 -34 -17 -74 -32
-53 -6 10 -18 11 -39 6 -5 -2 1 -6 11 -10 16 -6 13 -10 -20 -25 -21 -9 -52
-24 -68 -33 -26 -14 -29 -14 -38 1 -5 9 -23 30 -39 47 -24 24 -33 28 -44 19
-19 -16 -70 57 -53 77 16 20 26 16 50 -22 26 -40 34 -42 66 -16 18 16 20 24
13 43 -5 13 -19 64 -31 113 -13 50 -24 92 -26 94 -2 2 -17 -11 -35 -28 -17
-18 -32 -31 -34 -29 -1 2 -29 42 -63 90 l-61 87 27 17 c30 20 102 36 102 23 0
-5 5 -9 11 -9 6 0 9 6 6 13 -6 16 48 22 58 7 10 -16 25 -11 25 8 0 10 11 29
25 42 23 21 36 24 142 28 183 7 303 -24 303 -78 0 -14 7 -18 27 -17 19 1 30
-5 38 -19 9 -19 13 -20 30 -8 10 8 17 15 14 17 -7 6 -174 131 -179 135 -2 1 1
11 7 21 11 18 4 20 -105 31 -226 25 -422 -24 -619 -153 l-52 -34 24 -33 c13
-18 26 -38 28 -43 2 -7 13 -4 27 6 14 9 27 17 30 17 4 0 33 -38 65 -85 l58
-85 -24 -19 c-13 -11 -27 -20 -31 -21 -8 0 -80 101 -200 282 -102 154 -128
199 -128 219 0 7 27 -32 60 -87 91 -151 77 -143 153 -89 164 115 415 174 608
145 46 -7 95 -14 109 -14 30 -2 56 -13 185 -77 108 -55 142 -76 133 -84 -3 -3
-27 7 -54 23 -27 15 -57 31 -66 35 -33 12 -18 -2 32 -30 30 -17 50 -35 50 -45
0 -10 5 -18 10 -18 6 0 10 5 10 10 0 6 6 10 13 10 6 0 39 13 72 28 46 22 79
50 144 121 46 50 82 93 80 95 -103 83 -243 159 -369 202 -171 57 -422 68 -629
29 -108 -21 -297 -78 -363 -110 -43 -21 -57 -23 -86 -15 -42 11 -52 6 -52 -24
0 -12 -5 -27 -12 -34 -15 -15 -38 -16 -38 -2 0 6 7 10 15 10 17 0 19 9 5 30
-15 23 -45 -1 -43 -35 1 -20 -1 -24 -10 -16 -8 6 -18 6 -27 1 -8 -5 -18 -6
-23 -3 -4 2 -64 6 -133 7 -148 2 -144 5 -144 -107 0 -84 7 -92 66 -81 27 5 34
3 34 -10 0 -12 -10 -16 -43 -16 -65 0 -97 -18 -97 -56 0 -42 23 -60 58 -48 15
5 27 16 27 24 0 8 9 20 20 27 11 7 14 12 8 13 -25 0 -12 28 16 33 16 3 36 14
46 23 17 17 17 18 -1 24 -11 4 -14 9 -7 13 17 11 42 -3 36 -19 -4 -10 0 -12
11 -8 10 4 -6 -24 -34 -61 -87 -114 -185 -326 -223 -480 -31 -124 -31 -116 0
-105 l28 10 -30 -26 -30 -26 38 22 c21 12 39 21 41 19 9 -11 14 -149 5 -155
-11 -6 -3 -41 15 -64 18 -22 17 -58 -1 -62 -12 -2 -12 -7 6 -29 11 -15 17 -29
13 -33 -3 -4 0 -11 8 -17 12 -7 12 -11 2 -17 -9 -6 -6 -14 13 -32 14 -13 24
-29 21 -35 -2 -6 4 -28 14 -48 22 -44 18 -47 -15 -10 -15 18 -24 23 -25 14 0
-8 22 -36 49 -62 56 -54 76 -85 61 -94 -5 -3 -22 2 -37 11 -20 12 -14 3 17
-27 51 -50 91 -122 62 -112 -14 5 -14 3 2 -15 11 -12 25 -22 33 -22 7 0 13 -7
13 -15 0 -8 6 -15 13 -15 9 0 9 -2 -1 -8 -16 -11 138 -165 223 -223 144 -98
322 -169 481 -190 141 -18 359 -7 469 25 123 36 298 124 368 187 31 28 61 48
66 45 5 -3 21 14 35 38 16 27 32 43 43 42 10 0 19 7 21 19 2 11 16 30 31 42
14 12 20 22 14 23 -7 0 -13 4 -13 9 0 5 10 7 22 3 14 -3 19 -1 14 6 -4 7 6 24
22 40 16 16 35 45 41 64 7 20 23 47 35 61 13 14 34 57 46 96 11 38 28 75 36
82 8 7 14 29 14 55 0 23 4 45 9 48 10 6 21 88 30 211 l6 90 66 8 c75 9 178 -4
144 -18 -27 -11 -35 -24 -35 -57 0 -18 8 -33 25 -44 23 -15 27 -15 60 6 47 29
44 70 -8 97 -21 11 -8 21 133 105 41 25 131 80 200 123 260 162 283 176 287
172 2 -2 -3 -9 -11 -16 -18 -15 -9 -49 16 -57 13 -4 27 1 40 14 17 16 18 23 8
43 -11 23 -10 23 4 5 30 -37 15 -63 -54 -91 -25 -10 -53 -26 -62 -34 -22 -20
-68 -111 -57 -111 5 0 9 -20 9 -44 0 -38 5 -49 45 -89 49 -50 55 -75 27 -100
-25 -23 -31 -22 -117 20 l-75 37 -82 -13 c-46 -7 -118 -19 -160 -26 -65 -10
-85 -18 -123 -49 -25 -21 -49 -46 -55 -56 -16 -30 -1 -80 29 -93 14 -6 29 -16
32 -20 4 -5 31 -11 62 -12 30 -2 93 -16 139 -31 l83 -27 594 -4 c400 -3 614
-1 656 6 80 14 429 120 433 132 2 5 13 9 23 9 11 0 36 16 56 35 l35 34 11 198
c6 109 7 210 4 223 -4 14 -27 39 -52 56 l-46 31 32 34 c17 19 59 81 93 139
l62 105 126 45 c70 25 131 50 137 55 16 17 33 117 21 129 -15 15 -12 26 7 26
14 0 14 2 -3 21 -18 20 -18 22 -1 34 19 14 23 45 5 45 -9 0 -9 3 -1 11 6 6 9
18 6 25 -3 8 1 14 11 14 20 0 20 7 -1 28 -16 16 -16 17 0 20 19 4 22 18 7 27
-15 9 -12 25 5 25 18 0 19 12 3 29 -11 10 -10 15 4 25 12 9 14 16 7 23 -7 7
-8 17 -3 25 13 21 13 157 -1 168 -6 5 -10 23 -7 40 4 26 8 30 37 30 18 0 48 6
66 14 35 14 59 12 59 -5 0 -5 -14 -9 -30 -9 -17 0 -43 -8 -58 -17 -15 -9 -28
-17 -28 -17 -1 -1 -5 -11 -8 -23 -6 -18 -4 -22 8 -17 16 6 21 -8 17 -47 -3
-26 27 -45 47 -31 10 7 29 17 45 23 32 13 31 11 11 50 -17 33 -10 54 9 28 7
-9 25 -19 40 -23 24 -6 28 -4 23 11 -21 69 -46 273 -34 273 3 0 11 -35 17 -77
6 -43 20 -111 30 -150 16 -68 17 -74 1 -85 -15 -12 -15 -19 -4 -63 7 -27 13
-44 13 -37 1 6 6 12 12 12 6 0 9 -10 7 -22 -2 -17 -9 -22 -25 -20 -24 3 -28
-4 -17 -32 5 -13 9 -14 21 -5 11 10 15 8 20 -9 l5 -21 18 22 c16 19 17 24 4
38 -8 8 -14 25 -14 37 0 12 -5 22 -11 22 -19 0 9 27 56 54 l44 24 17 -26 c25
-38 214 -413 214 -425 0 -5 -7 -4 -15 3 -12 10 -26 4 -82 -39 -112 -85 -133
-104 -133 -118 0 -7 -7 -13 -16 -13 -8 0 -13 -4 -10 -9 3 -5 -19 -32 -50 -61
l-55 -53 31 -63 c17 -35 51 -88 76 -119 25 -30 43 -59 40 -63 -2 -4 0 -14 6
-22 8 -12 8 -11 3 5 -6 19 -5 19 12 2 17 -16 19 -15 55 25 40 45 40 27 1 -31
-27 -40 -28 -45 -7 -61 19 -17 37 -50 27 -50 -4 0 -16 14 -26 31 -22 40 -34
31 -13 -10 19 -35 19 -41 6 -41 -5 0 -9 3 -9 8 4 18 -24 71 -34 65 -6 -3 -7
-1 -3 5 4 7 2 12 -3 12 -6 0 -11 6 -11 14 0 8 -4 16 -8 18 -20 8 -142 214
-142 240 0 7 -7 27 -16 43 -9 17 -18 63 -21 103 -4 45 -9 68 -14 60 -14 -22
-10 -75 12 -140 l20 -63 -46 -85 c-98 -181 -137 -296 -150 -448 -8 -89 -1
-101 34 -55 l20 28 1 -130 c0 -72 4 -135 9 -140 5 -6 16 -37 26 -70 9 -33 21
-72 25 -87 5 -17 5 -30 -1 -34 -5 -3 2 -15 16 -26 14 -11 23 -23 20 -28 -8
-12 6 -41 16 -34 5 3 9 -1 9 -9 0 -8 8 -21 17 -28 15 -12 16 -12 10 4 -4 10
-7 22 -7 27 0 5 -9 12 -20 15 -11 3 -20 10 -20 15 0 5 10 5 23 -1 23 -11 73
-99 56 -99 -5 0 -12 6 -15 14 -3 8 -11 13 -18 10 -7 -3 -19 2 -26 11 -7 8 -17
15 -23 15 -18 0 46 -61 82 -78 19 -10 42 -30 52 -47 23 -39 23 -52 2 -33 -10
8 -26 18 -35 21 -26 9 -12 -18 18 -33 13 -7 24 -17 24 -21 0 -5 6 -6 14 -3 7
3 31 -13 54 -38 23 -24 37 -45 31 -47 -5 -1 -26 14 -45 35 -33 37 -38 29 -6
-8 19 -22 4 -23 -26 -2 -13 9 -26 14 -28 11 -8 -7 67 -57 86 -57 8 0 30 -19
49 -43 27 -32 29 -36 8 -18 -15 14 -27 20 -27 15 1 -13 36 -54 48 -54 5 0 17
-10 28 -21 28 -31 160 -119 227 -151 32 -15 106 -42 165 -60 106 -33 109 -33
307 -32 189 0 205 2 290 28 317 97 566 303 704 583 78 159 127 396 103 500 -6
26 -6 43 0 45 5 2 3 19 -5 38 -20 49 -28 100 -17 100 17 0 11 15 -20 47 -17
17 -37 50 -45 74 -9 24 -12 39 -7 34 5 -6 15 -27 22 -48 6 -20 16 -37 21 -37
11 0 11 3 -1 34 -8 22 -7 26 7 26 14 0 12 5 -8 28 -29 31 -63 102 -50 102 5 0
11 -6 14 -12 2 -7 8 -10 12 -6 9 9 -61 73 -80 73 -16 0 -69 74 -60 83 3 4 10
0 15 -8 6 -8 10 -11 10 -7 0 4 10 3 23 -3 15 -7 10 0 -14 22 -19 18 -48 50
-63 72 -26 35 -27 37 -6 26 12 -6 24 -9 27 -6 6 6 -57 46 -74 46 -7 0 -10 7
-7 15 4 8 1 15 -4 15 -15 0 -59 45 -55 56 2 5 -5 14 -16 19 -10 6 -55 38 -98
72 -44 34 -106 76 -137 93 -63 33 -198 83 -261 94 -51 10 -31 21 49 29 84 8
89 21 14 40 -160 40 -350 47 -511 17 -114 -20 -237 -60 -237 -75 0 -22 51
-140 65 -151 8 -6 31 -46 51 -90 20 -43 40 -86 45 -95 6 -11 4 -21 -6 -29 -13
-10 -22 3 -60 84 -24 53 -46 96 -49 96 -2 0 -20 -7 -39 -15 -24 -10 -35 -20
-31 -29 3 -8 12 -12 19 -10 14 6 41 -33 37 -53 -2 -7 2 -13 7 -13 11 0 26 -38
23 -56 -1 -7 4 -14 13 -18 24 -9 17 -23 -17 -35 -17 -6 -32 -10 -33 -9 0 2 -8
14 -16 28 -25 40 -70 160 -64 169 3 5 2 11 -3 13 -4 1 -20 32 -36 68 -42 95
-203 416 -232 461 -30 48 -30 53 2 68 30 14 41 4 70 -64 9 -22 58 -125 109
-230 50 -104 100 -211 111 -237 20 -50 33 -58 53 -34 10 11 3 32 -30 98 -72
143 -229 480 -229 492 0 6 9 17 21 24 16 10 19 19 14 43 -5 24 -2 36 15 54 40
43 38 140 -3 148 -21 4 -21 4 2 6 l24 1 -6 155 c-3 86 -9 160 -13 166 -4 7
-13 4 -25 -7 -11 -9 -22 -15 -25 -11 -8 8 -23 78 -24 110 0 24 3 27 35 27 30
0 35 3 35 24 0 24 -1 24 -75 19 -78 -6 -100 5 -43 22 17 6 33 16 36 23 5 17
-23 15 -38 -3 -7 -8 -20 -15 -29 -15 -10 0 -35 -13 -57 -30 -49 -37 -69 -38
-82 -2 -5 15 -13 34 -16 43 -5 12 1 20 23 28 40 17 45 37 20 72 -13 18 -18 36
-14 49 13 39 8 79 -13 105 l-21 27 39 56 c21 32 48 68 59 82 11 14 21 31 21
39 0 15 4 17 -80 -46 -41 -31 -78 -44 -65 -23 4 6 -8 10 -28 10 -27 0 -40 7
-58 30 -13 16 -26 30 -29 30 -3 0 -20 -9 -38 -20 l-33 -20 39 -58 c22 -31 49
-76 60 -98 12 -23 28 -44 36 -47 9 -4 15 -17 15 -29 -1 -13 3 -35 9 -50 7 -17
8 -30 2 -33 -5 -3 -12 5 -16 19 -3 14 -11 23 -19 20 -7 -3 -22 11 -34 31 -25
43 -25 43 -6 47 12 2 8 16 -21 64 -20 34 -46 73 -58 88 l-21 28 -26 -21 -26
-20 -23 24 c-13 14 -40 30 -61 35 -26 7 -44 21 -60 48 -33 51 -34 56 -15 49
13 -5 13 -2 -4 21 -11 15 -24 42 -29 60 l-10 33 37 -6 c37 -5 37 -5 7 6 -16 7
-37 18 -46 25 -8 8 -27 14 -42 14 -22 0 -27 6 -33 35 -3 19 -12 35 -19 35 -7
0 -15 17 -17 38 -9 65 -8 395 0 401 19 13 37 68 34 104 -2 20 -6 35 -10 33 -4
-2 -6 31 -4 74 4 89 -21 249 -40 261 -19 12 -34 11 -47 -5z m79 -353 c0 -5 -5
-15 -10 -23 -8 -12 -10 -11 -10 8 0 12 5 22 10 22 6 0 10 -3 10 -7z m104 -728
c3 -8 2 -15 -3 -15 -5 0 -14 7 -21 15 -10 12 -10 15 3 15 8 0 17 -7 21 -15z
m-114 -35 c0 -5 -5 -10 -11 -10 -5 0 -7 5 -4 10 3 6 8 10 11 10 2 0 4 -4 4
-10z m44 -16 c4 -9 5 -19 3 -21 -8 -8 -37 10 -37 23 0 19 26 18 34 -2z m56 12
c0 -11 -19 -15 -25 -6 -3 5 1 10 9 10 9 0 16 -2 16 -4z m174 -142 c5 -14 4
-15 -9 -4 -17 14 -19 20 -6 20 5 0 12 -7 15 -16z m-24 -24 c8 -5 11 -12 7 -16
-4 -4 -15 0 -24 9 -18 18 -8 23 17 7z m97 -120 c18 -25 38 -53 45 -62 7 -10
19 -17 27 -15 9 1 14 -8 15 -25 1 -20 -5 -30 -24 -38 l-25 -12 20 22 20 23
-25 -8 c-14 -4 -31 -10 -39 -13 -9 -3 -12 -1 -7 6 4 7 2 12 -3 12 -6 0 -11 -6
-11 -13 0 -7 -28 -25 -61 -40 -65 -30 -93 -30 -40 0 57 32 65 39 57 58 -6 16
-8 17 -24 1 -23 -20 -42 -21 -42 -2 0 7 14 16 31 20 22 4 30 10 25 21 -8 21 3
19 23 -6 15 -19 20 -20 39 -8 12 8 22 18 22 23 0 5 -8 2 -18 -7 -17 -16 -20
-13 -49 49 -30 63 -31 65 -10 62 12 -2 36 -23 54 -48z m216 -70 c-3 -12 -8
-19 -11 -16 -5 6 5 36 12 36 2 0 2 -9 -1 -20z m-88 -40 c9 -16 13 -30 11 -30
-3 0 -12 14 -21 30 -9 17 -13 30 -11 30 3 0 12 -13 21 -30z m21 -86 c14 -33
14 -39 1 -52 -13 -13 -17 -11 -31 16 -24 46 -21 63 12 71 2 1 10 -15 18 -35z
m-232 -11 c4 -9 1 -21 -5 -27 -9 -8 -10 -6 -5 8 5 14 2 17 -9 12 -15 -5 -21 5
-8 17 11 11 21 8 27 -10z m301 7 c3 -5 1 -10 -4 -10 -6 0 -11 5 -11 10 0 6 2
10 4 10 3 0 8 -4 11 -10z m-156 -30 c16 -36 10 -55 -18 -63 -17 -4 -25 2 -37
26 -16 29 -15 31 7 48 31 24 32 24 48 -11z m-224 -21 c-6 -16 -9 -18 -16 -8
-4 8 -3 19 3 26 15 18 21 9 13 -18z m-320 -29 c-3 -5 -10 -10 -16 -10 -5 0 -9
5 -9 10 0 6 7 10 16 10 8 0 12 -4 9 -10z m-250 -10 c19 -8 19 -9 -4 -9 -13 -1
-40 -14 -60 -30 -57 -44 -75 -51 -109 -42 -17 5 -50 7 -74 5 -32 -3 -24 1 32
16 41 10 87 19 101 20 14 0 36 11 49 25 25 27 33 29 65 15z m107 -56 c4 -3 -1
-18 -10 -34 -12 -21 -22 -27 -42 -25 -14 2 -37 4 -52 4 -34 1 -36 16 -5 32 18
11 36 16 98 28 3 0 8 -2 11 -5z m47 -27 c8 -11 5 -17 -15 -26 -32 -14 -39 -9
-24 18 12 24 23 26 39 8z m591 -17 c0 -5 -4 -10 -10 -10 -5 0 -10 5 -10 10 0
6 5 10 10 10 6 0 10 -4 10 -10z m257 -40 c58 -28 63 -33 52 -48 -7 -9 -14 -19
-16 -21 -1 -2 -101 50 -121 64 -4 3 10 35 16 35 3 0 34 -14 69 -30z m-1107
-15 c0 -5 -5 -3 -10 5 -5 8 -10 20 -10 25 0 6 5 3 10 -5 5 -8 10 -19 10 -25z
m-54 -22 c-3 -3 -11 -1 -18 4 -7 6 -24 14 -38 17 -18 5 -15 1 13 -15 20 -13
37 -26 37 -30 0 -13 -29 -18 -36 -7 -4 7 -3 8 4 4 7 -4 12 -2 12 3 0 6 -16 18
-36 26 -30 12 -34 17 -24 30 10 13 17 12 52 -6 22 -11 37 -23 34 -26z m-66
-13 c8 -5 11 -10 5 -10 -5 0 -17 5 -25 10 -8 5 -10 10 -5 10 6 0 17 -5 25 -10z
m101 -9 c-8 -5 -11 -16 -7 -26 5 -15 4 -16 -9 -5 -12 10 -13 16 -4 26 6 8 17
14 23 14 6 0 5 -4 -3 -9z m50 -43 c-9 -9 -12 -9 -7 -1 3 6 2 14 -4 18 -5 3
-10 11 -10 18 0 6 7 4 17 -6 14 -14 15 -19 4 -29z m1061 -98 c37 -74 79 -166
94 -205 15 -38 34 -78 42 -88 18 -21 15 -25 -26 -33 -22 -4 -32 -3 -32 5 0 12
-45 112 -151 340 -27 57 -46 107 -43 113 3 5 16 8 27 6 17 -2 37 -33 89 -138z
m-976 85 c17 -13 16 -13 -14 -2 -27 10 -34 9 -42 -3 -5 -8 -10 -10 -10 -4 0
27 35 32 66 9z m37 -43 c-10 -10 -20 -17 -22 -16 -6 5 20 34 30 34 5 0 1 -8
-8 -18z m56 -39 c-6 -7 -16 -13 -21 -13 -6 0 -5 7 2 15 10 12 10 18 -1 33 -11
14 -10 14 9 -2 17 -15 19 -22 11 -33z m1028 -144 c13 -19 23 -43 23 -54 0 -18
-1 -18 -16 4 -19 27 -84 158 -84 169 0 4 13 -14 28 -39 15 -26 37 -62 49 -80z
m-384 67 c6 -14 -2 -24 -30 -40 -7 -4 -17 2 -23 14 -9 17 -7 22 12 30 32 12
35 12 41 -4z m-1237 -140 c-16 -8 -25 -15 -20 -18 5 -3 4 -3 -3 -2 -7 2 -15
-2 -19 -8 -5 -7 -3 -8 5 -4 8 6 11 2 9 -10 -3 -16 3 -19 41 -17 24 1 42 1 40
-1 -8 -7 -478 -186 -486 -185 -4 0 6 7 22 14 17 8 24 14 16 15 -11 0 -11 3 -1
15 9 10 9 15 1 15 -13 0 -10 21 4 33 6 5 2 6 -8 3 -10 -3 -24 -6 -30 -6 -9 0
-8 -3 0 -8 8 -5 -1 -8 -22 -8 -19 0 -35 1 -35 2 0 5 235 94 355 135 137 46
189 60 131 35z m1308 -22 c25 -25 19 -41 -24 -58 -22 -9 -45 -16 -50 -16 -21
0 -9 45 18 67 33 27 36 27 56 7z m-769 -70 c102 -53 206 -109 313 -171 24 -14
41 -27 38 -30 -2 -3 -71 32 -152 77 -89 49 -149 78 -153 71 -4 -6 -37 5 -86
31 -109 57 -140 56 -319 -10 -77 -28 -141 -50 -143 -48 -2 2 9 8 24 14 229 85
282 102 312 102 20 0 69 -17 117 -40 111 -54 120 -50 14 5 -64 33 -97 44 -132
44 -50 1 -154 -31 -362 -113 -65 -26 -121 -45 -123 -42 -5 4 210 91 357 143
123 44 151 41 295 -33z m1150 37 c0 -23 -22 -24 -28 -1 -4 16 -1 20 11 18 9
-2 17 -10 17 -17z m-2902 -118 c-7 -2 -19 -2 -25 0 -7 3 -2 5 12 5 14 0 19 -2
13 -5z m1687 -3 c0 -5 -7 -10 -16 -10 -8 0 -12 5 -9 10 3 6 10 10 16 10 5 0 9
-4 9 -10z m-460 -10 c-8 -5 -19 -10 -25 -10 -5 0 -3 5 5 10 8 5 20 10 25 10 6
0 3 -5 -5 -10z m588 -20 c17 -11 32 -22 32 -25 0 -3 -11 2 -24 10 -29 19 -104
22 -137 5 -13 -7 -35 -22 -48 -34 -24 -21 -24 -21 -13 0 31 60 127 82 190 44z
m-638 0 c-8 -5 -19 -10 -25 -10 -5 0 -3 5 5 10 8 5 20 10 25 10 6 0 3 -5 -5
-10z m-100 -10 c-8 -5 -19 -10 -25 -10 -5 0 -3 5 5 10 8 5 20 10 25 10 6 0 3
-5 -5 -10z m50 -10 c-8 -5 -19 -10 -25 -10 -5 0 -3 5 5 10 8 5 20 10 25 10 6
0 3 -5 -5 -10z m1121 -40 c50 -14 109 -73 109 -109 0 -16 -20 -71 -45 -122
-41 -88 -47 -95 -89 -112 -40 -16 -51 -29 -92 -99 -43 -75 -46 -84 -40 -132 6
-45 3 -58 -25 -111 -60 -114 -121 -153 -190 -125 l-31 13 4 83 c4 96 15 117
47 85 23 -23 63 -28 79 -8 25 30 243 432 248 456 6 27 -15 61 -37 61 -5 0 0
-9 11 -20 11 -11 20 -25 20 -31 0 -6 -9 -1 -19 12 -16 20 -23 22 -38 13 -16
-10 -77 -117 -214 -373 -44 -84 -44 -106 1 -99 24 4 27 2 19 -9 -21 -25 -69
-9 -69 24 0 17 29 74 135 268 48 88 89 169 90 181 12 90 28 135 53 149 33 17
29 17 73 5z m-404 -24 c16 -16 -17 -26 -83 -26 -72 0 -74 -1 -74 -25 0 -16 -6
-25 -15 -25 -11 0 -15 11 -15 35 0 27 5 38 23 45 21 10 154 6 164 -4z m3 -74
c0 -44 -16 -52 -107 -52 -67 0 -83 3 -83 15 0 12 15 15 75 15 73 0 75 1 75 25
0 18 5 25 20 25 15 0 20 -7 20 -28z m-1186 -57 c-9 -14 -19 -24 -21 -21 -6 6
20 46 30 46 4 0 0 -11 -9 -25z m56 22 c0 -2 -10 -12 -22 -23 l-23 -19 19 23
c18 21 26 27 26 19z m1140 -72 c-43 -46 -138 -56 -186 -20 -15 12 -11 11 23
-1 50 -20 95 -13 143 21 45 31 49 31 20 0z m-1223 -7 c-3 -8 -6 -5 -6 6 -1 11
2 17 5 13 3 -3 4 -12 1 -19z m1532 -62 c-24 -41 -44 -74 -46 -72 -2 1 16 37
39 79 23 43 43 75 45 73 2 -2 -15 -38 -38 -80z m-1529 -15 c13 -48 8 -43 277
-298 79 -75 146 -134 149 -131 2 3 -28 36 -68 74 -40 38 -129 125 -198 193
l-125 124 143 -134 c244 -229 356 -329 393 -355 46 -32 128 -42 394 -51 136
-4 198 -9 175 -14 -19 -5 -111 -4 -205 1 -325 18 -342 22 -438 110 -32 29 -60
50 -63 47 -6 -6 58 -67 116 -109 20 -15 56 -32 81 -37 40 -9 293 -27 474 -34
39 -2 14 -4 -55 -5 -144 -2 -386 14 -442 29 -54 14 -177 120 -471 407 -126
123 -142 145 -151 207 -7 47 -2 38 14 -24z m-2183 23 c-3 -3 -12 -4 -19 -1 -8
3 -5 6 6 6 11 1 17 -2 13 -5z m48 -4 c31 -12 24 -30 -11 -30 -17 0 -24 5 -24
20 0 23 0 23 35 10z m1655 -40 c14 -11 21 -20 17 -20 -5 0 -20 9 -34 20 -14
11 -22 20 -17 20 5 0 20 -9 34 -20z m3544 1 c3 -5 -21 -11 -53 -13 -42 -3 -71
-12 -98 -30 -21 -14 -85 -38 -143 -53 l-104 -27 -23 28 c-12 15 -20 31 -17 35
5 8 146 56 184 62 49 8 249 7 254 -2z m-4997 -57 c-3 -3 -12 -4 -19 -1 -8 3
-5 6 6 6 11 1 17 -2 13 -5z m3 -24 l25 -8 -25 0 c-14 0 -38 4 -55 8 l-30 8 30
0 c17 0 41 -4 55 -8z m-1130 -102 c0 -5 -16 -8 -35 -8 -19 0 -35 4 -35 10 0 5
16 9 35 7 19 -1 35 -5 35 -9z m5410 -8 c-14 -11 -29 -20 -35 -20 -5 0 4 9 20
20 38 25 48 25 15 0z m-5345 0 c-3 -5 -10 -10 -16 -10 -5 0 -9 5 -9 10 0 6 7
10 16 10 8 0 12 -4 9 -10z m2045 -11 c0 -5 -7 -9 -15 -9 -15 0 -20 12 -9 23 8
8 24 -1 24 -14z m-2166 -10 c16 -15 -1 -21 -24 -9 -18 9 -24 9 -30 0 -5 -9 -9
-9 -14 -1 -13 20 -26 12 -26 -15 0 -22 2 -25 15 -14 12 10 15 9 15 -4 0 -9 -7
-19 -16 -23 -8 -3 -13 -12 -10 -19 3 -8 -1 -14 -8 -14 -16 0 -32 88 -19 100
19 19 97 18 117 -1z m2927 -35 c-9 -28 -9 -29 -10 -3 -1 14 2 29 6 32 11 12
13 2 4 -29z m3379 -9 c225 -48 414 -169 547 -349 211 -285 237 -668 67 -974
-114 -203 -308 -358 -539 -428 -83 -26 -103 -28 -260 -28 -157 0 -177 2 -260
28 -319 97 -562 362 -631 686 -13 64 -20 299 -8 287 4 -3 10 -66 15 -138 10
-152 26 -221 80 -338 102 -220 297 -391 543 -473 246 -82 577 -27 791 132 171
127 279 284 336 490 20 72 23 106 22 220 -1 115 -5 148 -27 225 -77 260 -228
446 -450 556 -110 54 -199 77 -341 90 -144 13 -155 16 -135 30 18 12 159 3
250 -16z m444 -23 c16 -12 25 -22 20 -22 -5 0 -23 13 -39 28 -34 30 -25 27 19
-6z m-6674 3 c-7 -9 -15 -13 -17 -11 -7 7 7 26 19 26 6 0 6 -6 -2 -15z m818 8
c-10 -2 -26 -2 -35 0 -10 3 -2 5 17 5 19 0 27 -2 18 -5z m-73 -8 c-5 -2 -55
-18 -110 -35 -55 -17 -131 -50 -168 -72 -38 -22 -72 -37 -75 -33 -13 13 104
80 154 89 12 3 33 10 46 17 31 17 107 37 138 37 14 0 21 -1 15 -3z m6045 -101
c29 -32 2 -16 -40 25 -19 18 -20 21 -5 13 11 -5 31 -23 45 -38z m-586 16 c17
-6 34 -25 45 -51 13 -29 20 -36 24 -25 9 23 33 20 51 -6 12 -17 18 -20 28 -10
16 16 63 15 98 -3 81 -42 243 -207 256 -261 4 -16 0 -39 -9 -59 -15 -31 -14
-32 2 -28 27 7 48 -24 33 -48 -10 -16 -9 -19 4 -19 8 0 28 -13 43 -28 24 -23
30 -42 41 -117 17 -117 8 -259 -17 -294 -11 -13 -28 -29 -39 -35 -10 -6 -21
-12 -23 -13 -2 -2 1 -8 6 -15 14 -17 -1 -58 -20 -58 -12 0 -13 -6 -2 -37 17
-50 7 -76 -65 -161 -108 -128 -219 -195 -270 -162 -11 7 -16 4 -20 -13 -6 -24
-48 -36 -60 -17 -5 8 -11 1 -18 -18 -14 -41 -44 -59 -126 -73 -64 -11 -70 -10
-83 7 -7 10 -13 33 -13 51 0 23 -5 33 -15 33 -10 0 -15 -10 -15 -27 0 -16 -3
-39 -7 -52 -6 -23 -8 -23 -76 -17 -88 8 -117 22 -139 66 -10 19 -18 29 -18 22
0 -9 -10 -12 -27 -10 -22 2 -28 8 -27 26 1 26 -4 27 -30 7 -11 -8 -31 -15 -46
-15 -52 0 -208 128 -276 225 -36 52 -37 58 -28 95 10 34 9 39 -8 44 -15 3 -19
12 -16 33 2 23 -3 31 -27 43 -37 19 -51 47 -64 130 -14 82 -12 179 2 250 10
44 18 59 45 77 28 18 38 20 65 11 18 -6 37 -17 43 -25 7 -8 14 -10 15 -4 3 8
113 -30 127 -43 2 -3 -3 -15 -12 -28 -19 -27 -22 -50 -3 -24 12 16 14 16 26 2
11 -14 11 -16 -3 -16 -15 0 -22 -20 -16 -45 10 -47 9 -55 -9 -64 -10 -6 -21
-7 -25 -4 -3 3 -6 -3 -6 -15 0 -13 6 -22 15 -22 9 0 15 -9 15 -22 -1 -21 -2
-22 -14 -5 -7 9 -18 17 -24 17 -14 0 -5 -26 22 -62 18 -26 21 -27 37 -12 10 9
24 14 31 12 8 -3 5 -9 -10 -17 -18 -9 -21 -16 -12 -26 8 -9 7 -17 -4 -28 -15
-14 -16 -53 -2 -75 4 -7 18 -9 35 -6 23 5 30 2 35 -14 9 -26 32 -35 48 -18 11
11 23 4 71 -40 32 -30 65 -54 73 -54 8 0 14 -4 14 -10 0 -5 9 -10 19 -10 11 0
22 -4 25 -8 3 -5 22 -9 43 -10 l38 -1 -48 19 c-51 20 -121 86 -113 107 5 12
-10 17 -44 15 -13 0 -12 1 1 11 9 7 20 27 23 45 l8 32 41 -34 c83 -67 122 -81
227 -81 90 0 98 2 160 36 189 104 237 331 106 502 -33 43 -105 93 -157 109
-33 9 -38 15 -44 50 -8 48 0 58 48 60 45 2 34 22 -14 26 -17 1 -36 5 -41 8
-14 9 -35 67 -69 191 -17 65 -34 127 -37 137 -5 18 -1 19 85 13 50 -4 103 -11
117 -17z m-3984 6 c0 -3 -4 -8 -10 -11 -5 -3 -10 -1 -10 4 0 6 5 11 10 11 6 0
10 -2 10 -4z m-30 -47 c0 -6 -4 -7 -10 -4 -5 3 -10 11 -10 16 0 6 5 7 10 4 6
-3 10 -11 10 -16z m3337 -14 c-10 -7 -18 -17 -17 -22 1 -4 -7 -10 -17 -12 -14
-2 -11 4 11 28 16 17 32 28 35 25 3 -3 -2 -12 -12 -19z m398 -253 c5 -19 2
-25 -14 -29 -16 -4 -20 -11 -16 -27 3 -11 -19 29 -49 89 -30 61 -55 106 -55
102 -1 -11 139 -319 150 -331 11 -13 12 -36 1 -36 -5 0 -29 44 -55 98 -179
378 -176 372 -156 372 5 0 19 -21 30 -46 12 -25 23 -43 26 -41 2 3 -2 18 -10
34 -12 24 -12 32 1 63 l15 35 62 -130 c34 -71 66 -140 70 -153z m954 197 c19
-22 32 -42 29 -44 -2 -2 -21 16 -42 40 -20 25 -33 45 -29 44 4 0 23 -18 42
-40z m-6529 21 c0 -5 -2 -10 -4 -10 -3 0 -8 5 -11 10 -3 6 -1 10 4 10 6 0 11
-4 11 -10z m-70 -8 c0 -5 -9 -17 -21 -28 -69 -62 -164 -206 -204 -308 -48
-123 -59 -183 -59 -331 0 -116 3 -154 22 -220 60 -209 190 -386 377 -512 85
-58 151 -89 252 -120 78 -24 104 -27 228 -26 110 0 156 4 217 21 172 47 270
100 389 211 173 160 263 347 276 574 7 114 23 130 23 23 0 -92 -38 -245 -85
-343 -111 -236 -326 -415 -580 -484 -118 -33 -346 -33 -465 -1 -267 72 -469
241 -590 493 -83 173 -110 383 -72 555 40 181 100 300 219 436 55 64 73 78 73
60z m5518 -230 c57 -123 103 -224 101 -226 -2 -2 -13 -6 -25 -10 -21 -6 -21
-7 -197 374 -34 74 -34 94 2 87 7 -1 61 -102 119 -225z m-166 196 c8 -13 41
-81 74 -152 56 -124 58 -129 39 -142 -11 -8 -24 -13 -30 -11 -5 2 -50 63 -100
136 l-90 133 35 29 c41 35 53 36 72 7z m-5332 1 c0 -6 -20 -32 -45 -58 -83
-86 -145 -190 -186 -309 -53 -155 -54 -362 -2 -527 19 -63 86 -198 119 -240
35 -47 29 -55 -7 -9 -185 233 -221 603 -87 884 38 78 91 158 148 223 41 46 60
58 60 36z m2707 -24 c29 -8 65 -27 80 -40 l28 -25 -55 24 c-46 20 -64 22 -105
16 -52 -8 -54 -9 -20 -15 36 -7 103 -36 115 -50 6 -7 -16 -2 -52 12 -57 23
-71 25 -155 20 -98 -7 -118 0 -89 32 15 17 15 19 1 24 -8 4 -15 2 -15 -3 0 -6
-7 -10 -15 -10 -28 0 -3 29 28 33 59 9 201 -1 254 -18z m3000 -11 c3 -8 0 -21
-6 -27 -10 -9 -16 -8 -26 7 -8 10 -12 23 -9 27 9 15 34 10 41 -7z m-4410 -56
c46 -64 29 -61 -26 3 -29 33 -38 50 -27 48 10 -2 33 -25 53 -51z m1091 17 c-3
-3 -9 2 -12 12 -6 14 -5 15 5 6 7 -7 10 -15 7 -18z m-2297 -62 c23 -38 48 -78
56 -90 13 -20 11 -25 -23 -62 -24 -28 -45 -41 -62 -41 l-26 0 32 -23 c17 -13
50 -32 73 -42 l42 -19 22 28 22 28 24 -38 c12 -21 24 -45 24 -54 1 -9 14 -33
29 -52 24 -32 27 -45 29 -130 2 -86 5 -99 32 -144 19 -30 49 -60 80 -79 42
-26 58 -30 119 -30 101 1 156 35 210 131 21 37 24 39 78 42 51 3 57 1 60 -18
3 -23 98 -68 281 -134 87 -32 113 -59 81 -85 -13 -11 -18 -26 -16 -48 4 -43
-17 -80 -89 -158 -66 -70 -184 -155 -216 -155 -11 0 -32 9 -46 20 l-26 20 -3
-27 c-2 -23 -8 -28 -29 -28 -16 -1 -36 -12 -50 -29 -26 -30 -77 -45 -150 -46
-52 0 -59 8 -59 66 0 52 -26 44 -34 -11 -4 -24 -12 -47 -17 -51 -5 -3 -41 0
-79 6 -76 13 -120 43 -120 81 0 21 -1 21 -20 4 -22 -20 -50 -14 -57 14 -4 16
-9 18 -29 10 -38 -14 -82 10 -164 87 -127 120 -186 224 -149 261 7 7 3 12 -14
17 -32 8 -42 34 -21 57 16 18 16 19 -2 19 -80 2 -103 331 -31 451 13 21 28 34
35 31 11 -3 12 0 3 16 -14 26 12 56 40 49 20 -5 26 7 9 18 -5 3 -10 23 -10 43
0 30 10 50 50 100 28 34 55 62 60 62 4 0 27 -30 51 -67z m559 27 c0 -5 -4 -10
-10 -10 -5 0 -10 5 -10 10 0 6 5 10 10 10 6 0 10 -4 10 -10z m110 0 c0 -5 -5
-10 -11 -10 -5 0 -7 5 -4 10 3 6 8 10 11 10 2 0 4 -4 4 -10z m1597 -32 c-3 -8
-6 -5 -6 6 -1 11 2 17 5 13 3 -3 4 -12 1 -19z m-867 -30 c0 -19 -2 -20 -10 -8
-13 19 -13 30 0 30 6 0 10 -10 10 -22z m-1160 -3 c0 -8 -4 -15 -9 -15 -13 0
-22 16 -14 24 11 11 23 6 23 -9z m4875 -71 c50 -47 105 -99 123 -115 33 -29
33 -31 18 -54 -9 -14 -22 -25 -29 -25 -6 0 -63 20 -126 45 -62 25 -118 42
-125 38 -6 -3 -8 -2 -3 2 4 5 -1 17 -10 27 -17 19 -16 20 7 39 24 20 24 20 3
14 -15 -4 -23 -2 -23 6 0 15 59 109 69 109 3 0 47 -39 96 -86z m-3559 61 c-11
-8 -25 -15 -30 -15 -6 0 -2 7 8 15 11 8 25 15 30 15 6 0 2 -7 -8 -15z m5064 0
c0 -9 7 -27 16 -41 9 -13 14 -27 11 -30 -3 -3 -13 12 -23 33 -9 21 -19 41 -21
46 -2 4 1 7 6 7 6 0 11 -7 11 -15z m-4060 -4 c0 -20 -13 -41 -25 -41 -15 0
-28 27 -19 41 7 12 44 12 44 0z m-1799 -15 c-10 -12 -9 -20 4 -40 16 -24 16
-26 1 -32 -32 -12 -16 -32 35 -43 28 -6 79 -20 112 -31 52 -17 87 -20 256 -20
191 0 238 6 406 45 58 14 11 -12 -55 -30 -121 -33 -277 -45 -444 -34 -182 12
-235 20 -301 50 -27 12 -55 21 -61 20 -6 0 -17 5 -23 13 -10 12 -8 19 8 35 12
12 21 26 21 31 0 11 36 50 46 50 4 0 1 -6 -5 -14z m1072 -56 c5 -4 27 -3 49 2
41 9 77 5 48 -5 -21 -8 -275 -57 -292 -57 -9 1 -8 3 3 10 15 9 15 13 0 55 -23
66 -9 71 98 33 47 -16 90 -33 94 -38z m-1243 35 c0 -8 -6 -15 -14 -15 -17 0
-28 14 -19 24 12 12 33 6 33 -9z m2259 -25 c0 -10 -3 -8 -9 5 -12 27 -12 43 0
25 5 -8 9 -22 9 -30z m2836 15 c0 -30 -39 -27 -43 3 -3 20 0 23 20 20 15 -2
23 -10 23 -23z m-829 -50 c-3 -9 -11 -13 -17 -9 -7 4 -9 0 -5 -12 7 -25 -8
-53 -17 -30 -9 22 24 89 36 77 5 -5 7 -17 3 -26z m-4326 10 c0 -8 -7 -15 -15
-15 -16 0 -20 12 -8 23 11 12 23 8 23 -8z m2601 -22 c13 -16 12 -17 -3 -4 -10
7 -18 15 -18 17 0 8 8 3 21 -13z m749 -25 c0 -4 -7 -8 -15 -8 -8 0 -15 4 -15
8 0 5 7 9 15 9 8 0 15 -4 15 -9z m1420 6 c0 -7 -27 -34 -33 -34 -4 0 -3 21 2
38 2 5 31 2 31 -4z m-3590 -20 c0 -12 6 -15 23 -11 30 8 134 18 122 12 -19 -8
-348 -66 -359 -62 -5 2 38 12 97 22 70 13 102 22 92 28 -21 12 -18 27 5 27 12
0 20 -7 20 -16z m187 10 c-3 -3 -12 -4 -19 -1 -8 3 -5 6 6 6 11 1 17 -2 13 -5z
m3031 -39 c-3 -3 -9 2 -12 12 -6 14 -5 15 5 6 7 -7 10 -15 7 -18z m-2406 -20
c23 -31 13 -55 -22 -55 -41 0 -55 22 -35 54 21 32 35 32 57 1z m865 19 c-3 -3
-12 -4 -19 -1 -8 3 -5 6 6 6 11 1 17 -2 13 -5z m1592 -16 c11 -10 13 -10 7 0
-10 17 -10 17 103 -28 55 -22 105 -40 111 -40 5 0 10 -5 10 -10 0 -22 -32 -21
-99 5 -39 14 -75 24 -81 20 -5 -3 -14 5 -20 19 -6 17 -14 24 -25 20 -8 -4 -22
-1 -30 6 -12 10 -15 10 -15 0 0 -8 -3 -11 -6 -7 -9 8 5 27 20 27 6 0 18 -6 25
-12z m370 -9 c-22 -13 -31 -11 -17 5 7 8 17 12 22 9 4 -3 2 -9 -5 -14z m505
-15 c48 -36 55 -58 25 -77 -13 -8 -26 -2 -60 24 -24 19 -45 34 -47 35 -9 4 12
54 23 54 7 0 33 -16 59 -36z m-4484 6 c0 -5 -7 -10 -15 -10 -8 0 -15 5 -15 10
0 6 7 10 15 10 8 0 15 -4 15 -10z m103 -7 c-7 -2 -19 -2 -25 0 -7 3 -2 5 12 5
14 0 19 -2 13 -5z m3314 -15 c-3 -8 -6 -5 -6 6 -1 11 2 17 5 13 3 -3 4 -12 1
-19z m1926 -56 c7 -56 0 -49 -17 17 -10 41 -11 50 -1 39 7 -7 15 -32 18 -56z
m-5793 38 c0 -5 -9 -14 -20 -20 -22 -12 -27 -1 -8 18 14 14 28 16 28 2z m3857
-22 c-3 -8 -6 -5 -6 6 -1 11 2 17 5 13 3 -3 4 -12 1 -19z m1068 -41 c19 -27
19 -37 0 -37 -9 0 -12 6 -8 18 3 9 3 14 -1 10 -10 -9 -66 41 -66 59 0 18 52
-17 75 -50z m-4730 43 c3 -5 -1 -10 -9 -10 -8 0 -18 5 -21 10 -3 6 1 10 9 10
8 0 18 -4 21 -10z m82 4 c-3 -3 -12 -4 -19 -1 -8 3 -5 6 6 6 11 1 17 -2 13 -5z
m-477 -19 c7 -8 10 -22 6 -30 -7 -20 -55 -20 -62 0 -7 17 12 45 31 45 7 0 18
-7 25 -15z m437 9 c-3 -3 -12 -4 -19 -1 -8 3 -5 6 6 6 11 1 17 -2 13 -5z
m2528 -1 c-11 -2 -32 -18 -47 -35 -14 -16 -33 -28 -43 -26 -14 3 -14 6 4 25
27 29 27 31 -11 36 -18 2 1 4 42 4 41 0 66 -1 55 -4z m145 -3 c0 -6 -17 -10
-39 -8 -37 2 -71 -14 -71 -33 0 -5 18 -9 41 -9 26 0 38 -4 34 -11 -7 -11 -125
-9 -125 3 0 3 12 20 26 37 23 28 32 31 80 31 31 0 54 -4 54 -10z m1600 5 c0
-2 -13 -11 -30 -20 -16 -9 -30 -12 -30 -7 0 5 10 14 23 20 25 12 37 14 37 7z
m-4012 -17 c16 -16 15 -29 -1 -22 -8 3 -25 0 -40 -5 -34 -13 -44 3 -15 23 27
19 40 20 56 4z m3349 -35 c-3 -10 -5 -4 -5 12 0 17 2 24 5 18 2 -7 2 -21 0
-30z m-4367 11 c0 -11 -5 -14 -16 -10 -9 3 -18 6 -20 6 -3 0 -2 5 1 10 10 16
35 12 35 -6z m154 -7 c8 -14 8 -20 -4 -27 -36 -23 -70 -1 -56 36 8 20 45 15
60 -9z m705 -1 c7 -9 8 -17 2 -20 -5 -3 -12 0 -14 6 -4 9 -8 10 -14 2 -4 -6
-18 -14 -30 -18 -28 -9 -31 11 -5 30 22 17 47 17 61 0z m4006 4 c3 -5 -1 -10
-10 -10 -9 0 -13 5 -10 10 3 6 8 10 10 10 2 0 7 -4 10 -10z m159 -6 c18 -18
19 -24 7 -43 -13 -20 -61 -6 -61 17 0 18 18 42 31 42 4 0 15 -7 23 -16z m516
-9 c17 -20 5 -45 -20 -45 -23 0 -35 22 -26 45 7 19 30 19 46 0z m-5543 -39
c-4 -9 -11 -16 -17 -16 -17 0 -24 31 -9 41 18 11 34 -5 26 -25z m602 -3 c0
-25 -1 -25 -8 -8 -5 11 -7 23 -4 28 8 14 13 7 12 -20z m-94 -3 c-3 -5 -17 -10
-31 -10 -16 0 -24 -6 -24 -17 0 -9 3 -13 7 -10 3 4 12 2 20 -4 10 -9 13 -8 13
2 0 11 2 11 10 -1 7 -11 5 -17 -8 -22 -31 -12 -55 -9 -48 7 3 8 1 15 -4 15 -6
0 -10 -10 -11 -22 0 -16 -5 -10 -13 17 -11 37 -10 40 9 47 33 10 87 9 80 -2z
m996 -10 c10 -6 19 -16 19 -22 0 -9 -3 -9 -12 0 -7 7 -23 12 -36 12 -13 0 -20
4 -17 10 8 13 21 13 46 0z m3354 -19 c-6 -10 -45 -22 -45 -14 0 3 8 12 17 19
18 13 37 9 28 -5z m643 -40 c2 -40 0 -52 -10 -49 -19 7 -32 51 -24 82 11 44
31 24 34 -33z m-5572 -51 c1 -44 -3 -80 -7 -80 -5 0 -9 15 -9 34 0 18 -3 54
-6 80 -5 36 -4 46 7 46 11 0 14 -19 15 -80z m57 60 c-3 -11 -7 -20 -9 -20 -2
0 -4 9 -4 20 0 11 4 20 9 20 5 0 7 -9 4 -20z m5343 -23 c8 -4 14 -17 14 -27 0
-10 5 -22 10 -25 6 -4 7 -11 4 -17 -5 -7 -11 -2 -16 12 -8 21 -10 22 -26 6
-22 -19 -53 -21 -70 -4 -30 30 1 95 39 83 12 -4 19 -1 20 7 1 7 4 4 6 -7 3
-11 11 -24 19 -28z m252 -6 c4 -50 -7 -66 -37 -56 -17 5 -21 14 -21 49 0 49 6
58 35 54 16 -2 21 -12 23 -47z m-5374 23 c3 -9 4 -20 0 -25 -14 -23 -57 2 -47
27 7 19 39 18 47 -2z m686 -26 c-1 -24 -7 -74 -14 -112 -20 -104 -68 -130
-151 -83 -54 30 -67 59 -59 127 3 30 9 59 14 64 7 7 156 41 198 45 8 1 12 -13
12 -41z m4284 -5 c8 -19 -11 -53 -28 -53 -22 0 -37 26 -31 53 5 19 11 23 30
19 13 -2 26 -11 29 -19z m-309 -13 c3 -5 1 -10 -4 -10 -6 0 -11 5 -11 10 0 6
2 10 4 10 3 0 8 -4 11 -10z m-2826 -26 c10 -9 -35 -3 -49 6 -11 8 -7 9 15 4
17 -4 32 -8 34 -10z m140 6 c-19 -11 -107 -26 -98 -17 6 7 74 25 99 26 13 0
12 -1 -1 -9z m2624 -17 c-7 -2 -21 -2 -30 0 -10 3 -4 5 12 5 17 0 24 -2 18 -5z
m667 -56 c0 -17 -69 -87 -86 -87 -13 0 -28 29 -19 38 3 3 5 -1 5 -9 1 -8 7 1
15 19 18 41 85 72 85 39z m-5453 -13 c5 -16 -29 -27 -38 -12 -4 6 -5 16 -2 21
7 11 35 5 40 -9z m5003 -9 c-7 -9 -15 -13 -18 -10 -3 2 1 11 8 20 7 9 15 13
18 10 3 -2 -1 -11 -8 -20z m75 0 c14 -13 25 -32 25 -41 0 -15 -4 -14 -26 7
-14 13 -30 32 -35 42 -14 26 7 22 36 -8z m445 -9 c0 -20 -61 -86 -80 -86 -32
0 -31 29 3 74 28 38 35 42 55 33 12 -6 22 -15 22 -21z m-5513 -13 c-9 -9 -20
-14 -24 -10 -3 4 2 14 13 21 25 19 33 10 11 -11z m5067 -35 c20 -18 23 -28 16
-45 -12 -30 -23 -29 -62 5 -21 19 -29 34 -25 45 9 24 41 21 71 -5z m188 -9
c16 -9 23 -8 29 2 5 8 9 11 9 7 0 -3 3 -13 6 -22 5 -14 -4 -16 -60 -16 -66 0
-82 10 -48 29 22 14 39 13 64 0z m117 -33 c17 -20 3 -46 -24 -46 -30 0 -39 14
-25 40 12 23 33 26 49 6z m-97 -30 c25 -36 -29 -56 -108 -41 -31 5 -32 7 -23
34 9 27 12 27 67 23 31 -3 60 -10 64 -16z m-428 -27 c-3 -5 -10 -7 -15 -3 -5
3 -7 10 -3 15 3 5 10 7 15 3 5 -3 7 -10 3 -15z m-608 -56 c-7 -7 -26 7 -26 19
0 6 6 6 15 -2 9 -7 13 -15 11 -17z m259 -403 c10 -11 16 -20 13 -20 -3 0 -15
9 -28 20 -13 11 -19 20 -13 20 5 0 18 -9 28 -20z"/>
<path d="M4949 2903 c-13 -17 -13 -17 6 -3 11 8 22 16 24 17 2 2 0 3 -6 3 -6
0 -17 -8 -24 -17z"/>
<path d="M6736 1938 c33 -26 70 -64 90 -92 7 -11 17 -17 20 -13 9 9 -108 127
-126 127 -7 0 0 -10 16 -22z"/>
<path d="M5744 1791 c10 -56 27 -113 31 -109 5 5 -24 130 -32 138 -3 3 -3 -11
1 -29z"/>
<path d="M6861 1780 c12 -23 30 -71 40 -108 10 -37 17 -51 14 -32 -13 97 -22
130 -48 163 -25 30 -27 18 -6 -23z"/>
<path d="M6820 1581 c0 -12 5 -21 10 -21 6 0 10 6 10 14 0 8 -4 18 -10 21 -5
3 -10 -3 -10 -14z"/>
<path d="M6821 1518 c0 -9 -4 -25 -7 -35 -5 -14 -4 -15 5 -7 7 7 11 22 8 35
-2 13 -5 16 -6 7z"/>
<path d="M6378 1133 c7 -3 16 -2 19 1 4 3 -2 6 -13 5 -11 0 -14 -3 -6 -6z"/>
<path d="M620 1911 c0 -8 50 -34 56 -29 1 2 -11 11 -27 20 -16 9 -29 14 -29 9z"/>
<path d="M710 1867 c0 -3 16 -15 35 -27 30 -19 38 -20 52 -9 14 12 12 15 -18
20 -19 4 -42 10 -51 14 -10 4 -18 5 -18 2z"/>
<path d="M820 1825 c0 -8 -6 -15 -12 -15 -14 -1 49 -30 63 -30 20 0 7 26 -21
42 -25 14 -30 15 -30 3z"/>
<path d="M743 1776 c-2 -22 -4 -103 -5 -178 -2 -75 -6 -140 -11 -144 -15 -16
-6 -24 21 -18 57 13 112 43 113 61 0 11 3 13 6 5 3 -9 16 -11 39 -6 67 13 33
-14 -54 -41 -69 -21 -90 -33 -99 -52 -11 -22 -10 -24 5 -18 9 4 37 14 62 22
25 9 50 21 55 27 6 6 16 11 23 12 29 2 33 5 26 15 -4 7 0 9 13 5 14 -5 19 -1
19 14 0 11 -4 20 -9 20 -4 0 -6 4 -3 9 4 5 -6 14 -21 19 -16 6 -21 11 -12 11
12 1 15 13 15 59 -1 31 3 73 7 92 8 33 8 34 -7 15 -14 -18 -15 -18 -16 -2 0 9
-4 17 -10 17 -5 0 -3 -15 5 -32 9 -22 10 -38 4 -51 -13 -22 -29 -13 -28 16 1
20 2 20 9 -3 l8 -25 1 28 c1 21 -5 30 -19 34 -15 4 -20 14 -20 39 0 31 -5 36
-57 63 l-58 29 -2 -42z m117 -170 c-7 -7 -10 4 -9 30 1 39 1 39 10 9 5 -18 5
-33 -1 -39z m9 -58 c1 -5 -3 -8 -9 -8 -5 0 -10 12 -9 28 0 24 1 25 9 7 5 -11
9 -23 9 -27z m-84 -56 c-8 -8 -25 10 -19 20 4 6 9 5 15 -3 4 -7 6 -15 4 -17z
m135 24 c0 -2 -9 -6 -20 -9 -11 -3 -18 -1 -14 4 5 9 34 13 34 5z"/>
<path d="M1605 1460 c-10 -31 -65 -101 -75 -95 -6 3 -10 2 -10 -4 0 -6 -16
-26 -35 -45 l-35 -35 20 -53 c11 -29 35 -84 54 -122 l33 -69 12 35 c9 26 30
50 80 87 38 28 85 73 104 100 20 27 45 52 56 56 34 10 25 22 -31 40 -47 15
-166 63 -177 72 -2 2 -2 5 0 8 3 2 39 -9 80 -26 69 -28 228 -88 274 -104 11
-3 -7 8 -40 26 -33 17 -69 39 -80 49 -11 10 -38 23 -60 30 -22 7 -68 25 -102
41 -58 25 -63 26 -68 9z m-40 -310 c3 -5 2 -10 -4 -10 -5 0 -13 5 -16 10 -3 6
-2 10 4 10 5 0 13 -4 16 -10z"/>
<path d="M930 1425 c-19 -7 -68 -23 -109 -35 -59 -19 -70 -25 -54 -31 12 -4
36 -29 53 -56 43 -63 95 -118 147 -154 23 -16 45 -39 48 -51 6 -16 15 0 46 77
36 92 38 100 23 117 -9 9 -21 15 -25 12 -5 -3 -9 0 -9 7 0 7 -17 32 -37 57
-21 25 -40 51 -43 58 -4 9 -13 9 -40 -1z m13 -22 c3 -5 -6 -9 -20 -10 -19 -1
-22 1 -12 8 17 11 26 11 32 2z m7 -189 c0 -14 -3 -14 -15 -4 -8 7 -15 14 -15
16 0 2 7 4 15 4 8 0 15 -7 15 -16z"/>
<path d="M1418 1268 c-14 -12 -10 -27 43 -148 33 -74 66 -150 74 -167 8 -18
18 -33 23 -33 5 0 1 17 -9 38 -10 20 -26 66 -35 102 -9 36 -26 83 -37 105 -11
22 -25 57 -32 78 -9 32 -13 36 -27 25z"/>
<path d="M1071 1153 c-28 -64 -49 -118 -47 -120 3 -3 12 9 21 26 8 17 20 31
26 31 10 0 19 19 59 120 15 39 16 49 6 53 -9 4 -30 -31 -65 -110z"/>
<path d="M1133 1162 c-22 -48 -44 -98 -48 -112 -7 -24 -7 -24 11 -9 16 14 44
15 189 13 94 -2 176 -6 183 -9 7 -2 3 15 -11 43 -13 26 -34 73 -47 105 -22 57
-23 58 -54 50 -39 -10 -111 -10 -152 -1 -32 7 -32 7 -71 -80z m107 -82 c0 -5
-2 -10 -4 -10 -3 0 -8 5 -11 10 -3 6 -1 10 4 10 6 0 11 -4 11 -10z"/>
<path d="M990 955 c0 -8 4 -15 10 -15 5 0 7 7 4 15 -4 8 -8 15 -10 15 -2 0 -4
-7 -4 -15z"/>
<path d="M3272 1833 c2 -10 10 -18 18 -18 8 0 16 8 18 18 2 12 -3 17 -18 17
-15 0 -20 -5 -18 -17z"/>
<path d="M4942 4709 c2 -60 36 -94 90 -92 50 2 63 13 52 44 -9 28 -6 59 8 77
8 9 -7 12 -71 12 l-81 0 2 -41z m49 -20 c4 -18 5 -36 3 -38 -8 -9 -22 14 -29
48 -5 25 -4 32 6 29 8 -3 17 -20 20 -39z m64 -19 c-3 -5 -1 -11 5 -15 6 -4 8
-11 4 -16 -10 -17 -35 11 -25 29 5 8 7 24 4 36 -3 18 -2 18 7 -2 5 -13 8 -28
5 -32z"/>
<path d="M4612 4498 c3 -25 36 -37 48 -17 13 20 0 39 -27 39 -20 0 -24 -4 -21
-22z"/>
<path d="M4610 4426 c0 -2 8 -10 18 -17 15 -13 16 -12 3 4 -13 16 -21 21 -21
13z"/>
<path d="M5212 4375 c43 -58 63 -74 31 -27 -26 40 -60 82 -67 82 -3 0 13 -25
36 -55z"/>
<path d="M5095 4410 c-3 -5 -1 -10 4 -10 6 0 11 5 11 10 0 6 -2 10 -4 10 -3 0
-8 -4 -11 -10z"/>
<path d="M5387 4100 c3 -11 9 -22 13 -25 5 -3 6 4 3 15 -3 11 -9 22 -13 25 -5
3 -6 -4 -3 -15z"/>
<path d="M3961 4099 c-44 -8 -148 -40 -206 -62 -39 -16 -260 -129 -305 -156
-19 -12 -62 -35 -95 -51 -70 -35 -29 -30 50 5 170 78 221 98 367 145 215 70
248 72 456 25 112 -25 170 -25 179 2 4 12 -184 68 -282 83 -112 17 -118 17
-164 9z"/>
<path d="M5770 3926 c0 -8 -10 -17 -22 -19 -17 -3 -14 -5 10 -6 32 -1 45 20
22 34 -5 3 -10 -1 -10 -9z"/>
<path d="M1470 3530 c0 -5 5 -10 10 -10 6 0 10 5 10 10 0 6 -4 10 -10 10 -5 0
-10 -4 -10 -10z"/>
<path d="M1056 3343 c-9 -10 -7 -43 3 -43 17 0 41 12 41 21 0 11 -36 30 -44
22z"/>
<path d="M5868 3313 c7 -3 16 -2 19 1 4 3 -2 6 -13 5 -11 0 -14 -3 -6 -6z"/>
<path d="M1130 3241 l-45 -6 85 -34 c82 -32 211 -54 209 -35 -1 15 -152 85
-179 83 -14 -1 -45 -5 -70 -8z"/>
<path d="M1460 3211 c0 -10 50 -25 58 -16 8 7 1 11 -30 19 -16 3 -28 2 -28 -3z"/>
<path d="M1405 3155 c11 -8 28 -22 38 -30 9 -8 23 -15 30 -15 15 1 -17 26 -58
46 -28 14 -28 14 -10 -1z"/>
<path d="M1692 3151 c-20 -12 -10 -46 12 -46 11 0 21 6 24 13 2 6 -3 12 -12
12 -9 0 -16 4 -16 10 0 5 7 6 17 3 11 -4 14 -3 9 5 -8 14 -16 15 -34 3z"/>
<path d="M1506 3121 c-3 -5 1 -11 9 -14 9 -4 12 -1 8 9 -6 16 -10 17 -17 5z"/>
<path d="M3040 2980 c-8 -15 -6 -24 10 -40 25 -25 35 -25 54 2 11 15 12 26 5
40 -13 24 -55 23 -69 -2z"/>
<path d="M5521 2824 c0 -11 3 -14 6 -6 3 7 2 16 -1 19 -3 4 -6 -2 -5 -13z"/>
<path d="M527 2695 c-23 -48 -5 -52 22 -5 17 30 19 40 8 40 -7 0 -21 -16 -30
-35z"/>
<path d="M595 2710 c-3 -5 1 -10 10 -10 9 0 13 5 10 10 -3 6 -8 10 -10 10 -2
0 -7 -4 -10 -10z"/>
<path d="M2420 2680 c0 -27 34 -44 50 -25 18 21 5 45 -25 45 -18 0 -25 -5 -25
-20z"/>
<path d="M2520 2615 c-14 -16 -3 -20 19 -6 8 5 9 11 3 15 -5 3 -15 -1 -22 -9z"/>
<path d="M2160 2582 c0 -12 19 -26 26 -19 2 2 -2 10 -11 17 -9 8 -15 8 -15 2z"/>
<path d="M2237 2582 c-19 -4 -198 -203 -191 -213 5 -9 276 49 288 61 8 8 -6 9
-44 4 -52 -6 -57 -4 -84 25 l-30 31 44 45 c45 46 48 54 17 47z"/>
<path d="M2478 2583 c6 -2 18 -2 25 0 6 3 1 5 -13 5 -14 0 -19 -2 -12 -5z"/>
<path d="M2570 2576 c0 -2 8 -10 18 -17 15 -13 16 -12 3 4 -13 16 -21 21 -21
13z"/>
<path d="M2530 2546 c0 -5 40 -48 89 -95 49 -47 91 -93 93 -101 3 -8 9 -11 14
-7 4 4 -38 54 -94 110 -56 56 -102 98 -102 93z"/>
<path d="M2417 2514 c-10 -13 -13 -24 -8 -24 10 0 36 39 29 45 -2 2 -11 -8
-21 -21z"/>
<path d="M1530 2418 c47 -47 192 -158 200 -153 16 10 12 35 -6 35 -18 0 -66
35 -58 42 2 3 -4 11 -13 19 -16 13 -17 12 -4 -3 20 -27 4 -22 -38 10 -48 38
-101 71 -81 50z"/>
<path d="M1035 2270 c5 -14 11 -38 15 -55 4 -16 19 -58 34 -93 14 -34 28 -75
30 -90 5 -38 34 -102 46 -102 13 0 12 2 -1 37 -6 15 -20 62 -31 103 -11 41
-26 82 -33 90 -7 8 -23 40 -35 70 -23 58 -38 82 -25 40z"/>
<path d="M1562 2265 c-11 -23 -9 -26 14 -36 32 -12 34 -10 37 27 3 40 -34 46
-51 9z m38 1 c0 -17 -14 -29 -23 -20 -8 8 3 34 14 34 5 0 9 -6 9 -14z"/>
<path d="M1760 2261 c0 -22 25 -51 44 -51 8 0 19 -7 26 -15 21 -25 -8 -19 -45
10 -18 13 -35 21 -38 18 -6 -5 75 -73 87 -73 3 0 6 7 6 15 0 8 15 31 32 51 25
28 27 34 10 23 -12 -7 -22 -17 -22 -20 0 -4 -16 9 -36 27 -40 38 -64 44 -64
15z"/>
<path d="M2886 2267 c-27 -20 -17 -51 18 -55 42 -5 59 24 30 52 -19 19 -25 20
-48 3z m39 -28 c-10 -15 -25 -10 -19 6 4 8 10 12 15 9 5 -3 7 -10 4 -15z"/>
<path d="M820 2224 c0 -10 103 -164 108 -160 4 5 -97 166 -104 166 -2 0 -4 -3
-4 -6z"/>
<path d="M7361 2165 c-1 -5 8 -21 19 -35 11 -14 20 -20 20 -14 0 7 -9 22 -20
35 -10 13 -19 20 -19 14z"/>
<path d="M5650 2046 c0 -4 7 -14 15 -22 8 -9 15 -11 15 -6 0 5 -7 15 -15 22
-8 7 -15 9 -15 6z"/>
<path d="M990 1921 c0 -6 4 -13 10 -16 6 -3 7 1 4 9 -7 18 -14 21 -14 7z"/>
<path d="M2990 1789 c-63 -39 -117 -73 -119 -75 -15 -14 20 -13 109 5 89 17
106 23 126 48 27 32 29 52 11 77 -11 15 -22 11 -127 -55z"/>
<path d="M3222 1658 c-30 -30 11 -85 44 -57 15 13 19 59 5 59 -5 0 -7 -9 -4
-20 6 -23 -22 -39 -39 -22 -9 9 -7 17 7 32 19 21 8 29 -13 8z"/>
<path d="M5520 1052 c6 -13 14 -21 18 -18 3 4 -2 14 -12 24 -18 16 -18 16 -6
-6z"/>
<path d="M5652 834 c10 -10 20 -15 24 -12 3 4 -5 12 -18 18 -22 12 -22 12 -6
-6z"/>
</g>
</svg>
